<svg width="173" height="48" fill="none" xmlns="http://www.w3.org/2000/svg"><path fill-rule="evenodd" clip-rule="evenodd" d="M131.383.025c-.042.042-.035 31.95.006 31.976.032.02.177-.117.177-.168 0-.03.072-.117.264-.32a1.11 1.11 0 00.159-.19c0-.013.048-.075.106-.138a.472.472 0 00.106-.15c0-.051.112-.158.166-.158.025 0 .045-.02.045-.045 0-.06.108-.168.167-.168.025 0 .045-.02.045-.045 0-.05.104-.168.147-.168a.473.473 0 00.129-.095l.228-.213a.63.63 0 01.152-.117c.044 0 .148-.118.148-.168 0-.025.038-.046.084-.046.046 0 .153-.067.236-.149.084-.082.181-.149.215-.149s.113-.048.175-.106c.063-.059.139-.107.168-.107.029 0 .053-.018.053-.041 0-.023.048-.054.106-.069.058-.015.106-.044.106-.065 0-.02.047-.038.106-.038.058 0 .105-.018.105-.041 0-.023.048-.054.106-.069.058-.015.106-.044.106-.065 0-.02.038-.038.085-.038.046 0 .084-.019.084-.042 0-.024.037-.043.082-.043a.666.666 0 00.222-.07c.258-.13.287-.143.355-.143a.221.221 0 00.13-.064.306.306 0 01.188-.064c.068 0 .124-.019.124-.042 0-.023.075-.043.167-.043.091 0 .178-.019.193-.042.014-.024.082-.043.151-.043a.87.87 0 00.278-.064 1.12 1.12 0 01.359-.064c.113 0 .206-.016.206-.036 0-.035.935-.107 1.397-.108.444 0 1.354.072 1.354.108 0 .02.133.036.296.036.163 0 .297.016.297.036 0 .04.379.13.687.163.111.013.201.04.201.061 0 .021.049.038.108.038.058 0 .175.03.259.064a.823.823 0 00.25.064c.054 0 .108.017.121.037.012.02.099.05.193.065.093.015.17.046.17.07 0 .022.065.041.145.041.081 0 .156.017.169.038.013.021.086.049.162.062.247.042.54.132.54.165 0 .019.095.033.211.033.117 0 .212.016.212.036 0 .119 1.279.23 2.025.176.53-.038.98-.119.98-.176 0-.02.085-.036.19-.036s.191-.019.191-.042c0-.024.063-.043.14-.043a.431.431 0 00.222-.062.432.432 0 01.22-.064c.075-.001.137-.02.137-.044 0-.024.052-.043.116-.044a.55.55 0 00.223-.063.504.504 0 01.201-.062c.052 0 .095-.02.095-.044 0-.024.045-.043.101-.043a.59.59 0 00.222-.063.584.584 0 01.217-.064c.052 0 .095-.02.095-.043 0-.023.066-.043.148-.043.081 0 .148-.016.148-.037 0-.02.09-.047.2-.06.109-.012.206-.043.215-.069.008-.026.08-.047.16-.047.079 0 .145-.019.145-.042 0-.024.071-.044.158-.044a.643.643 0 00.265-.063.646.646 0 01.264-.062c.088-.001.159-.02.159-.044 0-.024.083-.043.185-.043s.254-.029.337-.064a1.22 1.22 0 01.387-.064c.128 0 .234-.019.234-.042 0-.028.472-.043 1.333-.043.86 0 1.333.015 1.333.043 0 .023.09.043.201.043.111 0 .277.028.37.062.093.034.232.062.307.063.076.001.138.021.138.045 0 .023.062.043.137.044a.43.43 0 01.22.064.348.348 0 00.18.062c.054 0 .098.02.098.043 0 .023.062.043.137.044a.43.43 0 01.22.064.317.317 0 00.159.062c.042 0 .076.02.076.043 0 .023.048.042.106.042.058 0 .106.02.106.043 0 .023.036.043.081.043.045 0 .111.028.145.063a.224.224 0 00.13.064c.037 0 .067.017.067.038 0 .021.048.05.106.065.058.015.106.046.106.068 0 .023.028.042.064.042.07 0 .217.077.307.16.032.03.078.053.103.053.025 0 .075.036.113.08a.427.427 0 00.164.109c.052.016.095.048.095.07 0 .021.02.04.045.04.025 0 .072.023.105.053.127.114.186.16.21.16a.46.46 0 01.127.095c.15.142.226.203.253.203.013 0 .291.269.618.598.501.504.609.594.687.57.051-.017.099-.046.106-.067.008-.02.04-.037.071-.037a.194.194 0 00.113-.053c.031-.03.131-.091.222-.138.289-.149.321-.169.321-.202 0-.018.048-.033.106-.033.058 0 .106-.018.106-.04 0-.023.071-.074.158-.115a.994.994 0 00.18-.099c.046-.053.254-.171.301-.171.027 0 .093-.049.147-.107.054-.059.137-.107.185-.107.048 0 .087-.019.087-.042 0-.023.036-.043.08-.043.044 0 .091-.029.104-.064.014-.035.063-.064.111-.064.047 0 .086-.019.086-.042 0-.023.028-.043.063-.043s.064-.018.064-.041c0-.023.047-.054.105-.069.059-.015.106-.044.106-.065 0-.02.038-.038.085-.038.046 0 .084-.018.084-.041 0-.023.048-.054.106-.069.058-.015.106-.044.106-.065 0-.02.029-.038.064-.038.034 0 .063-.019.063-.042 0-.024.039-.043.086-.043.047 0 .097-.029.11-.064.014-.035.061-.064.105-.064s.08-.014.08-.032c.001-.017.077-.068.17-.113.093-.045.169-.097.169-.117 0-.02.038-.036.085-.036.048 0 .097-.029.111-.064.013-.035.06-.064.104-.064s.08-.019.08-.042c0-.023.039-.043.085-.043.047 0 .085-.019.085-.042 0-.024.038-.043.084-.043.047 0 .085-.028.085-.064 0-.04.04-.064.106-.064.058 0 .106-.014.106-.032 0-.033.125-.11.264-.163.041-.015.074-.044.074-.065 0-.02.038-.038.085-.038.047 0 .085-.028.085-.064 0-.04.039-.064.105-.064.059 0 .106-.014.106-.032 0-.033.126-.11.265-.162.04-.016.074-.046.074-.066 0-.02.038-.038.084-.038.047 0 .085-.019.085-.042 0-.024.027-.043.06-.043a.2.2 0 00.117-.055 1.04 1.04 0 01.214-.13c.088-.04.159-.093.159-.115 0-.022.038-.04.085-.04.046 0 .084-.018.084-.039 0-.02.044-.049.097-.062a.533.533 0 00.188-.111c.051-.048.124-.087.161-.087a.221.221 0 00.127-.053c.115-.104.17-.14.327-.212.087-.041.159-.094.159-.117 0-.024.047-.044.105-.044.059 0 .106-.019.106-.042 0-.024.036-.043.08-.043.044 0 .091-.029.105-.064.013-.035.063-.064.11-.064s.086-.019.086-.042c0-.024.029-.043.064-.043.034 0 .063-.019.063-.042 0-.023.048-.054.106-.068.058-.015.106-.044.106-.065 0-.02.03-.038.066-.038a.224.224 0 00.126-.053c.146-.133.189-.16.25-.16.036 0 .066-.017.066-.038 0-.02.047-.05.105-.065.059-.014.106-.045.106-.068 0-.023.038-.042.085-.042.046 0 .084-.02.084-.043 0-.023.029-.042.064-.042s.063-.017.063-.038c0-.02.048-.05.106-.065.058-.015.106-.045.106-.068 0-.023.048-.042.106-.042.066 0 .106-.024.106-.064 0-.035.037-.064.084-.064.047 0 .085-.014.085-.032.001-.017.077-.068.17-.113.093-.045.169-.098.169-.117 0-.02.047-.036.105-.036.059 0 .106-.02.106-.043 0-.023.02-.042.045-.042a.564.564 0 00.184-.107.507.507 0 01.209-.106c.046 0 .07-.036.07-.107 0-.066-.024-.106-.063-.106-.035 0-.064-.015-.064-.032-.001-.043-.245-.181-.321-.181-.033 0-.06-.015-.06-.033 0-.032-.125-.109-.264-.162-.041-.015-.074-.045-.074-.066 0-.02-.037-.037-.081-.037-.044 0-.091-.029-.104-.064-.013-.035-.063-.064-.11-.064-.048 0-.086-.015-.086-.033 0-.032-.126-.109-.265-.162-.041-.015-.074-.045-.074-.066 0-.02-.038-.037-.085-.037-.046 0-.084-.02-.084-.043 0-.023-.027-.042-.061-.042a.2.2 0 01-.116-.055 1.025 1.025 0 00-.215-.13c-.087-.041-.158-.093-.158-.116 0-.022-.039-.04-.085-.04-.047 0-.085-.017-.085-.038 0-.021-.047-.05-.106-.065-.058-.014-.105-.045-.105-.068 0-.023-.029-.042-.064-.042s-.063-.02-.063-.043c0-.023-.048-.042-.106-.042-.058 0-.106-.02-.106-.042 0-.023-.048-.054-.106-.069-.058-.014-.106-.039-.106-.055 0-.015-.066-.064-.148-.108-.081-.044-.148-.097-.148-.116 0-.02-.047-.036-.106-.036-.058 0-.105-.017-.105-.038 0-.021-.048-.05-.106-.065-.058-.015-.106-.045-.106-.068 0-.023-.038-.042-.085-.042-.046 0-.084-.02-.084-.043 0-.023-.029-.042-.064-.042s-.063-.02-.063-.042c0-.023-.048-.054-.106-.069-.058-.014-.106-.044-.106-.064 0-.021-.039-.038-.086-.038-.047 0-.096-.026-.107-.057-.012-.031-.088-.083-.168-.114-.081-.032-.147-.072-.147-.088 0-.017-.047-.042-.106-.057-.058-.015-.105-.046-.105-.069 0-.023-.048-.041-.106-.041-.058 0-.106-.016-.106-.036 0-.02-.067-.072-.148-.116-.082-.044-.148-.095-.148-.113 0-.019-.039-.033-.086-.033-.048 0-.097-.03-.111-.064-.013-.036-.07-.064-.125-.064-.056 0-.101-.016-.101-.036 0-.02-.067-.072-.149-.116-.081-.044-.148-.095-.148-.113 0-.019-.047-.033-.106-.033-.058 0-.105-.017-.105-.038 0-.021-.048-.05-.106-.065-.058-.015-.106-.046-.106-.069 0-.023-.029-.041-.063-.041-.035 0-.064-.02-.064-.043 0-.023-.036-.043-.08-.043-.044 0-.091-.028-.105-.063-.013-.036-.063-.064-.11-.064s-.086-.02-.086-.043c0-.023-.028-.043-.063-.043s-.064-.018-.064-.041c0-.023-.047-.054-.106-.069-.058-.014-.105-.044-.105-.064 0-.021-.039-.038-.085-.038-.047 0-.085-.018-.085-.038 0-.021-.047-.05-.106-.065-.058-.015-.105-.046-.105-.069 0-.023-.029-.041-.064-.041s-.063-.02-.063-.043c0-.023-.039-.043-.086-.043-.048 0-.097-.028-.111-.064-.013-.035-.06-.063-.104-.063s-.08-.018-.08-.038c0-.021-.043-.05-.096-.063a.528.528 0 01-.189-.11.322.322 0 00-.179-.088c-.048 0-.086-.016-.086-.035 0-.02-.114-.092-.253-.16s-.253-.148-.254-.177c-.001-.03-.049-.053-.107-.053-.058 0-.106-.015-.106-.033 0-.033-.125-.11-.264-.162-.041-.016-.074-.045-.074-.066 0-.02-.039-.038-.085-.038-.047 0-.085-.018-.085-.042 0-.022-.047-.053-.106-.068-.058-.015-.106-.039-.106-.054s-.076-.064-.169-.109c-.093-.045-.169-.097-.169-.117 0-.02-.038-.036-.085-.036-.046 0-.084-.017-.084-.038 0-.02-.048-.05-.106-.064-.058-.015-.106-.046-.106-.069 0-.023-.038-.042-.085-.042-.046 0-.084-.014-.085-.032 0-.017-.076-.068-.169-.113-.093-.045-.169-.097-.169-.117 0-.02-.037-.036-.082-.036-.046 0-.098-.024-.117-.053a.498.498 0 00-.269-.16c-.025 0-.072-.024-.105-.053-.15-.136-.191-.16-.271-.16-.048 0-.087-.019-.087-.042 0-.024-.028-.043-.063-.043s-.064-.019-.064-.042c0-.023-.047-.053-.106-.068-.058-.015-.105-.044-.105-.065 0-.02-.036-.038-.081-.038-.044 0-.091-.029-.104-.064-.013-.035-.063-.064-.11-.064-.048 0-.086-.019-.086-.042 0-.024-.029-.043-.064-.043s-.063-.019-.063-.042c0-.023-.048-.053-.106-.068-.058-.015-.106-.044-.106-.065 0-.02-.038-.038-.085-.038-.046 0-.084-.017-.084-.038 0-.02-.048-.05-.106-.065-.058-.014-.106-.045-.106-.068 0-.023-.028-.042-.063-.042s-.064-.019-.064-.042c0-.024-.038-.043-.086-.043-.047 0-.097-.029-.11-.064-.014-.035-.061-.064-.105-.064s-.08-.019-.08-.042c0-.024-.028-.043-.063-.043s-.064-.019-.064-.042c0-.023-.047-.053-.105-.068-.059-.015-.106-.044-.106-.065 0-.02-.04-.038-.088-.038a.256.256 0 01-.147-.053c-.14-.127-.188-.16-.229-.16a.044.044 0 01-.044-.042c0-.024-.039-.043-.086-.043-.047 0-.097-.029-.11-.064-.014-.035-.07-.064-.126-.064-.056 0-.101-.015-.101-.033 0-.018-.067-.069-.149-.113-.081-.044-.148-.096-.148-.116 0-.02-.047-.036-.105-.036-.059 0-.106-.019-.106-.042 0-.023-.048-.054-.106-.068-.058-.015-.106-.044-.106-.065 0-.02-.02-.038-.045-.038a.565.565 0 01-.184-.106.506.506 0 00-.209-.107c-.038 0-.07-.017-.07-.038 0-.02-.047-.05-.106-.065-.058-.014-.105-.045-.105-.068 0-.023-.029-.042-.064-.042s-.063-.02-.063-.043c0-.023-.038-.042-.085-.042-.047 0-.085-.02-.085-.043 0-.023-.027-.042-.06-.042a.205.205 0 01-.117-.053 1.256 1.256 0 00-.215-.135c-.087-.045-.158-.097-.158-.117 0-.02-.038-.036-.084-.036-.047 0-.085-.017-.085-.038 0-.02-.048-.05-.106-.065-.058-.014-.106-.045-.106-.068 0-.023-.047-.042-.106-.042-.058 0-.105-.02-.105-.043 0-.023-.021-.042-.046-.042-.025 0-.072-.024-.104-.053-.146-.132-.189-.16-.245-.16a.166.166 0 01-.109-.06.593.593 0 00-.185-.115.899.899 0 01-.188-.1 9.54 9.54 0 00-.115-.098.267.267 0 00-.149-.053c-.048 0-.087-.02-.087-.043 0-.023-.028-.042-.063-.042s-.064-.02-.064-.042c0-.023-.047-.054-.105-.069-.059-.014-.106-.043-.106-.064 0-.021-.036-.038-.08-.038-.044 0-.092-.029-.105-.064-.013-.035-.063-.064-.11-.064-.048 0-.086-.02-.086-.043 0-.023-.029-.042-.064-.042s-.063-.019-.063-.042c0-.023-.048-.054-.106-.069-.058-.014-.106-.043-.106-.064 0-.021-.038-.038-.084-.038-.047 0-.085-.017-.085-.038 0-.021-.043-.05-.096-.062a.525.525 0 01-.189-.111c-.051-.048-.122-.087-.159-.087a.105.105 0 01-.091-.064c-.013-.035-.06-.064-.104-.064s-.081-.014-.081-.032c0-.018-.077-.069-.169-.113-.093-.045-.169-.098-.169-.117 0-.02-.048-.036-.106-.036-.058 0-.106-.015-.106-.033 0-.018-.071-.07-.158-.117a1.303 1.303 0 01-.18-.106c-.058-.062-.259-.17-.316-.17-.036 0-.065-.015-.065-.033 0-.032-.126-.11-.265-.162-.041-.016-.074-.045-.074-.066 0-.02-.038-.037-.084-.037-.047 0-.085-.02-.085-.042 0-.023-.048-.054-.106-.069-.058-.014-.106-.039-.106-.054-.001-.015-.077-.064-.169-.108-.093-.045-.169-.098-.169-.118 0-.02-.038-.035-.085-.035-.047 0-.085-.017-.085-.038 0-.021-.047-.05-.105-.065-.059-.015-.106-.046-.106-.069 0-.023-.029-.041-.064-.041s-.063-.02-.063-.043c0-.023-.048-.042-.106-.042-.058 0-.106-.018-.106-.04 0-.022-.043-.053-.095-.07a.328.328 0 01-.116-.056c-.043-.054-.381-.26-.426-.26-.025 0-.073-.024-.105-.054-.151-.136-.191-.16-.272-.16-.047 0-.086-.019-.086-.042 0-.023-.029-.043-.064-.043s-.063-.018-.063-.041c0-.023-.048-.054-.106-.069-.058-.015-.106-.042-.106-.06 0-.018-.047-.045-.106-.06-.058-.015-.105-.043-.105-.063 0-.02-.062-.062-.138-.094a.734.734 0 01-.193-.111.202.202 0 00-.117-.055c-.033 0-.06-.02-.06-.043 0-.023-.038-.042-.085-.042-.046 0-.085-.015-.085-.033 0-.033-.125-.11-.264-.162-.041-.016-.074-.045-.074-.066 0-.02-.039-.038-.086-.038-.047 0-.097-.028-.11-.064a.106.106 0 00-.09-.063.522.522 0 01-.205-.107.574.574 0 00-.183-.106c-.025 0-.046-.02-.046-.043 0-.023-.047-.043-.105-.043-.059 0-.106-.014-.106-.033 0-.018-.072-.07-.159-.116a1.439 1.439 0 01-.18-.107c-.048-.052-.254-.17-.296-.17-.025 0-.088-.039-.139-.086a.515.515 0 00-.188-.111c-.053-.014-.096-.042-.096-.063 0-.02-.038-.038-.085-.038-.047 0-.085-.018-.085-.041 0-.023-.047-.054-.105-.069-.059-.015-.106-.044-.106-.065 0-.02-.029-.038-.064-.038s-.063-.018-.063-.041c0-.023-.048-.054-.106-.069-.058-.015-.106-.044-.106-.065 0-.02-.038-.038-.084-.038-.047 0-.085-.017-.085-.038 0-.02-.048-.05-.106-.064-.058-.015-.106-.046-.106-.069 0-.023-.028-.042-.063-.042s-.064-.019-.064-.042c0-.024-.029-.043-.065-.043-.057 0-.256-.107-.316-.17a1.304 1.304 0 00-.179-.103c-.088-.044-.159-.097-.159-.117 0-.02-.04-.036-.088-.036a.256.256 0 01-.147-.053c-.146-.132-.189-.16-.25-.16-.036 0-.065-.019-.065-.042 0-.024-.038-.043-.085-.043-.047 0-.085-.018-.085-.04 0-.021-.042-.053-.095-.07a.332.332 0 01-.116-.055.864.864 0 00-.265-.16c-.041-.014-.074-.043-.074-.063 0-.02-.038-.038-.084-.038-.047 0-.085-.019-.085-.042 0-.023-.048-.053-.106-.068-.058-.015-.106-.044-.106-.065 0-.02-.038-.038-.084-.038-.047 0-.085-.014-.085-.032 0-.033-.125-.11-.265-.163-.04-.015-.074-.045-.074-.065 0-.021-.027-.038-.06-.038a.202.202 0 01-.117-.055 1.185 1.185 0 00-.218-.138l-.244-.126c-.044-.023-.08-.057-.08-.074 0-.018-.048-.033-.106-.033-.058 0-.106-.02-.106-.043 0-.024-.071-.077-.158-.117a1.392 1.392 0 01-.211-.117l-.114-.096a.223.223 0 00-.11-.053.696.696 0 01-.202-.106.65.65 0 00-.209-.107c-.03 0-.054-.019-.054-.042 0-.024-.038-.043-.084-.043-.047 0-.085-.019-.085-.042 0-.023-.048-.054-.106-.068-.058-.015-.106-.044-.106-.065 0-.02-.028-.038-.063-.038s-.064-.017-.064-.038c0-.02-.047-.05-.105-.065-.059-.014-.106-.045-.106-.068 0-.023-.038-.042-.085-.042-.046 0-.085-.015-.085-.032 0-.033-.125-.11-.264-.163-.041-.015-.074-.045-.074-.065 0-.021-.039-.038-.086-.038-.047 0-.097-.029-.11-.064-.014-.035-.061-.064-.105-.064s-.08-.019-.08-.042c0-.024-.029-.043-.064-.043-.034 0-.063-.017-.063-.038 0-.02-.048-.05-.106-.065-.058-.014-.106-.045-.106-.068 0-.023-.039-.042-.086-.042-.081 0-.121-.024-.272-.16-.032-.029-.079-.053-.104-.053-.025 0-.046-.02-.046-.043 0-.023-.035-.042-.079-.042a.195.195 0 01-.132-.064.197.197 0 00-.132-.064c-.044 0-.08-.02-.08-.043a.044.044 0 00-.045-.042.575.575 0 01-.184-.107.507.507 0 00-.209-.106c-.038 0-.07-.019-.07-.042 0-.023-.047-.054-.105-.068-.059-.015-.106-.044-.106-.065 0-.021-.029-.038-.064-.038s-.063-.02-.063-.043c0-.023-.036-.042-.08-.042-.044 0-.091-.029-.105-.064-.013-.035-.063-.064-.11-.064s-.086-.017-.086-.038c0-.02-.048-.05-.106-.065-.058-.014-.106-.045-.106-.068 0-.023-.028-.042-.063-.042s-.064-.02-.064-.043c0-.023-.038-.042-.084-.042-.047 0-.085-.019-.085-.042 0-.023-.048-.054-.106-.068-.058-.015-.106-.044-.106-.065 0-.021-.037-.038-.082-.038-.045 0-.134-.048-.197-.107-.062-.058-.14-.106-.171-.106-.032 0-.057-.02-.057-.043 0-.023-.028-.042-.062-.042a.632.632 0 01-.218-.107c-.165-.113-.197-.123-.242-.078zm24.519 19.014c.151.024.418.06.592.082.523.065 1.097.196 1.169.268.017.017.084.03.15.03.066 0 .12.019.12.041 0 .023.067.053.148.069.082.015.148.045.148.066 0 .02.048.038.106.038.058 0 .106.019.106.042 0 .023.046.043.103.043a.27.27 0 01.166.064.247.247 0 00.151.064c.048 0 .088.017.088.038 0 .02.047.05.106.064.058.015.105.046.105.069 0 .023.029.041.064.041s.063.02.063.043c0 .024.029.043.064.043.059 0 .233.143.233.191 0 .012-.043.022-.096.023a.353.353 0 00-.177.064.32.32 0 01-.159.062c-.042 0-.076.02-.076.043 0 .023-.029.043-.064.043s-.063.019-.063.042c0 .024-.027.043-.06.043-.055 0-.956.863-.956.917 0 .03-.071.117-.264.321a1.077 1.077 0 00-.159.19.592.592 0 01-.106.139c-.058.063-.106.138-.106.168s-.02.054-.045.054c-.049 0-.166.104-.166.148a.452.452 0 01-.096.129c-.135.145-.201.227-.201.25 0 .011-.066.091-.148.178-.081.087-.148.175-.148.195 0 .02-.028.037-.063.037-.036 0-.064.038-.064.085 0 .047-.019.085-.042.085-.023 0-.043.029-.043.064a.063.063 0 01-.063.064c-.035 0-.063.02-.063.045 0 .024-.043.088-.096.142-.162.168-.328.365-.328.391 0 .014-.085.11-.19.212a1.444 1.444 0 00-.191.208c0 .024-.243.301-.476.542-.087.09-.158.183-.158.206 0 .024-.02.043-.045.043-.024 0-.138.091-.252.202-.248.242-.326.309-.361.309a.786.786 0 00-.165.15c-.077.081-.168.148-.203.148s-.098.047-.141.104a.379.379 0 01-.175.129c-.053.013-.097.043-.097.066 0 .023-.029.042-.064.042s-.063.02-.063.043c0 .023-.048.042-.106.042-.058 0-.106.015-.106.032-.001.043-.245.181-.321.181-.033 0-.06.02-.06.043 0 .023-.055.042-.122.042s-.145.029-.174.064a.22.22 0 01-.151.064c-.054 0-.11.02-.124.043-.015.023-.078.043-.14.044a.54.54 0 00-.22.062.643.643 0 01-.265.063c-.087 0-.158.018-.158.04 0 .021-.1.049-.222.062-.123.013-.375.042-.561.065-.447.054-1.916.054-2.476-.002a32.83 32.83 0 00-.751-.064c-.169-.012-.307-.04-.307-.06 0-.022-.029-.04-.064-.04-.044 0-.063-.045-.063-.15 0-.141.019-.181.159-.338.029-.033.052-.08.052-.105 0-.025.017-.046.038-.046.021 0 .05-.048.064-.106.015-.059.046-.107.069-.107.022 0 .041-.02.041-.044 0-.042.033-.09.159-.231.029-.033.053-.08.053-.105 0-.025.014-.046.032-.046.018 0 .069-.067.113-.149.044-.082.096-.149.115-.149.02 0 .036-.02.036-.044 0-.042.033-.09.159-.231.029-.033.053-.07.053-.084 0-.013.071-.1.158-.192.194-.204.265-.29.265-.32 0-.032 1.05-1.088 1.08-1.088.023 0 .084-.047.209-.16.033-.03.079-.053.104-.053.025 0 .046-.029.046-.064s.02-.064.044-.064c.041 0 .089-.033.229-.16.033-.029.08-.053.105-.053.025 0 .045-.02.045-.043 0-.023.02-.042.044-.042.042 0 .089-.034.23-.16.032-.03.071-.053.086-.053s.054-.024.086-.053c.151-.136.191-.16.272-.16.047 0 .086-.02.086-.043 0-.023.029-.042.064-.042s.063-.015.063-.032c.001-.043.245-.181.321-.181.033 0 .06-.02.06-.042 0-.023.048-.054.106-.069.058-.014.106-.043.106-.064 0-.021.027-.038.06-.038s.066-.015.074-.032c.02-.047.285-.181.356-.181.033 0 .06-.02.06-.043 0-.023.034-.042.076-.042a.32.32 0 00.159-.063.326.326 0 01.156-.064c.041 0 .074-.02.074-.044 0-.023.048-.042.106-.042.058 0 .106-.018.106-.04 0-.021.057-.051.127-.067.07-.015.127-.046.127-.067 0-.022.046-.04.103-.04.057 0 .114-.017.128-.039.013-.021.081-.052.15-.067.07-.015.127-.045.127-.067 0-.022.066-.04.148-.04.081 0 .148-.016.148-.037 0-.021.067-.05.148-.066.082-.015.148-.046.148-.069 0-.022.067-.04.148-.04.082 0 .149-.02.149-.043 0-.023.054-.043.121-.043s.146-.028.175-.063c.029-.035.117-.064.195-.064.079 0 .143-.02.143-.043 0-.023.062-.043.138-.044.076 0 .174-.03.22-.064a.478.478 0 01.243-.062c.089 0 .161-.02.161-.043 0-.023.075-.042.167-.042.092 0 .177-.017.19-.038.012-.02.08-.048.15-.062.071-.014.128-.046.128-.07 0-.028-.229-.043-.635-.043-.349 0-.635.017-.635.037 0 .02-.181.051-.402.068-.221.017-.412.048-.425.069-.013.021-.156.039-.318.039-.167 0-.294.018-.294.042 0 .024-.091.043-.203.043-.114 0-.24.027-.286.062a.526.526 0 01-.259.064c-.098.001-.189.02-.204.044-.014.024-.09.043-.169.043-.078 0-.171.029-.206.064-.038.038-.141.064-.257.064-.106 0-.193.019-.193.042 0 .023-.031.043-.069.043-.094 0-.499.142-.517.18-.007.018-.069.033-.137.033s-.124.019-.124.042c0 .024-.034.043-.076.043a.32.32 0 00-.159.062.353.353 0 01-.177.064c-.053.001-.095.02-.095.043 0 .023-.048.054-.106.069-.058.015-.106.044-.106.065 0 .02-.038.038-.085.038-.046 0-.084.019-.084.042 0 .024-.046.043-.102.043-.055 0-.112.029-.125.064-.014.035-.063.064-.111.064-.047 0-.086.019-.086.042a.043.043 0 01-.044.043c-.041 0-.089.033-.229.16-.033.029-.08.053-.105.053-.024 0-.045.019-.045.042 0 .024-.026.043-.057.043-.031 0-.097.035-.145.077-.049.043-.14.114-.202.16a2.303 2.303 0 00-.169.136c-.031.029-.067.053-.081.053-.035 0-1.208 1.18-1.208 1.214 0 .044-.117.149-.166.149-.025 0-.046.024-.046.054s-.047.105-.105.168a.538.538 0 00-.106.14.506.506 0 01-.106.132.44.44 0 00-.106.139c0 .018-.033.07-.074.117-.099.114-.222.35-.222.425 0 .033-.019.06-.042.06-.024 0-.043.023-.043.05 0 .028-.04.133-.088.234-.076.16-.099.178-.169.14-.059-.032-.081-.09-.081-.212 0-.093-.019-.17-.043-.17-.026 0-.042-.312-.042-.851 0-.54.016-.852.042-.852.024 0 .043-.072.044-.16a.664.664 0 01.062-.266.52.52 0 00.062-.202c.001-.053.021-.096.044-.096.023 0 .042-.048.042-.107 0-.058.019-.106.042-.106.023 0 .053-.048.068-.107.014-.058.043-.106.064-.106.021 0 .038-.038.038-.085 0-.047.019-.085.041-.085.023 0 .054-.048.068-.107.015-.058.044-.106.065-.106.02 0 .037-.02.037-.045 0-.024.048-.096.106-.16a.471.471 0 00.106-.15c0-.049.928-.966.978-.966.022 0 .094-.053.159-.117.135-.135.249-.215.355-.251.041-.014.074-.042.074-.063 0-.02.038-.037.085-.037.046 0 .084-.02.084-.043 0-.023.029-.043.064-.043s.063-.018.063-.041c0-.023.048-.054.106-.069.058-.015.106-.044.106-.065 0-.02.027-.038.06-.038.071 0 .336-.134.356-.18.008-.018.058-.032.111-.032a.218.218 0 00.15-.064.224.224 0 01.153-.064c.056 0 .101-.02.101-.043 0-.023.067-.043.148-.043.082 0 .148-.014.148-.032 0-.037.318-.131.561-.166.087-.013.159-.038.159-.056 0-.017.107-.043.239-.056.131-.014.258-.046.283-.07.025-.025.164-.045.309-.045s.274-.017.287-.037c.012-.02.218-.05.457-.065.239-.015.549-.044.689-.063.37-.052 2.112-.054 2.434-.003zm-13.374.42c0 .022.042.054.095.07.109.035.624.56.624.637 0 .028.048.087.106.13.058.045.106.116.106.158 0 .042.047.128.105.191.059.064.106.14.106.17 0 .029.017.053.038.053.021 0 .05.048.064.106.015.059.046.107.068.107.023 0 .042.029.042.064s.019.064.042.064c.023 0 .043.035.043.08 0 .043.028.103.063.133.035.029.064.079.064.111s.019.059.042.059c.023 0 .042.048.042.106 0 .059.017.107.038.107.021 0 .05.048.064.106.015.059.045.107.068.107.023 0 .042.022.042.05 0 .079.14.376.177.376.019 0 .034.036.034.081 0 .045.015.088.032.096.053.024.18.292.18.38 0 .045.019.082.042.082.024 0 .043.033.044.074a.331.331 0 00.063.157.317.317 0 01.063.16c0 .043.019.077.042.077.023 0 .042.039.042.086 0 .086.01.112.141.375a.668.668 0 01.071.224c0 .045.019.082.042.082.023 0 .043.046.043.103a.27.27 0 00.063.168c.035.035.063.132.063.216 0 .083.02.152.043.152.023 0 .042.055.042.122a.88.88 0 00.064.276.873.873 0 01.063.273c0 .067.018.14.039.162.085.088.169 2.17.09 2.249-.024.024-.044.118-.044.209 0 .168-.092.313-.169.266-.024-.015-.043-.055-.043-.088 0-.034-.019-.062-.042-.062-.023 0-.043-.065-.043-.144a.68.68 0 00-.063-.266.663.663 0 01-.063-.258c0-.075-.02-.148-.043-.162-.023-.015-.042-.09-.042-.168a.695.695 0 00-.063-.264.67.67 0 01-.064-.26c0-.077-.019-.139-.042-.139-.024 0-.043-.076-.043-.17 0-.094-.017-.17-.037-.17-.021 0-.051-.087-.066-.192-.016-.106-.047-.192-.069-.192-.022 0-.039-.067-.039-.15 0-.081-.019-.148-.043-.148-.023 0-.043-.043-.043-.096a.364.364 0 00-.064-.178.356.356 0 01-.062-.181c0-.055-.019-.099-.042-.099-.024 0-.043-.046-.043-.103a.27.27 0 00-.063-.168.25.25 0 01-.064-.152c0-.048-.019-.088-.042-.088-.023 0-.042-.048-.042-.107 0-.058-.019-.106-.042-.106-.023 0-.053-.048-.068-.106-.014-.059-.043-.107-.064-.107-.021 0-.038-.048-.038-.106 0-.059-.019-.107-.042-.107-.023 0-.042-.036-.042-.08a.199.199 0 00-.064-.133.197.197 0 01-.063-.133c0-.044-.02-.08-.043-.08-.023 0-.042-.038-.042-.085 0-.047-.018-.085-.04-.085-.021 0-.052-.043-.069-.096a.323.323 0 00-.056-.117 1.068 1.068 0 01-.106-.181c-.045-.088-.097-.16-.117-.16-.019 0-.035-.038-.035-.085 0-.047-.017-.085-.038-.085-.021 0-.05-.048-.064-.107-.015-.058-.046-.106-.068-.106-.023 0-.042-.029-.042-.064s-.019-.064-.042-.064c-.024 0-.043-.024-.043-.054s-.047-.105-.105-.168c-.059-.063-.106-.134-.106-.158 0-.023-.048-.09-.106-.149-.058-.058-.106-.124-.106-.147 0-.077-.52-.645-.591-.645a.044.044 0 01-.044-.043c0-.024-.116-.158-.258-.298l-.259-.255.004-.258c.003-.24.014-.268.167-.42a.954.954 0 01.255-.193c.05-.016.091-.047.091-.069 0-.022.096-.04.212-.04.116 0 .212.018.212.04zm10.982 10.68c-.163.01-.314.037-.336.059-.022.022-.167.04-.321.04-.155 0-.295.015-.312.032-.031.03-.416.116-.755.166-.088.014-.159.04-.159.058 0 .019-.081.043-.18.053-.17.019-.387.084-.55.166a.463.463 0 01-.169.038.353.353 0 00-.178.064.348.348 0 01-.18.062c-.053 0-.097.02-.097.043 0 .023-.067.042-.148.042-.082 0-.149.017-.149.038 0 .02-.076.05-.169.064-.093.015-.169.046-.169.07 0 .023-.067.041-.148.041-.082 0-.148.02-.148.043 0 .023-.063.043-.141.043a.43.43 0 00-.222.062.427.427 0 01-.217.064c-.074 0-.147.02-.161.044-.014.023-.089.043-.167.043a1.18 1.18 0 00-.32.064 1.895 1.895 0 01-.513.063c-.211 0-.333.017-.333.047s-.088.038-.265.022l-.688-.059c-.232-.019-.464-.058-.515-.086a.744.744 0 00-.286-.051c-.106 0-.193-.02-.193-.043 0-.023-.087-.043-.194-.043-.115 0-.219-.025-.257-.063-.034-.036-.138-.064-.229-.064-.092 0-.167-.02-.167-.043 0-.023-.084-.043-.188-.043-.103 0-.199-.018-.212-.04-.014-.022-.11-.053-.215-.069-.104-.015-.2-.045-.213-.066-.013-.02-.108-.038-.211-.038s-.188-.019-.188-.042c0-.024-.058-.043-.128-.043a.884.884 0 01-.281-.064 1.03 1.03 0 00-.334-.063c-.101 0-.195-.02-.209-.043-.015-.024-.116-.043-.227-.043-.11 0-.31-.028-.444-.064-.194-.05-.544-.063-1.72-.063-1.177 0-1.527.013-1.721.064a2.08 2.08 0 01-.426.063c-.1 0-.181.02-.181.043 0 .023-.087.043-.194.043-.115 0-.219.025-.257.063a.266.266 0 01-.166.064c-.056 0-.103.02-.103.043 0 .023-.046.042-.103.042-.057 0-.115.02-.129.043-.015.024-.064.043-.109.043s-.082.019-.082.042c0 .023-.048.053-.106.068-.058.015-.106.044-.106.065 0 .02-.038.038-.086.038-.047 0-.096.028-.11.064-.013.035-.051.064-.083.064-.033 0-.059.019-.059.042 0 .023-.038.043-.085.043-.047 0-.084.028-.084.064 0 .035-.02.063-.045.063-.024 0-.09.044-.146.096-.149.14-.226.203-.252.203-.03 0-.996.974-.996 1.005 0 .012-.024.05-.053.082-.126.141-.159.19-.159.231 0 .025-.02.045-.045.045-.05 0-.167.105-.167.149 0 .015-.023.054-.053.086-.125.141-.158.19-.158.231a.044.044 0 01-.043.045c-.023 0-.042.033-.043.074 0 .041-.048.12-.105.175-.058.055-.105.135-.105.177 0 .041-.029.087-.064.1-.035.014-.063.064-.063.111 0 .048-.02.087-.043.087-.023 0-.042.02-.042.045 0 .026-.024.073-.053.105-.137.154-.159.194-.159.295 0 .06-.019.108-.042.108-.023 0-.042.036-.042.08a.198.198 0 01-.064.133.22.22 0 00-.063.151c0 .054-.015.104-.032.112-.052.023-.18.292-.18.377 0 .044-.019.091-.042.106-.024.014-.043.068-.044.12a.359.359 0 01-.063.176.348.348 0 00-.063.18c0 .055-.017.099-.037.099-.021 0-.047.072-.058.16a2.767 2.767 0 01-.094.394c-.04.128-.082.315-.094.415-.012.1-.038.181-.059.181-.021 0-.038.074-.038.165 0 .09-.029.247-.064.346-.035.1-.063.273-.063.386 0 .113-.017.215-.036.228-.02.012-.049.196-.064.41-.015.212-.046.422-.069.466-.024.044-.043.312-.043.594 0 .315-.017.514-.042.514-.028 0-.043.597-.043 1.704 0 1.108.015 1.704.043 1.704.025 0 .042.2.042.514 0 .282.019.55.043.595.024.045.056.264.07.487.015.223.043.406.063.406.019 0 .036.1.036.223s.029.318.064.433c.034.115.063.292.063.394 0 .102.019.185.042.185.023 0 .042.085.042.188 0 .104.012.219.026.256.028.073.186.094.186.025 0-.024.026-.043.058-.043s.082-.029.111-.064a.197.197 0 01.132-.064c.044 0 .08-.019.08-.042 0-.024.028-.043.063-.043s.064-.017.064-.038c0-.02.047-.05.105-.065.059-.014.106-.045.106-.068 0-.023.038-.042.085-.042.046 0 .085-.014.085-.032 0-.017.077-.069.169-.113.093-.045.169-.096.169-.113s.048-.043.106-.058c.058-.014.106-.045.106-.068 0-.023.038-.042.084-.042.047 0 .085-.02.085-.043 0-.023.019-.042.043-.042a.802.802 0 00.211-.107.706.706 0 01.232-.106c.035 0 .064-.016.064-.036 0-.02.076-.072.169-.117.093-.045.169-.096.169-.113.001-.018.027-.032.059-.032s.082-.029.111-.064a.197.197 0 01.132-.064c.044 0 .08-.02.08-.043 0-.023.028-.042.063-.042s.064-.019.064-.042c0-.023.047-.054.106-.069.058-.014.105-.043.105-.064 0-.021.038-.038.085-.038.047 0 .085-.017.085-.038 0-.021.047-.05.105-.065.059-.015.106-.045.106-.068 0-.023.029-.042.064-.042s.063-.017.063-.038c0-.021.048-.05.106-.065.058-.015.106-.045.106-.068 0-.023.038-.042.084-.042.047 0 .085-.017.085-.038 0-.021.048-.05.106-.065.058-.014.106-.045.106-.068 0-.023.028-.042.063-.042s.064-.02.064-.043c0-.023.047-.042.105-.042.059 0 .106-.02.106-.042 0-.023.048-.054.106-.069.058-.014.106-.04.106-.055s.067-.064.148-.108c.082-.044.148-.097.148-.116 0-.02.048-.036.106-.036.058 0 .106-.016.106-.036 0-.02.076-.072.169-.117.092-.045.169-.096.169-.114 0-.017.038-.031.085-.031.047 0 .085-.02.085-.042 0-.023.047-.054.105-.069.059-.014.106-.041.106-.06 0-.018.048-.045.106-.06.058-.015.106-.045.106-.068 0-.023.028-.042.063-.042s.064-.02.064-.043c0-.023.038-.042.084-.042.047 0 .085-.02.085-.042 0-.023.048-.054.106-.069.058-.014.106-.043.106-.064 0-.021.039-.038.086-.038.048 0 .138-.048.201-.107.063-.058.138-.106.167-.106.03 0 .054-.017.054-.038 0-.021.047-.05.105-.065.059-.015.106-.045.106-.069 0-.023.048-.041.106-.041.058 0 .106-.016.106-.036 0-.02.067-.072.148-.116.081-.044.148-.095.148-.113 0-.019.048-.033.106-.033.058 0 .106-.016.106-.036 0-.02.071-.073.158-.117a1.27 1.27 0 00.18-.104c.059-.062.259-.17.316-.17.036 0 .065-.018.065-.042 0-.023.029-.043.064-.043s.063-.018.063-.041c0-.023.048-.054.106-.069.058-.014.106-.044.106-.064 0-.021.038-.038.084-.038.047 0 .085-.018.085-.038 0-.021.048-.05.106-.065.058-.015.106-.046.106-.069 0-.023.028-.042.063-.042s.064-.017.064-.038c0-.02.047-.05.105-.064.059-.015.106-.046.106-.069 0-.023.038-.041.085-.041.047 0 .085-.015.085-.033 0-.032.125-.11.264-.162.041-.016.074-.045.074-.066 0-.02.029-.038.065-.038.057 0 .258-.108.316-.17a1.44 1.44 0 01.18-.106c.087-.046.159-.099.159-.117 0-.018.039-.032.087-.032a.25.25 0 00.147-.054c.147-.132.19-.16.251-.16.035 0 .065-.019.065-.042 0-.023.038-.043.085-.043.046 0 .084-.018.084-.04 0-.021.043-.053.095-.069a.339.339 0 00.117-.056.87.87 0 01.264-.16c.041-.014.074-.042.074-.063 0-.02.038-.038.085-.038.047 0 .085-.018.085-.041 0-.023.047-.054.105-.069.059-.015.106-.044.106-.065 0-.02.029-.038.064-.038s.063-.019.063-.042c0-.024.036-.043.08-.043a.197.197 0 00.132-.064c.029-.035.079-.064.111-.064s.058-.017.058-.038c0-.02.048-.05.106-.064.058-.015.106-.046.106-.069 0-.023.028-.042.063-.042s.064-.019.064-.042c0-.024.027-.043.06-.043.075 0 .32-.138.32-.18 0-.018.048-.033.106-.033.059 0 .106-.016.106-.036 0-.02.071-.072.158-.117.087-.044.18-.1.206-.125a1.78 1.78 0 01.253-.15 1.62 1.62 0 00.263-.157.21.21 0 01.118-.054c.033 0 .06-.019.06-.042 0-.024.038-.043.085-.043.047 0 .085-.016.085-.036 0-.02.071-.072.158-.117a.998.998 0 00.18-.107.34.34 0 01.117-.056c.052-.017.095-.048.095-.07 0-.022.038-.04.084-.04.047 0 .085-.019.085-.042 0-.024.029-.043.064-.043.034 0 .063-.019.063-.042 0-.023.048-.053.106-.068.058-.015.106-.044.106-.065 0-.02.039-.038.087-.038a.25.25 0 00.147-.053c.14-.127.188-.16.229-.16.025 0 .045-.017.045-.038 0-.02.047-.05.105-.065.059-.014.106-.045.106-.068 0-.023.04-.042.088-.042a.25.25 0 00.146-.053c.141-.127.188-.16.23-.16a.043.043 0 00.044-.042c0-.024.046-.043.101-.043.056 0 .113-.029.126-.064.013-.035.063-.064.11-.064.048 0 .086-.019.086-.042 0-.024.021-.043.046-.043.025 0 .072-.024.104-.053.151-.136.191-.16.272-.16.047 0 .086-.019.086-.042 0-.023.048-.053.106-.068.058-.015.106-.044.106-.065 0-.02.028-.038.063-.038s.064-.02.064-.043c0-.023.038-.042.084-.042.047 0 .085-.019.085-.042 0-.023.048-.054.106-.068.058-.015.106-.042.106-.06 0-.019.047-.046.105-.06.059-.015.106-.046.106-.07 0-.022.029-.04.064-.04s.063-.02.063-.043c0-.024.038-.043.085-.043.046 0 .084-.019.084-.042 0-.023.048-.054.106-.068.058-.015.106-.044.106-.065 0-.02.029-.038.064-.038.034 0 .063-.02.063-.043 0-.023.039-.042.086-.042.047 0 .097-.029.11-.064.014-.035.061-.064.105-.064s.08-.017.08-.038c0-.02.043-.049.096-.062a.525.525 0 00.189-.111c.051-.048.111-.087.133-.087.061 0 .301-.144.301-.181 0-.018.048-.032.106-.032.058 0 .106-.02.106-.043 0-.023.029-.042.064-.042.034 0 .063-.02.063-.042 0-.023.048-.054.106-.069.058-.014.106-.04.106-.055 0-.016.109-.086.243-.155.134-.07.259-.15.277-.18.019-.029.071-.053.117-.053.045 0 .082-.02.082-.043 0-.023.038-.042.085-.042.046 0 .084-.017.084-.038 0-.02.034-.049.075-.063a.868.868 0 00.264-.16.343.343 0 01.116-.056c.053-.016.096-.048.096-.07 0-.021.038-.04.084-.04.047 0 .085-.014.085-.032 0-.032.125-.11.264-.162.041-.015.075-.045.075-.066 0-.02.047-.037.105-.037.066 0 .106-.025.106-.064 0-.035.029-.064.064-.064a.61.61 0 00.275-.129c.05-.053.255-.17.297-.17a.196.196 0 00.106-.053c.147-.132.19-.16.251-.16.036 0 .065-.018.065-.042 0-.023.036-.042.08-.042.044 0 .091-.03.105-.064.013-.035.063-.064.11-.064s.086-.02.086-.043c0-.023.029-.042.064-.042s.063-.02.063-.042c0-.023.048-.054.106-.069.058-.014.106-.044.106-.064 0-.021.038-.038.084-.038.047 0 .085-.02.085-.042 0-.023.048-.054.106-.069.058-.014.106-.043.106-.064 0-.021.028-.038.063-.038s.064-.02.064-.043c0-.023.038-.043.086-.043.047 0 .096-.028.11-.063.013-.035.049-.064.08-.064.072 0 .315-.14.316-.181 0-.018.029-.032.064-.032.034 0 .063-.02.063-.043 0-.023.039-.042.088-.042a.25.25 0 00.146-.054c.134-.12.179-.15.268-.179.095-.03.302-.203.302-.252 0-.014-.039-.027-.086-.027-.047 0-.097-.028-.11-.063-.014-.036-.061-.064-.105-.064s-.08-.017-.08-.038c0-.021-.047-.05-.106-.065-.058-.015-.105-.046-.105-.069 0-.023-.048-.041-.106-.041-.058 0-.106-.02-.106-.043 0-.023-.048-.043-.106-.043-.058 0-.106-.018-.106-.041 0-.023-.047-.054-.105-.069-.059-.015-.106-.044-.106-.065 0-.02-.057-.038-.127-.038s-.127-.016-.127-.037c0-.02-.043-.048-.095-.06a2.695 2.695 0 01-.244-.075l-.232-.083a17.151 17.151 0 01-.233-.085 1.69 1.69 0 00-.307-.074c-.087-.011-.159-.037-.159-.058 0-.021-.093-.039-.208-.039-.114 0-.214-.018-.222-.04-.017-.046-.485-.13-.903-.159-.163-.012-.318-.04-.345-.062-.052-.043-1.738-.082-2.237-.05zm-87.037.233c-.128.02-.342.049-.476.063-.133.015-.243.044-.243.064 0 .02-.059.038-.13.038-.072 0-.159.028-.194.064a.268.268 0 01-.166.063c-.056 0-.103.02-.103.043 0 .023-.028.043-.063.043s-.064.018-.064.041c0 .023-.047.054-.105.069-.058.015-.106.04-.106.055 0 .016-.061.066-.136.11-.158.094-.372.305-.372.367 0 .023-.033.079-.074.123-.068.074-.114.157-.261.472-.062.132-.138.555-.142.786-.003.215.088.71.14.764.023.023.04.085.04.139 0 .054.019.098.04.098.022 0 .052.04.068.089.035.113.56.635.638.635.032 0 .059.017.059.038 0 .02.048.05.106.064.058.015.105.046.105.069 0 .023.048.042.106.042.058 0 .106.019.106.042 0 .024.043.044.095.044a.36.36 0 01.178.064.345.345 0 00.177.063c.052 0 .106.017.119.038.012.02.085.048.16.06.19.03.504.117.593.162a.6.6 0 00.22.038c.08 0 .157.017.17.038.013.022.119.052.235.068.116.016.212.047.212.068 0 .021.076.039.169.039.093 0 .17.02.17.042 0 .024.043.043.097.043.054 0 .135.028.18.063a.326.326 0 00.156.064c.04 0 .074.02.074.044 0 .023.035.042.079.042.043 0 .114.048.158.107.044.058.095.106.115.106.05 0 .156.113.156.167 0 .026.019.046.041.046.023 0 .054.048.068.107.015.058.044.106.065.106.02 0 .037.144.037.32 0 .175-.016.319-.037.319-.02 0-.047.053-.06.117a.52.52 0 01-.111.211c-.048.052-.088.114-.088.139 0 .024-.027.044-.06.044s-.066.016-.074.036c-.022.056-.41.262-.494.262a.188.188 0 00-.116.042c-.177.178-1.975.177-2.153-.001-.022-.023-.103-.04-.18-.04-.076 0-.14-.02-.14-.043 0-.024-.043-.043-.097-.043a.349.349 0 01-.18-.063.327.327 0 00-.156-.063c-.04-.001-.074-.021-.074-.044 0-.024-.048-.043-.106-.043-.058 0-.106-.019-.106-.042 0-.023-.047-.054-.106-.068-.058-.015-.105-.044-.105-.065 0-.02-.02-.038-.046-.038-.025 0-.072-.024-.104-.053-.15-.136-.191-.16-.272-.16-.047 0-.086.027-.086.06 0 .072-.134.338-.18.359-.018.008-.032.046-.033.085a.332.332 0 01-.064.154.324.324 0 00-.062.16c0 .095.247.33.35.33.04.002.073.021.073.045 0 .023.029.042.064.042s.063.02.063.042c0 .023.048.054.106.069.058.014.106.043.106.064 0 .021.04.038.088.038.048 0 .116.029.15.064.036.035.11.064.167.064.057 0 .103.02.103.043 0 .023.066.042.148.042.081 0 .148.018.148.039s.095.052.212.068c.116.016.211.046.211.068 0 .02.181.038.402.038.24 0 .402.017.402.043 0 .025.17.042.424.042s.423-.017.423-.042.148-.043.36-.043c.197 0 .36-.017.36-.038 0-.022.095-.052.211-.068.116-.016.212-.047.212-.068 0-.021.047-.039.105-.039.059 0 .106-.019.106-.042 0-.024.027-.043.06-.043a.63.63 0 00.2-.075c.134-.072.174-.1.308-.212a.245.245 0 01.086-.054c.031 0 .362-.334.362-.365 0-.013.024-.05.053-.084.135-.151.159-.192.159-.273 0-.048.019-.087.042-.087.023 0 .042-.039.042-.087a.43.43 0 01.066-.188c.13-.2.027-1.556-.119-1.556-.017 0-.031-.03-.031-.068a.225.225 0 00-.053-.126c-.115-.129-.159-.187-.159-.212 0-.034-.113-.148-.147-.148-.025 0-.083-.044-.211-.16-.033-.03-.078-.053-.1-.053-.022 0-.052-.029-.065-.064-.014-.035-.063-.064-.11-.064-.048 0-.087-.02-.087-.043 0-.023-.047-.042-.105-.042-.058 0-.106-.018-.106-.04 0-.023-.067-.054-.148-.07-.082-.015-.148-.044-.148-.065 0-.021-.048-.038-.107-.038a.485.485 0 01-.18-.037c-.144-.071-.51-.176-.616-.176-.06 0-.12-.02-.134-.043-.015-.023-.088-.042-.164-.042a.426.426 0 01-.22-.063.535.535 0 00-.262-.064c-.099 0-.18-.02-.18-.044 0-.023-.068-.042-.15-.042-.084 0-.18-.03-.215-.064a.268.268 0 00-.167-.064c-.056 0-.102-.02-.102-.043 0-.023-.048-.042-.106-.042-.058 0-.106-.018-.106-.04 0-.022-.041-.053-.092-.07-.098-.03-.144-.063-.327-.231-.234-.215-.3-.384-.3-.761 0-.19.016-.346.037-.346.02 0 .05-.048.064-.107.015-.059.046-.106.069-.106.022 0 .041-.021.041-.047 0-.146.62-.539.974-.616.21-.046 1.504-.04 1.756.009.116.022.253.064.304.092.05.028.132.05.18.05.048 0 .087.02.087.043 0 .024.043.043.096.044a.35.35 0 01.177.064.32.32 0 00.159.062c.042 0 .076.02.076.043 0 .023.029.043.064.043.034 0 .063.019.063.042 0 .024.067.043.148.043.129 0 .148-.014.148-.104 0-.056.029-.132.064-.167a.249.249 0 00.063-.152c0-.049.02-.088.043-.088.023 0 .042-.047.042-.104 0-.057.031-.135.069-.173.064-.064.062-.075-.02-.152a.312.312 0 00-.174-.083c-.048 0-.087-.017-.087-.038 0-.02-.047-.05-.105-.064-.059-.015-.106-.046-.106-.069 0-.023-.037-.041-.082-.041-.046 0-.093-.017-.106-.038-.012-.021-.09-.05-.171-.066-.082-.015-.15-.046-.15-.069 0-.022-.085-.04-.19-.04-.104 0-.19-.018-.19-.04 0-.02-.11-.048-.243-.06a6.271 6.271 0 01-.477-.064c-.278-.052-.862-.052-1.185 0zm42.006 0c-.117.021-.321.05-.455.064-.134.014-.243.043-.243.063 0 .02-.059.038-.13.038-.072 0-.159.028-.194.064a.269.269 0 01-.166.063c-.057 0-.103.02-.103.043 0 .023-.039.043-.086.043-.047 0-.097.028-.11.063-.014.036-.051.064-.084.064-.032 0-.059.02-.059.043 0 .023-.03.042-.066.042-.076 0-.188.1-.188.168 0 .025-.019.046-.043.046-.063 0-.263.215-.337.364a.986.986 0 01-.117.182.205.205 0 00-.053.117c0 .033-.019.06-.042.06-.023 0-.042.096-.042.214 0 .117-.019.212-.043.212-.025 0-.042.185-.042.47 0 .283.017.468.042.468.024 0 .043.076.043.17 0 .094.019.17.042.17.023 0 .042.036.042.08 0 .044.029.104.064.133.035.03.063.071.063.093 0 .065.547.589.615.589.034 0 .062.019.062.042 0 .024.027.043.059.043s.082.029.111.064a.224.224 0 00.153.064c.055 0 .101.019.101.042 0 .024.042.044.095.044a.36.36 0 01.177.064.348.348 0 00.18.063c.054 0 .098.019.098.042 0 .024.065.043.145.043.081 0 .157.018.171.04.013.022.11.053.214.069.105.016.201.045.213.066.013.021.108.038.212.038.103 0 .188.017.188.038 0 .022.095.052.211.068.117.016.212.047.212.068 0 .021.085.039.19.039s.191.02.191.042c0 .024.044.043.097.043.054 0 .135.028.18.063a.327.327 0 00.156.064c.041 0 .075.018.075.038 0 .021.033.05.074.063.177.06.476.332.476.434 0 .034.017.062.037.062.021 0 .05.072.066.16.069.407.074.48.028.48-.026 0-.047.066-.047.148 0 .082-.017.15-.037.15-.021 0-.05.047-.065.106-.014.058-.045.106-.068.106-.023 0-.041.029-.041.064a.064.064 0 01-.064.064c-.035 0-.063.02-.063.043 0 .023-.038.042-.085.042-.046 0-.084.019-.084.042 0 .023-.048.054-.106.069-.058.014-.106.043-.106.064 0 .021-.044.038-.097.038-.054 0-.117.02-.141.044-.102.102-1.352.212-1.516.133a1.452 1.452 0 00-.341-.069c-.139-.014-.271-.044-.294-.067-.022-.022-.094-.04-.16-.04-.118 0-.141-.009-.407-.143a.676.676 0 00-.243-.07c-.056 0-.102-.018-.102-.039 0-.02-.048-.05-.106-.065-.058-.014-.106-.045-.106-.068 0-.023-.028-.042-.063-.042s-.064-.019-.064-.042c0-.024-.029-.043-.065-.043-.036 0-.108-.044-.159-.099-.139-.147-.244-.175-.271-.072-.013.047-.039.086-.06.086-.021 0-.037.048-.037.106 0 .059-.016.107-.035.107-.034 0-.262.459-.262.527 0 .047.114.154.165.154.024 0 .091.048.149.107.058.058.143.106.188.106.045 0 .093.029.106.064.014.035.063.064.111.064.047 0 .085.02.085.043 0 .023.04.042.088.042.048 0 .116.029.151.064a.27.27 0 00.167.064c.056 0 .102.02.102.043 0 .023.056.042.125.042.068 0 .135.018.148.039.013.021.119.052.235.068.117.016.212.046.212.068 0 .02.171.038.381.038.225 0 .381.017.381.043 0 .026.176.042.444.042s.444-.017.444-.042.149-.043.36-.043c.198 0 .36-.015.36-.033 0-.03.244-.108.518-.165.064-.014.117-.04.117-.058 0-.018.047-.045.106-.06.058-.014.105-.045.105-.068 0-.023.039-.042.087-.042.047 0 .138-.048.2-.106a.47.47 0 01.15-.107c.042 0 .283-.236.283-.276 0-.016.024-.055.053-.087.125-.141.158-.19.158-.231 0-.025.02-.045.043-.045.023 0 .042-.03.042-.068 0-.037.026-.118.058-.18.032-.063.08-.182.106-.266.06-.19.064-1.104.005-1.104-.023 0-.042-.042-.042-.092 0-.112-.13-.42-.177-.42-.019 0-.035-.02-.035-.044 0-.071-.517-.579-.624-.612-.052-.017-.095-.048-.095-.07 0-.022-.029-.04-.063-.04-.035 0-.064-.02-.064-.043 0-.023-.048-.042-.106-.042-.058 0-.106-.017-.106-.038 0-.02-.066-.05-.148-.066-.081-.015-.148-.046-.148-.069 0-.022-.066-.04-.148-.04-.081 0-.148-.015-.148-.033 0-.037-.318-.13-.561-.166-.087-.013-.159-.038-.159-.055 0-.018-.098-.044-.219-.059-.12-.014-.238-.045-.262-.07-.024-.023-.116-.043-.204-.043-.089 0-.161-.02-.161-.043 0-.023-.086-.042-.19-.042-.105 0-.191-.019-.191-.041 0-.022-.067-.053-.148-.069-.082-.015-.148-.045-.148-.065 0-.021-.048-.038-.106-.038-.058 0-.106-.017-.106-.038 0-.02-.033-.049-.074-.063-.155-.052-.349-.208-.349-.28 0-.025-.029-.045-.064-.045s-.063-.038-.063-.085c0-.047-.019-.086-.042-.086-.024 0-.043-.049-.043-.109s-.021-.15-.047-.198c-.036-.067-.034-.15.005-.328.092-.42.277-.698.545-.817.073-.033.132-.074.132-.091 0-.018.035-.033.077-.033a.316.316 0 00.158-.062.439.439 0 01.22-.064c.076 0 .138-.02.138-.044 0-.027.267-.043.717-.043.432 0 .727.017.743.043.014.023.107.043.206.043.099 0 .217.028.262.062a.388.388 0 00.198.064c.064 0 .117.02.117.044 0 .024.036.043.081.043.087 0 .354.128.377.18.008.018.049.033.092.033s.084.016.092.037c.007.02.056.05.107.066.075.023.106.004.159-.1a.6.6 0 00.065-.214c0-.048.019-.088.043-.088.023 0 .042-.046.042-.102 0-.057.019-.11.043-.118.024-.008.055-.086.069-.172.023-.141.013-.164-.086-.21-.061-.027-.111-.066-.111-.086 0-.02-.032-.036-.07-.036a.26.26 0 01-.138-.055 1.365 1.365 0 00-.3-.134 1.388 1.388 0 01-.273-.115c-.022-.02-.112-.036-.201-.036-.088 0-.16-.017-.16-.038 0-.02-.11-.049-.244-.063a12.226 12.226 0 01-.497-.065 4.728 4.728 0 00-1.185.002zm10.686 0a7.578 7.578 0 01-.455.064c-.122.013-.222.04-.222.062 0 .021-.047.039-.104.039-.109 0-.415.126-.439.18-.008.018-.06.033-.116.033-.057 0-.103.017-.103.04 0 .021-.038.051-.084.066-.118.038-.701.619-.738.735-.016.053-.048.096-.069.096-.022 0-.04.047-.04.106s-.019.107-.042.107c-.023 0-.042.036-.042.08a.87.87 0 01-.066.239c-.121.29-.058 1.092.114 1.437a.35.35 0 01.036.116c0 .023.053.099.117.168.181.198.222.253.222.298 0 .022.038.053.085.068.046.015.084.045.084.067 0 .022.029.04.064.04s.063.019.063.042c0 .024.029.043.064.043s.063.019.063.042c0 .023.048.053.106.068.058.015.106.044.106.065 0 .02.038.038.084.038.047 0 .085.019.085.042 0 .024.044.043.098.043a.35.35 0 01.18.063.432.432 0 00.219.063c.076.001.138.02.138.044 0 .024.065.043.144.043.08 0 .152.021.161.047.008.025.105.057.215.07.109.012.199.038.199.059 0 .02.085.037.188.037.104 0 .199.018.213.04.013.022.11.053.214.069.104.015.189.045.189.066 0 .02.086.038.191.038.105 0 .19.02.19.042 0 .024.057.043.127.043s.127.017.127.037c0 .02.091.071.201.114.111.043.224.098.253.123.138.123.181.152.222.152.024 0 .044.029.044.064s.014.064.032.064c.017 0 .065.06.105.131.056.098.074.228.074.511 0 .21-.017.38-.037.38-.021 0-.05.048-.065.107-.014.058-.045.106-.068.106-.023 0-.041.02-.041.044 0 .058-.195.254-.252.254a.043.043 0 00-.044.043c0 .023-.028.042-.061.042a.2.2 0 00-.117.057c-.06.06-.167.093-.542.162-.128.024-.3.063-.381.086-.246.071-1.315-.022-1.52-.133a.607.607 0 00-.233-.044c-.083 0-.151-.018-.151-.04 0-.023-.067-.054-.149-.07-.081-.014-.148-.044-.148-.065 0-.02-.047-.038-.105-.038-.059 0-.106-.019-.106-.042 0-.024-.048-.043-.106-.043-.058 0-.106-.018-.106-.04 0-.023-.067-.073-.148-.112-.081-.039-.148-.088-.148-.108 0-.021-.022-.038-.05-.038-.027 0-.083-.031-.125-.07-.042-.037-.103-.058-.136-.045-.061.023-.239.357-.239.448 0 .027-.019.05-.043.05-.023 0-.042.048-.042.107 0 .058-.019.106-.042.106-.024 0-.043.04-.043.09 0 .094.236.334.328.335.029 0 .053.018.053.04 0 .02.048.05.106.064.058.015.106.045.106.068 0 .023.047.042.106.042.058 0 .106.02.106.043 0 .023.019.042.042.042.023 0 .141.048.262.107.121.058.259.106.309.106.049 0 .109.02.133.044.023.024.141.055.262.07.12.014.219.042.219.063 0 .02.162.036.36.036.211 0 .359.018.359.043 0 .026.184.042.466.042.282 0 .465-.016.465-.042 0-.025.142-.043.339-.043.186 0 .339-.018.339-.04 0-.022.085-.053.19-.069.105-.015.191-.045.191-.066 0-.02.066-.038.148-.038.081 0 .148-.019.148-.042 0-.024.027-.043.06-.043a.205.205 0 00.117-.053.92.92 0 01.182-.117c.143-.073.657-.566.657-.63 0-.024.028-.054.063-.067.035-.014.064-.064.064-.111 0-.048.015-.087.034-.087.059 0 .177-.32.177-.483 0-.086.019-.156.042-.156.025 0 .043-.149.043-.362s-.018-.362-.043-.362c-.023 0-.042-.084-.042-.188 0-.103-.014-.194-.032-.202-.046-.02-.179-.288-.179-.359 0-.033-.029-.06-.064-.06s-.063-.02-.063-.043c0-.066-.404-.456-.505-.489-.048-.015-.088-.045-.088-.067 0-.022-.048-.04-.106-.04-.058 0-.106-.02-.106-.043 0-.023-.025-.042-.057-.042a.997.997 0 01-.256-.107.888.888 0 00-.303-.106c-.056 0-.103-.018-.103-.039s-.095-.052-.212-.068c-.116-.016-.211-.046-.211-.068 0-.02-.075-.038-.167-.038-.092 0-.177-.017-.19-.037-.012-.02-.117-.05-.233-.065-.116-.016-.222-.047-.236-.07-.014-.023-.11-.041-.214-.041-.103 0-.188-.02-.188-.043 0-.023-.062-.043-.137-.044a.431.431 0 01-.22-.064.349.349 0 00-.18-.062c-.054 0-.098-.02-.098-.043 0-.023-.047-.042-.105-.042-.059 0-.106-.018-.106-.04 0-.022-.037-.051-.082-.066-.127-.04-.495-.415-.523-.533a7.086 7.086 0 00-.078-.285c-.045-.154-.042-.21.028-.415.044-.13.095-.237.113-.237.019 0 .035-.034.035-.075.002-.085.096-.223.152-.223.021 0 .074-.048.118-.107.044-.058.115-.106.158-.106s.079-.02.079-.043c0-.023.039-.043.088-.043a.246.246 0 00.151-.063c.035-.036.138-.064.229-.064.092 0 .167-.02.167-.043 0-.027.268-.043.719-.043.452 0 .72.016.72.043 0 .023.081.043.18.044.099 0 .216.03.262.064a.385.385 0 00.201.062c.065 0 .118.02.118.043 0 .024.037.043.082.043.087 0 .354.128.377.18.008.018.059.033.113.033.054 0 .105.016.113.037.007.02.057.05.109.066.082.026.095.015.095-.08 0-.06.018-.109.039-.109.022 0 .052-.057.067-.127.015-.07.045-.128.067-.128.021 0 .039-.058.039-.128s.017-.128.037-.128c.021 0 .046-.046.057-.102.019-.1-.085-.239-.179-.239a.042.042 0 01-.042-.042c0-.024-.036-.043-.08-.043a.197.197 0 01-.132-.064.224.224 0 00-.153-.063c-.055 0-.101-.02-.101-.043 0-.024-.044-.043-.097-.043a.348.348 0 01-.18-.062.483.483 0 00-.241-.064c-.087 0-.159-.02-.159-.044 0-.023-.101-.043-.224-.043s-.244-.02-.269-.044c-.06-.06-1.162-.088-1.454-.036zM39.302 38.97h2.286c1.257 0 2.285-.016 2.285-.036 0-.02.155-.05.344-.066.19-.016.379-.047.42-.07a.467.467 0 01.186-.04.46.46 0 00.183-.04c.04-.022.202-.1.359-.174.157-.074.286-.152.286-.174 0-.021.03-.039.066-.039.093 0 .468-.406.577-.625.05-.101.107-.184.126-.184.02 0 .035-.086.035-.192 0-.105.019-.191.042-.191.026 0 .042-.192.042-.49s-.016-.49-.042-.49c-.023 0-.042-.086-.042-.192 0-.105-.018-.191-.04-.191-.02 0-.05-.058-.066-.128-.015-.07-.045-.128-.067-.128-.021 0-.039-.029-.039-.064 0-.083-.573-.66-.656-.66-.035 0-.063-.02-.063-.043 0-.023-.048-.042-.106-.042-.058 0-.106-.018-.106-.04 0-.023-.067-.054-.148-.07-.082-.015-.148-.036-.148-.047 0-.038.121-.141.166-.141.024 0 .14-.096.257-.213.117-.117.231-.213.255-.213.023 0 .041-.048.041-.107 0-.058.02-.106.043-.106.023 0 .042-.02.042-.046 0-.025.029-.074.063-.11a.272.272 0 00.064-.167c0-.057.019-.103.042-.103.024 0 .043-.083.043-.183 0-.101.02-.204.046-.23.044-.045.041-.132-.028-.79-.015-.135-.042-.245-.06-.245-.019 0-.046-.048-.06-.107-.015-.058-.046-.106-.069-.106-.022 0-.041-.04-.041-.087 0-.103-.513-.638-.61-.638-.037 0-.067-.019-.067-.042 0-.024-.026-.043-.059-.043-.032 0-.082-.028-.11-.064a.223.223 0 00-.154-.063c-.055 0-.1-.017-.1-.038 0-.02-.077-.049-.17-.064-.093-.015-.17-.046-.17-.07 0-.023-.113-.041-.253-.041-.141 0-.254-.02-.254-.043 0-.028-.79-.043-2.285-.043h-2.286v8.52zm12.28-5.572c.012 2.305.027 2.95.068 2.963.029.01.053.08.053.155a.43.43 0 00.062.22.396.396 0 01.063.2c.001.065.02.117.044.117.023 0 .042.037.042.083 0 .045.029.11.064.146a.23.23 0 01.063.136c0 .04.036.104.079.142a.431.431 0 01.109.164c.016.053.047.096.07.096.02 0 .039.02.039.046 0 .055.106.167.159.167.02 0 .063.048.095.107.03.058.073.106.093.106.02 0 .089.048.151.107.063.058.138.106.168.106s.053.02.053.043c0 .023.026.042.058.042s.082.029.111.064a.223.223 0 00.154.064c.055 0 .1.02.1.043 0 .023.048.042.106.042.058 0 .106.018.106.04 0 .022.086.053.19.069.105.016.19.046.19.066 0 .021.144.038.318.038.184 0 .318.018.318.043 0 .025.169.042.423.042s.423-.017.423-.042.147-.043.356-.043c.196 0 .363-.014.37-.032.018-.039.423-.18.518-.18.037 0 .068-.02.068-.043 0-.024.027-.043.06-.043a.2.2 0 00.117-.055c.03-.03.117-.08.19-.11a.587.587 0 00.212-.158c.042-.057.093-.103.113-.103.055 0 .366-.322.366-.378 0-.026.016-.048.036-.048.02 0 .071-.067.115-.149.044-.082.095-.149.113-.149.018 0 .032-.026.032-.059 0-.032.03-.082.064-.111a.227.227 0 00.063-.155c0-.055.02-.1.043-.1.023 0 .042-.049.042-.107 0-.059.017-.107.038-.107.022 0 .052-.096.068-.213.016-.117.046-.213.067-.213.021 0 .039-.144.039-.32 0-.184.018-.319.042-.319.028 0 .042-.923.042-2.683V30.45h-1.176l-.015 2.834c-.01 2.017-.028 2.843-.062 2.865-.026.017-.06.121-.077.233-.016.11-.047.202-.069.202-.022 0-.04.048-.04.106 0 .059-.019.107-.042.107-.023 0-.042.039-.042.086 0 .048-.029.098-.064.111-.035.014-.063.061-.063.106 0 .044-.02.08-.043.08-.023 0-.042.029-.042.064s-.024.064-.053.064c-.03 0-.09.048-.133.107-.044.058-.115.106-.158.106-.044 0-.08.016-.08.036 0 .02-.07.072-.158.117a1.043 1.043 0 00-.18.108.45.45 0 01-.169.049 3.99 3.99 0 00-.339.074c-.237.063-1.28.032-1.303-.039-.009-.026-.065-.047-.125-.047-.125 0-.434-.127-.434-.178 0-.02-.038-.035-.084-.035-.047 0-.085-.019-.085-.042 0-.024-.029-.043-.063-.043-.035 0-.064-.02-.064-.046 0-.055-.106-.167-.16-.167-.02 0-.063-.048-.094-.106-.031-.059-.07-.107-.087-.107-.017 0-.043-.048-.057-.106-.015-.059-.046-.107-.068-.107-.023 0-.042-.048-.042-.106 0-.059-.019-.107-.042-.107-.023 0-.043-.036-.043-.08a.826.826 0 00-.063-.233 1.157 1.157 0 01-.063-.367c0-.118-.02-.214-.043-.214-.028 0-.042-.916-.042-2.663V30.45h-1.195l.016 2.947zM75.15 38.97h1.142v-8.519H75.15v8.52zm6.94 0h.554c.423 0 .567-.014.613-.06.052-.052.06-.528.06-3.131 0-2.7.009-3.07.064-3.07.035 0 .064.02.064.044 0 .025.049.097.108.16.06.064.135.163.166.222a.583.583 0 00.146.169c.048.034.088.078.088.098 0 .019.047.086.106.15a.506.506 0 01.105.144c0 .017.096.13.212.252.116.122.212.24.212.261 0 .021.066.102.148.18a.706.706 0 01.148.17c0 .017.024.057.053.09.115.129.159.187.159.212 0 .043.117.148.166.148.025 0 .045.029.045.064s.02.064.042.064c.024 0 .043.024.043.055 0 .03.066.126.148.213.081.087.148.167.148.18 0 .01.033.055.074.098.125.132.265.305.265.33 0 .012.043.068.095.125.135.145.2.227.2.25 0 .012.067.092.149.179.081.087.148.173.148.193 0 .019.076.113.17.208.093.096.169.184.169.195a.58.58 0 00.106.137.5.5 0 01.105.145c0 .017.086.12.19.228.106.109.191.214.191.234 0 .02.048.085.106.144.058.058.106.126.106.15 0 .025.028.045.063.045s.064.02.064.046c0 .025.024.072.053.105.113.127.158.187.158.211 0 .014.075.1.166.194l.166.168h.896v-8.519h-1.143v3.11c0 3.045-.002 3.11-.082 3.11-.045 0-.094-.04-.108-.086-.015-.047-.045-.085-.067-.085-.021 0-.04-.029-.04-.064a.064.064 0 00-.063-.064c-.035 0-.063-.02-.063-.045 0-.024-.048-.092-.106-.15-.058-.06-.106-.127-.106-.151 0-.025-.066-.11-.148-.19a.858.858 0 01-.148-.168c0-.027-.06-.103-.201-.255a.465.465 0 01-.095-.127.445.445 0 00-.106-.124c-.058-.054-.106-.12-.106-.147 0-.026-.095-.144-.212-.262-.116-.117-.211-.235-.211-.261 0-.026-.067-.111-.148-.189a.75.75 0 01-.148-.167c0-.015-.024-.054-.053-.087-.126-.14-.159-.19-.159-.23 0-.025-.029-.045-.064-.045-.034 0-.063-.02-.063-.045 0-.024-.048-.092-.106-.15-.058-.06-.106-.13-.106-.16 0-.029-.038-.08-.084-.114-.047-.034-.085-.086-.085-.116a.055.055 0 00-.053-.055c-.029 0-.11-.087-.18-.192-.07-.105-.141-.19-.158-.19-.018 0-.032-.022-.032-.049 0-.027-.048-.093-.106-.147a.472.472 0 01-.106-.122c0-.026-.14-.196-.307-.372-.064-.068-.116-.141-.116-.164a.042.042 0 00-.042-.041c-.024 0-.043-.026-.043-.058s-.047-.094-.105-.138c-.059-.044-.106-.095-.106-.114a.474.474 0 00-.106-.15.513.513 0 01-.106-.143c0-.017-.085-.119-.189-.228-.103-.11-.2-.235-.214-.28-.014-.045-.043-.082-.065-.082-.022 0-.04-.02-.04-.045 0-.135-.123-.168-.632-.168h-.51v8.52zm13.036 0h6.094v-1.065h-4.867v-2.767l4.211-.023.013-.425c.007-.235.002-.47-.012-.522l-.023-.096h-4.189v-2.598h4.74V30.45h-5.967v8.52zm-51.571-7.517c.14.016.291.056.337.09a.37.37 0 00.18.058c.054 0 .097.02.097.043 0 .024.048.043.106.043.066 0 .106.024.106.063 0 .036.02.064.044.064.047 0 .252.192.252.236 0 .014.029.055.064.09a.27.27 0 01.063.167c0 .057.02.104.042.104.053 0 .058.71.006.742-.02.012-.048.077-.06.143-.029.14-.388.537-.528.58-.052.018-.095.05-.095.071 0 .022-.066.04-.148.04-.081 0-.148.017-.148.039 0 .063-.492.093-1.904.114-.995.016-1.357.008-1.428-.031l-.096-.052v-1.256c0-1.117.008-1.266.071-1.336.067-.074.147-.078 1.428-.06.747.01 1.472.031 1.61.048zm.403 3.726c0 .024.095.043.211.043.117 0 .212.018.212.04 0 .023.067.054.148.07.081.015.148.044.148.065 0 .02.029.038.064.038s.063.02.063.042c0 .024.025.043.056.043.073 0 .198.15.304.362a.68.68 0 00.116.185c.05.022.039.944-.01.944-.024 0-.043.027-.043.06 0 .076-.137.323-.18.323-.017 0-.031.029-.031.064a.064.064 0 01-.064.064c-.035 0-.063.02-.063.043 0 .023-.038.042-.085.042-.046 0-.085.016-.085.035 0 .051-.308.178-.433.178-.06 0-.118.024-.127.053-.014.041-.415.057-1.767.067-.961.008-1.793.003-1.848-.011l-.1-.025v-2.767h1.757c1.143 0 1.757.015 1.757.042z" fill="#6CA841"/><path d="M23.431 24.444V9.324l2.518.022.022 14.12 7.554.021v.98l-4.952.012c-2.723.006-4.994 0-5.047-.012l-.095-.023zm18.791.044V9.325h1.291c1.12 0 1.291.008 1.291.064 0 .035.017.064.038.064.02 0 .05.047.064.106.015.059.045.107.068.107.023 0 .042.038.042.085 0 .047.019.085.042.085.023 0 .042.048.042.106 0 .059.017.107.038.107.02 0 .05.048.065.106.014.059.045.107.067.107.023 0 .042.048.042.106 0 .059.017.107.038.107.02 0 .05.048.064.106.015.059.045.107.068.107.023 0 .042.048.042.106 0 .059.017.107.037.107.021 0 .05.048.065.106.014.059.045.107.068.107.023 0 .041.038.041.085 0 .047.02.085.043.085.023 0 .042.036.042.08 0 .044.029.104.063.133.035.03.064.09.064.133 0 .044.014.08.032.08.017 0 .068.091.113.202.045.112.092.212.106.224.047.042.172.306.172.366 0 .033.02.06.042.06.024 0 .043.029.043.064s.019.064.042.064c.023 0 .042.027.042.06 0 .071.134.338.18.358.018.008.032.05.032.093s.014.084.032.092c.046.02.18.287.18.359 0 .033.017.06.037.06.021 0 .05.048.065.106.014.059.045.107.068.107.023 0 .041.048.041.106 0 .059.02.107.043.107.023 0 .042.039.042.086 0 .048.028.098.063.111.035.014.064.07.064.127 0 .056.019.102.042.102.023 0 .043.038.043.085 0 .047.018.085.041.085.023 0 .053.048.068.107.015.058.044.106.064.106.021 0 .038.048.038.107 0 .058.019.106.042.106.022 0 .053.048.068.107.014.058.043.106.064.106.02 0 .038.048.038.107 0 .058.018.106.041.106.023 0 .054.048.068.107.015.058.044.106.065.106.02 0 .037.048.037.107 0 .058.02.106.043.106.023 0 .042.036.042.08 0 .045.029.092.064.106.034.013.063.062.063.107 0 .046.014.09.032.098.046.02.18.287.18.358 0 .033.019.06.042.06.023 0 .042.027.042.06 0 .072.134.339.18.36.017.007.032.06.032.116 0 .057.014.103.032.104.042 0 .18.246.18.322 0 .033.016.06.037.06.02 0 .05.049.065.107.014.059.045.107.067.107.023 0 .042.047.042.106s.017.107.038.107c.02 0 .05.047.064.106.015.058.045.107.068.107.023 0 .042.025.042.055 0 .061.204.506.248.54.045.037.345.657.345.714 0 .03.018.053.04.053.023 0 .054.048.069.107.014.058.043.106.064.106.02 0 .038.048.038.107s.018.106.041.106c.023 0 .054.048.068.107.015.058.044.106.065.106.02 0 .037.028.037.06 0 .106.206.451.268.451.01 0 .032-.047.046-.106.015-.058.045-.107.068-.107.023 0 .042-.047.042-.106 0-.058.017-.106.037-.106.021 0 .05-.048.065-.107.014-.059.045-.106.068-.106.023 0 .041-.039.041-.086 0-.046.02-.085.043-.085.023 0 .042-.036.042-.08 0-.044.029-.104.063-.133a.198.198 0 00.064-.133c0-.044.015-.08.033-.08.018 0 .07-.096.115-.213.045-.117.097-.213.115-.213.018 0 .033-.048.033-.106 0-.059.017-.107.038-.107.02 0 .05-.047.064-.106.015-.059.045-.107.068-.107.023 0 .042-.022.042-.05 0-.079.14-.375.177-.375.019 0 .034-.039.034-.086 0-.047.015-.085.033-.085.019 0 .07-.096.116-.213.045-.117.096-.213.115-.213.018 0 .033-.048.033-.106 0-.059.017-.107.037-.107.021 0 .05-.048.065-.106.014-.059.045-.107.068-.107.023 0 .041-.022.041-.05 0-.079.14-.376.178-.376.019 0 .034-.048.034-.106 0-.059.017-.107.037-.107.02 0 .049-.033.063-.074a.915.915 0 01.061-.139c.094-.16.135-.26.135-.319 0-.035.017-.064.038-.064.02 0 .05-.048.064-.107.015-.058.045-.106.068-.106.023 0 .042-.048.042-.107 0-.058.017-.106.038-.106.02 0 .05-.048.064-.106.014-.059.045-.107.068-.107.023 0 .041-.048.041-.106 0-.059.017-.107.038-.107.02 0 .05-.048.064-.106.015-.059.046-.107.068-.107.023 0 .042-.048.042-.106 0-.059.019-.107.042-.107.023 0 .043-.029.043-.065 0-.035.047-.14.105-.233a.714.714 0 00.106-.233c0-.036.019-.065.042-.065.023 0 .053-.048.068-.107.014-.058.043-.106.064-.106.02 0 .038-.048.038-.107 0-.058.017-.106.038-.106.02 0 .05-.048.064-.107.014-.058.045-.106.068-.106.023 0 .041-.048.041-.107 0-.058.02-.106.043-.106.023 0 .042-.048.042-.107 0-.066.024-.106.064-.106s.063-.04.063-.106c0-.06.02-.107.042-.107.024 0 .043-.036.043-.08 0-.044.028-.104.063-.133.035-.03.064-.08.064-.112s.019-.058.042-.058c.023 0 .042-.048.042-.107 0-.058.017-.106.038-.106.02 0 .05-.048.064-.107.015-.058.046-.106.068-.106.023 0 .042-.048.042-.107 0-.058.017-.106.038-.106.02 0 .05-.048.064-.107.015-.058.045-.106.068-.106.023 0 .041-.048.041-.107 0-.058.017-.106.038-.106.021 0 .05-.048.065-.107.014-.058.045-.106.068-.106.023 0 .041-.048.041-.107 0-.058.02-.106.042-.106.024 0 .043-.038.043-.085 0-.047.015-.086.034-.086.037 0 .177-.296.177-.376 0-.027.017-.05.038-.05.02 0 .05-.047.065-.106.014-.059.045-.106.067-.106.023 0 .042-.048.042-.107 0-.058.017-.106.038-.106.02 0 .05-.048.064-.107.015-.058.045-.106.068-.106.023 0 .042-.048.042-.107 0-.058.019-.106.042-.106.023 0 .042-.036.042-.08 0-.044.029-.104.064-.133a.198.198 0 00.063-.133c0-.077.056-.08 1.291-.08h1.291l-.021 15.142-2.476.023v-6.22c0-4.118-.014-6.22-.042-6.22a.043.043 0 00-.043.043c0 .024-.028.043-.063.043-.04 0-.064.04-.064.106 0 .059-.017.107-.037.107-.021 0-.05.048-.065.106-.014.059-.045.107-.068.107-.023 0-.041.038-.041.085 0 .047-.02.085-.043.085-.023 0-.042.036-.042.08a.198.198 0 01-.063.133.198.198 0 00-.064.133c0 .044-.019.08-.042.08-.023 0-.043.023-.043.05 0 .08-.14.376-.177.376-.019 0-.034.048-.034.107 0 .058-.02.106-.043.106-.023 0-.042.027-.042.061a.202.202 0 01-.055.117.784.784 0 00-.112.206.974.974 0 01-.115.216.288.288 0 00-.056.16c0 .05-.02.092-.043.092-.023 0-.042.026-.042.059 0 .032-.029.082-.064.111a.198.198 0 00-.063.133c0 .044-.02.08-.042.08-.024 0-.043.048-.043.107 0 .058-.019.106-.042.106-.023 0-.042.028-.042.061a.202.202 0 01-.055.117.783.783 0 00-.113.206.974.974 0 01-.114.216.288.288 0 00-.057.16c0 .05-.019.092-.042.092-.023 0-.043.027-.043.059s-.028.082-.063.112a.198.198 0 00-.063.133c0 .044-.02.08-.043.08-.023 0-.042.038-.042.085 0 .047-.02.085-.043.085-.023 0-.042.037-.042.083 0 .045-.017.093-.037.105-.02.013-.102.158-.18.323-.079.164-.157.298-.174.298-.018 0-.032.048-.032.107 0 .058-.015.106-.034.106-.037 0-.178.296-.178.373 0 .025-.015.052-.034.06-.02.008-.118.187-.22.398-.101.21-.2.39-.22.397-.018.008-.034.053-.034.1a.245.245 0 01-.063.148.241.241 0 00-.063.146c0 .045-.02.082-.043.082-.023 0-.042.038-.042.085 0 .047-.015.085-.032.085-.018 0-.099.144-.18.319-.081.175-.162.319-.18.32-.017 0-.031.028-.031.063a.899.899 0 01-.106.253.884.884 0 00-.106.257c0 .036-.019.066-.042.066-.024 0-.043.038-.043.085 0 .047-.014.085-.031.085-.018 0-.099.144-.18.32-.082.174-.163.318-.18.319-.018 0-.032.027-.032.06a.869.869 0 01-.105.245.833.833 0 00-.106.26c0 .04-.02.074-.043.074-.023 0-.042.039-.042.085 0 .047-.019.086-.042.086-.023 0-.053.048-.068.106-.014.059-.043.107-.064.107-.02 0-.038.027-.038.06 0 .071-.134.338-.18.359-.017.007-.031.06-.031.117 0 .056-.019.103-.042.103-.023 0-.053.047-.068.106-.014.059-.044.107-.064.107-.021 0-.038.047-.038.106s-.019.107-.042.107c-.024 0-.043.035-.043.08a.198.198 0 01-.063.133c-.035.029-.064.079-.064.111s-.019.059-.042.059c-.023 0-.042.036-.042.08a.198.198 0 01-.064.133c-.035.029-.063.08-.063.111 0 .043-.064.06-.236.06-.246 0-.324-.043-.375-.205-.016-.052-.047-.094-.07-.094-.02 0-.039-.048-.039-.106 0-.059-.019-.107-.042-.107-.023 0-.042-.039-.042-.086 0-.048-.029-.098-.064-.111-.035-.014-.063-.061-.063-.106 0-.044-.02-.08-.043-.08-.023 0-.042-.048-.042-.107 0-.058-.017-.106-.038-.106-.02 0-.05-.048-.064-.107-.015-.058-.045-.106-.068-.106-.023 0-.042-.048-.042-.107 0-.058-.018-.106-.041-.106-.023 0-.053-.048-.068-.107-.015-.058-.044-.106-.064-.106-.021 0-.038-.048-.038-.107 0-.058-.015-.106-.032-.106-.042 0-.18-.247-.18-.323 0-.033-.019-.06-.042-.06-.023 0-.042-.036-.042-.08a.198.198 0 00-.064-.133.198.198 0 01-.063-.133c0-.044-.017-.08-.038-.08-.02 0-.05-.048-.064-.107-.015-.058-.046-.106-.069-.106-.022 0-.041-.048-.041-.107 0-.058-.015-.106-.034-.106-.018 0-.069-.087-.112-.192-.043-.105-.095-.192-.114-.192-.02 0-.036-.048-.036-.106 0-.059-.02-.107-.043-.107-.023 0-.042-.027-.042-.06a.202.202 0 00-.055-.118.787.787 0 01-.112-.205.974.974 0 00-.115-.216.237.237 0 01-.056-.117c0-.028-.02-.05-.043-.05-.023 0-.042-.048-.042-.107 0-.058-.019-.106-.042-.106-.023 0-.053-.048-.068-.107-.014-.058-.043-.106-.064-.106-.02 0-.038-.048-.038-.107 0-.058-.019-.106-.042-.106-.023 0-.042-.036-.042-.08a.198.198 0 00-.064-.133c-.035-.03-.063-.08-.063-.112s-.02-.059-.043-.059c-.023 0-.042-.036-.042-.08a.198.198 0 00-.063-.133.198.198 0 01-.064-.133c0-.044-.019-.08-.042-.08-.024 0-.043-.047-.043-.106s-.018-.107-.041-.107c-.023 0-.054-.047-.068-.106-.015-.059-.044-.107-.065-.107-.02 0-.037-.047-.037-.106 0-.058-.015-.107-.032-.107-.043 0-.18-.246-.18-.322 0-.034-.017-.06-.038-.06-.02 0-.05-.049-.064-.107-.014-.059-.045-.107-.068-.107-.023 0-.041-.048-.041-.106 0-.059-.017-.107-.038-.107-.021 0-.05-.048-.065-.106-.014-.059-.045-.107-.068-.107-.022 0-.041-.048-.041-.106 0-.059-.02-.107-.042-.107-.024 0-.043-.036-.043-.08 0-.045-.028-.092-.063-.105-.035-.014-.064-.064-.064-.111 0-.048-.015-.087-.033-.087-.018 0-.07-.096-.115-.213-.045-.117-.093-.213-.107-.213-.013 0-.059-.096-.1-.213-.042-.117-.094-.213-.114-.213-.021 0-.039-.038-.039-.085 0-.047-.019-.085-.042-.085-.023 0-.042-.039-.042-.085 0-.047-.016-.086-.036-.086-.02 0-.072-.086-.115-.191-.043-.106-.092-.192-.108-.192-.017 0-.043-.057-.059-.128-.015-.07-.045-.128-.066-.128-.022 0-.04-.038-.04-.085 0-.047-.016-.085-.037-.085-.021 0-.05-.048-.065-.106-.014-.059-.045-.107-.068-.107-.022 0-.041-.048-.041-.106 0-.059-.02-.107-.042-.107-.024 0-.043-.027-.043-.06 0-.071-.134-.338-.18-.359-.017-.008-.031-.05-.031-.095s-.019-.082-.042-.082c-.023 0-.053-.048-.068-.107-.014-.058-.044-.106-.064-.106-.021 0-.038-.048-.038-.107 0-.058-.019-.106-.041-.106-.023 0-.054-.048-.069-.107-.014-.058-.043-.106-.064-.106-.02 0-.038-.048-.038-.107 0-.058-.017-.106-.037-.106-.021 0-.05-.05-.065-.11-.02-.082-.05-.105-.121-.095l-.094.013-.01 6.131c-.01 4.84-.023 6.139-.064 6.165-.03.019-.277.034-.55.035h-.498zM88.016 9.822c0-.242.012-.453.028-.469.016-.016 3.04-.024 6.719-.018l6.69.011.024.915-5.441.022-.01 7.045c-.009 5.121-.024 7.061-.059 7.103-.038.046-.296.057-1.27.057h-1.222v-7.017c0-3.86-.012-7.06-.026-7.113l-.026-.096h-5.407v-.44zm20.559-.369c-.018 0-.033-.03-.033-.064 0-.056.172-.064 1.291-.064s1.291.008 1.291.064c0 .035.015.064.033.064.018 0 .068.067.112.149.044.082.096.149.116.149.019 0 .035.024.035.053 0 .03.044.102.098.16.053.058.11.135.126.17.051.11.133.23.204.298a.443.443 0 01.098.16c.017.053.048.096.07.096.021 0 .039.02.039.044 0 .042.033.09.159.231.029.033.053.08.053.105 0 .025.019.046.042.046.023 0 .042.024.042.053 0 .03.044.102.098.16a.95.95 0 01.126.17c.05.108.132.225.231.33.053.055.096.128.096.162s.019.062.042.062c.023 0 .042.028.042.064 0 .035.019.064.043.064.023 0 .042.038.042.085 0 .047.028.085.063.085s.064.029.064.064.019.064.042.064c.023 0 .042.03.042.066 0 .036.048.11.106.164.058.054.106.116.106.137 0 .021.048.09.106.153.058.063.106.147.106.186 0 .04.047.116.106.17.058.055.105.12.105.144 0 .024.019.045.043.045.023 0 .042.029.042.065 0 .036.029.076.063.09.035.013.064.05.064.083s.019.06.042.06c.024 0 .043.038.043.085 0 .047.028.085.063.085s.064.029.064.064.019.064.042.064c.023 0 .042.038.042.085 0 .047.019.085.043.085.023 0 .042.027.042.06 0 .032.028.07.063.083.035.014.064.06.064.101 0 .042.047.113.106.157.058.044.105.103.105.131 0 .029.048.104.106.167.058.063.106.143.106.177s.019.061.042.061c.024 0 .043.02.043.045 0 .024.047.096.105.16.059.062.106.138.106.168s.016.053.036.053c.02 0 .072.067.115.15.044.081.095.148.113.148.018 0 .033.03.033.064 0 .035.028.064.063.064.036 0 .064.038.064.087 0 .048.047.135.105.194.059.058.106.134.106.168s.019.062.042.062c.024 0 .043.03.043.064 0 .035.018.064.039.064.022 0 .052.038.067.085.027.086.19.122.19.043 0-.024.029-.043.064-.043s.063-.038.063-.087c0-.048.048-.139.106-.202.058-.063.106-.139.106-.168 0-.03.019-.054.042-.054.023 0 .042-.02.042-.044 0-.042.033-.09.159-.231.029-.033.053-.071.053-.086 0-.025.044-.083.159-.212.029-.033.053-.08.053-.105 0-.025.019-.046.042-.046.023 0 .042-.028.042-.062s.045-.107.101-.163a.615.615 0 00.13-.194c.016-.05.047-.092.068-.092.022 0 .04-.029.04-.064s.016-.064.035-.064c.02 0 .072-.067.116-.149.044-.082.094-.149.112-.149.018 0 .033-.029.033-.064s.015-.064.033-.064c.018 0 .068-.067.112-.149.044-.082.096-.149.116-.149.019 0 .035-.036.035-.08 0-.043.047-.114.104-.156a.387.387 0 00.127-.177c.014-.054.044-.098.066-.098.023 0 .042-.029.042-.064s.019-.064.042-.064c.023 0 .042-.03.042-.066 0-.036.048-.11.106-.164.058-.055.106-.122.106-.15 0-.027.048-.101.106-.164.058-.063.106-.135.106-.159 0-.024.047-.095.106-.158.058-.063.105-.144.105-.18 0-.037.019-.066.043-.066.023 0 .042-.029.042-.064s.025-.064.056-.064c.03 0 .081-.067.113-.15.032-.081.07-.148.084-.148.014 0 .061-.063.105-.139.044-.076.124-.18.178-.232.055-.051.099-.124.099-.162 0-.037.047-.119.106-.182.058-.063.105-.14.105-.169 0-.03.019-.053.043-.053.023 0 .042-.02.042-.045 0-.042.033-.09.159-.23.029-.033.053-.08.053-.106 0-.025.017-.045.039-.045s.053-.043.07-.096a.409.409 0 01.102-.16.422.422 0 00.103-.16c.016-.052.048-.095.069-.095.022 0 .04-.02.04-.045 0-.041.033-.09.159-.23.029-.033.053-.08.053-.106 0-.025.016-.045.035-.045.02 0 .072-.067.116-.15.044-.081.094-.148.112-.148.018 0 .033-.03.033-.064 0-.054.103-.064.677-.064.547 0 .677.011.677.058 0 .033-.028.083-.063.112-.035.03-.064.07-.064.092 0 .022-.047.088-.106.146-.058.059-.105.135-.105.169s-.02.062-.043.062a.043.043 0 00-.042.044c0 .042-.033.09-.159.231-.029.033-.053.08-.053.105 0 .025-.019.046-.042.046-.023 0-.042.03-.042.066 0 .036-.045.108-.1.16a.54.54 0 00-.13.189c-.017.053-.048.096-.069.096-.022 0-.04.029-.04.064s-.015.063-.033.063c-.018 0-.068.068-.112.15-.044.082-.096.149-.116.149-.019 0-.035.031-.035.07 0 .038-.044.11-.097.159a.768.768 0 00-.153.229c-.031.076-.083.138-.115.138s-.058.029-.058.064-.019.064-.043.064c-.023 0-.042.039-.042.086 0 .048-.029.098-.064.111-.034.014-.063.052-.063.084 0 .033-.019.06-.042.06-.024 0-.043.03-.043.07 0 .037-.047.113-.106.168-.058.054-.105.12-.105.149 0 .027-.048.094-.106.149-.058.054-.106.133-.106.175 0 .043-.048.114-.106.158-.058.044-.106.108-.106.143 0 .035-.035.095-.078.133a.44.44 0 00-.109.164c-.016.053-.048.096-.069.096-.022 0-.04.02-.04.045 0 .024-.047.096-.106.159a.47.47 0 00-.105.149.478.478 0 01-.106.149c-.058.063-.106.139-.106.169s-.019.053-.042.053c-.024 0-.043.029-.043.064s-.017.064-.039.064-.05.034-.063.075a.81.81 0 01-.13.198c-.059.068-.106.15-.106.18 0 .032-.019.058-.043.058a.043.043 0 00-.042.044c0 .042-.033.09-.159.231-.029.033-.053.08-.053.105 0 .026-.019.046-.042.046-.023 0-.042.024-.042.054s-.048.105-.106.168c-.058.063-.106.134-.106.158 0 .023-.043.086-.095.14-.052.054-.133.17-.179.257-.046.088-.098.16-.116.16-.018 0-.033.029-.033.064s-.019.064-.042.064c-.024 0-.043.038-.043.085 0 .047-.028.085-.063.085s-.064.02-.064.046c0 .025-.023.072-.053.105-.125.14-.158.19-.158.23a.044.044 0 01-.043.045c-.023 0-.042.034-.043.075 0 .04-.048.12-.105.175-.058.055-.105.13-.105.165 0 .036-.048.11-.106.164l-.106.099v6.563h-1.223c-1.076 0-1.226-.008-1.248-.067-.015-.037-.026-1.475-.026-3.195 0-2.056-.015-3.127-.042-3.127-.024 0-.043-.029-.043-.064s-.019-.064-.042-.064a.043.043 0 01-.042-.044c0-.042-.034-.09-.159-.23-.029-.034-.053-.08-.053-.106 0-.025-.018-.046-.04-.046-.021 0-.052-.041-.068-.092a.614.614 0 00-.13-.193c-.055-.056-.101-.13-.101-.164s-.019-.062-.042-.062a.043.043 0 01-.042-.044c0-.042-.033-.09-.159-.231-.029-.033-.053-.08-.053-.105 0-.025-.015-.046-.033-.046-.018 0-.068-.067-.112-.149-.044-.082-.096-.149-.115-.149-.02 0-.036-.024-.036-.053 0-.03-.048-.106-.106-.169-.058-.063-.106-.135-.106-.16a.043.043 0 00-.042-.044c-.023 0-.042-.026-.042-.057 0-.031-.048-.113-.106-.181a.78.78 0 01-.13-.198c-.013-.041-.042-.075-.064-.075-.021 0-.039-.02-.039-.044 0-.042-.033-.09-.159-.231-.029-.033-.053-.08-.053-.105 0-.025-.019-.046-.042-.046-.023 0-.042-.03-.042-.066 0-.036-.043-.108-.095-.16a.925.925 0 01-.229-.338c-.014-.041-.037-.075-.052-.075-.016 0-.064-.067-.108-.149-.044-.082-.096-.149-.115-.149-.02 0-.036-.029-.036-.064s-.019-.064-.042-.064c-.024 0-.043-.03-.043-.066 0-.036-.047-.11-.106-.164-.058-.054-.105-.122-.105-.15 0-.027-.048-.094-.106-.148-.058-.055-.106-.122-.106-.15 0-.027-.048-.094-.106-.149-.058-.054-.106-.132-.106-.174 0-.041-.047-.12-.105-.174-.059-.054-.106-.121-.106-.149 0-.027-.048-.095-.106-.149-.058-.054-.106-.119-.106-.143 0-.025-.019-.045-.042-.045-.023 0-.042-.03-.042-.066 0-.036-.048-.11-.106-.164-.058-.055-.106-.13-.106-.169 0-.038-.019-.07-.042-.07-.024 0-.043-.028-.043-.063s-.018-.064-.039-.064c-.022 0-.053-.043-.07-.096a.537.537 0 00-.129-.19c-.055-.051-.1-.116-.1-.144 0-.027-.048-.095-.106-.149-.058-.054-.106-.128-.106-.164 0-.037-.019-.066-.042-.066-.024 0-.043-.03-.043-.064 0-.036-.014-.064-.032-.064-.018 0-.069-.067-.113-.15-.044-.081-.096-.148-.115-.148-.02 0-.036-.02-.036-.046 0-.025-.024-.072-.053-.105a1.51 1.51 0 01-.27-.414c-.014-.04-.039-.074-.056-.074s-.067-.067-.111-.15c-.043-.081-.094-.148-.112-.148z" fill="#fff"/><path fill-rule="evenodd" clip-rule="evenodd" d="M7.2 9.027c-.014.046-.044.085-.066.085-.022 0-.04.027-.04.06 0 .071-.133.338-.18.359-.017.007-.031.06-.031.117 0 .056-.015.103-.033.103-.018 0-.07.096-.115.213-.045.117-.097.213-.115.213-.019 0-.033.04-.033.088a.25.25 0 01-.064.152.241.241 0 00-.063.146c0 .045-.02.082-.043.082-.023 0-.042.037-.042.082a.244.244 0 01-.063.146.25.25 0 00-.064.152c0 .049-.019.089-.042.089-.024 0-.043.048-.043.106 0 .059-.018.107-.041.107-.023 0-.054.048-.068.106-.015.059-.044.107-.064.107-.021 0-.038.048-.038.106 0 .059-.02.107-.043.107-.023 0-.042.036-.042.08a.198.198 0 01-.063.133.198.198 0 00-.064.133c0 .044-.019.08-.042.08-.023 0-.042.034-.042.077a.323.323 0 01-.063.16.33.33 0 00-.063.157c0 .04-.02.074-.044.074-.023 0-.042.048-.042.107 0 .058-.019.106-.042.106-.022 0-.053.048-.068.107-.014.058-.043.106-.064.106-.02 0-.038.048-.038.107 0 .058-.017.106-.037.106-.021 0-.05.048-.065.107-.014.058-.045.106-.068.106-.023 0-.041.048-.041.106 0 .059-.02.107-.043.107-.023 0-.042.04-.042.088a.25.25 0 01-.063.152.272.272 0 00-.064.168c0 .057-.019.103-.042.103-.024 0-.043.036-.043.08a.198.198 0 01-.063.133.198.198 0 00-.064.133c0 .044-.019.08-.042.08-.023 0-.042.027-.042.06 0 .072-.134.338-.18.359-.017.008-.032.06-.032.117 0 .057-.015.103-.034.103-.042 0-.177.301-.177.394 0 .037-.015.074-.032.082-.046.02-.18.287-.18.358 0 .033-.02.06-.042.06-.024 0-.043.046-.043.102 0 .056-.028.113-.063.127-.035.013-.064.063-.064.11 0 .048-.019.087-.042.087-.023 0-.042.048-.042.107 0 .058-.019.106-.042.106-.023 0-.053.048-.068.107-.014.058-.043.106-.064.106-.02 0-.038.058-.038.128s-.019.128-.042.128c-.023 0-.043.037-.043.082 0 .045-.028.11-.063.146-.035.035-.064.078-.064.095 0 .066-.144.358-.177.358-.019 0-.034.048-.034.107 0 .058-.02.106-.042.106-.024 0-.043.04-.043.087 0 .047-.028.097-.063.11-.035.014-.064.071-.064.127 0 .056-.019.102-.042.102-.023 0-.042.048-.042.107 0 .058-.016.106-.035.106-.018 0-.067.082-.109.181-.04.1-.12.277-.177.395a1.25 1.25 0 00-.103.262c0 .027-.014.056-.031.064-.046.02-.18.287-.18.358 0 .033-.02.06-.043.06-.023 0-.042.049-.042.107 0 .059-.017.107-.038.107-.02 0-.05.047-.064.106-.015.059-.045.107-.068.107-.023 0-.041.046-.041.104 0 .057-.018.114-.04.128-.021.013-.051.081-.066.151-.016.07-.046.128-.067.128-.022 0-.04.048-.04.106 0 .059-.018.107-.04.107-.023 0-.054.048-.069.106-.014.059-.043.107-.064.107-.02 0-.038.048-.038.106 0 .059-.019.107-.042.107-.023 0-.042.047-.042.106s-.019.107-.042.107c-.023 0-.053.047-.068.106-.015.059-.043.106-.064.106-.021 0-.038.04-.038.089a.25.25 0 01-.063.152.241.241 0 00-.064.146c0 .045-.019.082-.042.082-.024 0-.043.022-.043.05 0 .08-.14.376-.177.376-.019 0-.034.048-.034.107 0 .058-.02.106-.043.106-.023 0-.042.048-.042.107 0 .058-.019.106-.041.106-.023 0-.054.048-.068.106-.015.059-.044.107-.065.107-.02 0-.037.048-.037.106 0 .059-.02.107-.042.107-.023 0-.053.048-.068.106-.015.059-.041.107-.06.107-.018 0-.041.053-.052.117-.011.064-.035.15-.052.192-.03.069.013.074.568.074.638 0 .721-.024.721-.21 0-.048.019-.088.042-.088.023 0 .053-.048.068-.106.014-.059.043-.107.064-.107.02 0 .038-.048.038-.106 0-.059.019-.107.042-.107.023 0 .043-.034.043-.077 0-.042.028-.114.062-.16a.33.33 0 00.063-.157c0-.04.018-.074.04-.074.02 0 .049-.048.064-.107.014-.058.045-.106.068-.106.022 0 .041-.048.041-.107 0-.058.02-.106.042-.106.024 0 .043-.048.043-.107 0-.058.018-.106.041-.106.023 0 .054-.048.068-.107.015-.058.044-.106.065-.106.02 0 .037-.047.037-.103 0-.057.015-.11.033-.117.019-.008.099-.168.179-.355.08-.188.16-.348.179-.355.018-.008.033-.06.033-.117 0-.057.017-.103.037-.103.021 0 .05-.048.065-.107.014-.058.045-.106.068-.106.023 0 .041-.048.041-.107 0-.058.02-.106.043-.106.023 0 .042-.027.042-.06 0-.072.134-.338.18-.36.017-.007.031-.039.031-.07 0-.069.136-.335.18-.355.018-.008.032-.069.032-.135s.014-.127.032-.135a.63.63 0 00.112-.174l.081-.16h6.49l.057.171c.03.095.081.193.113.219a.187.187 0 01.056.127c0 .044.02.08.042.08.024 0 .043.056.043.124s.014.13.031.139c.046.02.18.287.18.358 0 .033.02.06.043.06.023 0 .042.035.042.077 0 .043.028.115.062.16a.331.331 0 01.064.157c0 .041.02.075.043.075.023 0 .043.036.043.08 0 .044.028.104.063.133a.224.224 0 01.063.154c0 .056.02.101.043.101.023 0 .042.039.042.086 0 .047.018.085.04.085.02 0 .05.057.066.127.015.07.045.138.067.152.021.013.039.07.039.128 0 .057.017.104.037.104.021 0 .05.048.065.106.014.059.045.107.068.107.023 0 .041.048.041.106 0 .059.02.107.043.107.023 0 .042.036.042.08 0 .044.029.104.064.133a.197.197 0 01.063.133c0 .044.02.08.042.08.024 0 .043.044.043.098 0 .054.028.136.062.181a.33.33 0 01.063.157c.001.041.02.075.044.075.023 0 .042.048.042.106 0 .059.017.107.038.107.02 0 .05.048.064.106.015.059.046.107.068.107.023 0 .042.048.042.106 0 .059.018.107.04.107.021 0 .05.038.066.085.026.083.064.085 1.293.085.817 0 1.267-.015 1.267-.042a.043.043 0 00-.042-.043c-.023 0-.042-.038-.042-.084 0-.093-.13-.398-.18-.42-.018-.008-.032-.06-.032-.117 0-.057-.02-.103-.042-.103-.024 0-.043-.027-.043-.06 0-.072-.133-.338-.18-.359-.017-.008-.032-.046-.033-.085a.328.328 0 00-.063-.154.323.323 0 01-.062-.16c0-.042-.02-.076-.043-.076-.023 0-.042-.046-.042-.102 0-.056-.028-.113-.063-.127-.035-.013-.064-.062-.064-.108 0-.047-.019-.096-.042-.11-.024-.015-.043-.074-.043-.131 0-.057-.019-.104-.042-.104-.023 0-.042-.037-.042-.083 0-.045-.019-.094-.041-.108-.045-.028-.147-.239-.191-.395-.016-.052-.046-.095-.067-.095-.022 0-.04-.049-.04-.107 0-.059-.019-.107-.042-.107-.023 0-.042-.047-.042-.106s-.019-.107-.042-.107c-.023 0-.053-.047-.068-.106-.015-.058-.043-.107-.064-.107-.021 0-.038-.046-.038-.102 0-.057-.015-.11-.033-.117-.018-.008-.099-.168-.179-.355-.08-.188-.16-.348-.178-.355-.018-.008-.033-.06-.033-.118 0-.056-.02-.102-.043-.102-.023 0-.042-.037-.042-.08a.198.198 0 00-.063-.134.198.198 0 01-.064-.132c0-.044-.019-.08-.042-.08-.023 0-.043-.048-.043-.107s-.017-.106-.039-.106-.051-.044-.066-.096c-.052-.187-.243-.602-.286-.621-.018-.008-.032-.06-.032-.117 0-.057-.015-.104-.033-.104-.018 0-.07-.095-.115-.212-.045-.118-.097-.213-.115-.213-.018 0-.033-.031-.033-.068a.617.617 0 00-.07-.203c-.127-.247-.142-.282-.142-.348a.105.105 0 00-.063-.09c-.035-.014-.064-.06-.064-.105s-.019-.08-.042-.08c-.023 0-.042-.038-.042-.084a.922.922 0 00-.106-.283.94.94 0 01-.106-.276c0-.041-.014-.081-.032-.09-.046-.02-.18-.286-.18-.358 0-.033-.019-.06-.042-.06-.023 0-.042-.048-.042-.106 0-.059-.019-.107-.042-.107-.022 0-.053-.048-.068-.106-.014-.059-.043-.107-.064-.107-.02 0-.038-.044-.038-.098a.355.355 0 00-.062-.181.33.33 0 01-.063-.158c-.001-.04-.02-.074-.044-.074-.023 0-.042-.048-.042-.106 0-.059-.017-.107-.038-.107-.02 0-.05-.048-.064-.106-.015-.059-.046-.107-.068-.107-.023 0-.042-.048-.042-.106 0-.059-.019-.107-.042-.107-.024 0-.043-.036-.043-.08a.198.198 0 00-.063-.133.195.195 0 01-.064-.13c0-.043-.019-.09-.042-.104-.023-.015-.042-.062-.042-.106a.238.238 0 00-.064-.144.25.25 0 01-.063-.152c0-.048-.02-.088-.042-.088-.024 0-.043-.048-.043-.107 0-.058-.018-.106-.041-.106-.023 0-.054-.048-.068-.106-.015-.059-.044-.107-.065-.107-.02 0-.037-.037-.037-.083 0-.045-.018-.093-.04-.107-.021-.013-.051-.081-.066-.151-.016-.07-.046-.127-.067-.127-.021 0-.039-.047-.039-.103 0-.057-.014-.11-.032-.117-.046-.021-.18-.288-.18-.359 0-.033-.019-.06-.042-.06-.023 0-.042-.03-.042-.067 0-.036-.076-.227-.17-.423a2.931 2.931 0 01-.169-.402c0-.025-.019-.045-.042-.045-.023 0-.043-.048-.043-.107s-.016-.106-.037-.106c-.021 0-.05-.048-.065-.107-.014-.058-.045-.106-.068-.106-.022 0-.041-.048-.041-.107 0-.058-.02-.106-.042-.106-.024 0-.043-.048-.043-.107 0-.058-.018-.106-.04-.106-.021 0-.051-.043-.067-.096-.054-.185-.163-.415-.197-.415-.019 0-.034-.04-.034-.089 0-.156-.101-.21-.397-.21-.238 0-.278.012-.302.086zm-.232 3.657a.239.239 0 00-.06-.146c-.082-.082-.11-.077-.11.019a.198.198 0 01-.063.133.198.198 0 00-.064.133c0 .044-.019.08-.042.08-.023 0-.043.033-.044.074a.33.33 0 01-.063.157.32.32 0 00-.062.157c0 .04-.015.08-.032.087-.046.02-.18.288-.18.359 0 .033-.019.06-.042.06-.024 0-.043.048-.043.107 0 .058-.017.106-.037.106-.021 0-.05.048-.065.107-.014.058-.045.106-.068.106-.023 0-.041.048-.041.107 0 .058-.017.106-.038.106-.02 0-.05.048-.064.107-.015.058-.045.106-.068.106-.023 0-.042.048-.042.107 0 .058-.019.106-.042.106-.023 0-.042.035-.042.077a.324.324 0 01-.063.16.358.358 0 00-.063.178c0 .053-.02.096-.044.096-.023 0-.042.027-.042.06 0 .072-.134.338-.18.359-.017.008-.032.04-.032.071 0 .068-.135.335-.18.355-.017.008-.031.05-.031.093 0 .044-.02.091-.043.106-.023.014-.042.06-.042.103a.195.195 0 01-.063.13.221.221 0 00-.064.152c0 .053-.014.104-.032.112-.046.02-.18.287-.18.358 0 .033-.019.06-.042.06-.023 0-.042.048-.042.107 0 .058-.019.106-.042.106-.023 0-.053.048-.068.107-.014.058-.043.106-.064.106-.02 0-.038.048-.038.107 0 .058-.018.106-.041.106-.023 0-.054.048-.068.107-.015.058-.045.106-.067.106-.023 0-.035.053-.028.117l.014.118 2.719.01c2.698.011 2.72.01 2.72-.074 0-.047-.02-.085-.043-.085-.023 0-.042-.048-.042-.107s-.017-.107-.038-.107c-.02 0-.05-.067-.065-.149-.016-.081-.046-.149-.069-.149-.022 0-.04-.047-.04-.106s-.019-.107-.042-.107c-.022 0-.053-.048-.068-.106-.014-.059-.043-.107-.064-.107-.02 0-.038-.047-.038-.106s-.019-.107-.042-.107c-.023 0-.042-.047-.042-.106s-.016-.107-.034-.107c-.02 0-.065-.071-.102-.16l-.143-.34c-.042-.1-.092-.181-.11-.181-.02 0-.035-.046-.035-.103 0-.057-.014-.11-.031-.117-.053-.024-.18-.292-.18-.38 0-.045-.02-.082-.042-.082-.024 0-.043-.038-.043-.085 0-.047-.017-.085-.039-.085-.021 0-.052-.062-.069-.138a.456.456 0 00-.056-.16 1.039 1.039 0 01-.174-.366c0-.033-.02-.06-.043-.06-.023 0-.042-.046-.042-.103 0-.056-.014-.11-.032-.117-.058-.026-.18-.297-.18-.401 0-.057-.017-.103-.037-.103-.021 0-.05-.048-.065-.107-.014-.058-.045-.106-.068-.106-.023 0-.041-.048-.041-.107 0-.058-.02-.106-.043-.106-.023 0-.042-.039-.042-.087 0-.047-.028-.097-.063-.11-.035-.014-.064-.071-.064-.127 0-.056-.019-.102-.042-.102-.023 0-.042-.04-.042-.088a.25.25 0 00-.064-.152.246.246 0 01-.063-.15zm67.854-3.679c-.03.033-.053.079-.053.102 0 .056-.141.32-.18.338-.018.008-.032.061-.032.118 0 .056-.019.103-.041.103-.023 0-.054.047-.069.106-.014.059-.043.106-.064.106-.02 0-.037.04-.037.089a.25.25 0 01-.064.152.238.238 0 00-.063.143c0 .044-.02.092-.043.106-.023.015-.042.062-.042.106 0 .043-.014.085-.032.093-.046.02-.18.287-.18.358 0 .034-.019.06-.042.06-.023 0-.042.047-.042.103 0 .056-.029.113-.064.126-.035.014-.063.064-.063.111 0 .048-.02.087-.043.087-.023 0-.042.048-.042.106 0 .059-.017.107-.038.107-.02 0-.05.048-.064.106-.015.059-.045.107-.068.107-.023 0-.042.057-.042.128 0 .07-.019.127-.042.127-.023 0-.042.037-.042.082a.239.239 0 01-.064.146.249.249 0 00-.063.153c0 .048-.017.088-.038.088-.02 0-.05.048-.064.106-.015.059-.046.107-.068.107-.023 0-.042.048-.042.106 0 .059-.019.107-.042.107-.023 0-.043.027-.043.06 0 .071-.133.338-.18.359-.017.008-.031.06-.031.117 0 .056-.018.103-.04.103-.02 0-.05.057-.066.127-.015.07-.045.138-.067.152-.021.013-.039.06-.039.103 0 .044-.014.086-.032.093-.044.02-.18.287-.18.355 0 .031-.014.063-.031.071-.046.02-.18.288-.18.359 0 .033-.019.06-.042.06-.023 0-.043.03-.043.067 0 .036-.076.227-.169.423-.093.196-.17.377-.17.402 0 .025-.018.045-.041.045-.024 0-.043.048-.043.107 0 .058-.019.106-.041.106-.023 0-.054.048-.068.107-.015.058-.044.106-.065.106-.02 0-.037.048-.037.107 0 .058-.02.106-.043.106-.023 0-.042.048-.042.107 0 .058-.019.106-.042.106-.022 0-.053.048-.068.107-.014.058-.043.106-.064.106-.02 0-.038.048-.038.107 0 .058-.018.106-.041.106-.023 0-.054.051-.07.113a2.776 2.776 0 01-.17.392 1.694 1.694 0 00-.142.334c0 .03-.019.055-.042.055-.023 0-.043.048-.043.107s-.018.107-.041.107c-.023 0-.053.047-.068.106-.015.058-.044.107-.064.107-.021 0-.038.041-.038.092 0 .05-.026.123-.058.16a1.208 1.208 0 00-.133.27c-.04.11-.091.202-.111.202-.02 0-.037.047-.037.106s-.019.107-.042.107c-.023 0-.042.047-.042.106s-.017.107-.038.107c-.02 0-.05.047-.065.106-.014.059-.045.107-.068.107-.022 0-.041.047-.041.106 0 .058-.02.106-.042.106-.024 0-.043.028-.043.06 0 .072-.133.339-.18.36-.017.007-.031.047-.031.087a.32.32 0 01-.062.156.358.358 0 00-.064.179c0 .052-.02.096-.044.096-.023 0-.042.036-.042.081 0 .045-.014.088-.032.096-.038.017-.18.282-.18.338a.846.846 0 01-.105.209.714.714 0 00-.106.233c0 .036-.02.065-.042.065-.024 0-.043.045-.043.101a.226.226 0 01-.063.154.226.226 0 00-.064.155c0 .055-.019.1-.042.1-.023 0-.042.049-.042.107 0 .059-.019.107-.042.107-.023 0-.053.048-.068.106-.015.059-.043.107-.064.107-.021 0-.038.048-.038.106 0 .059-.019.107-.041.107-.023 0-.054.048-.069.106-.014.059-.043.107-.064.107-.02 0-.038.048-.038.106 0 .059-.017.107-.037.107-.021 0-.05.048-.065.106-.014.059-.045.107-.068.107-.023 0-.041.048-.041.106 0 .059-.02.107-.043.107-.023 0-.042.041-.042.092s-.029.125-.064.164c-.036.04-.053.104-.038.142.023.06.108.07.612.07.548 0 .587-.005.612-.085.014-.047.044-.085.066-.085.022 0 .04-.048.04-.107 0-.058.016-.106.037-.106.021 0 .05-.048.065-.107.014-.058.045-.106.068-.106.022 0 .041-.048.041-.107 0-.058.02-.106.042-.106.024 0 .043-.04.043-.088a.25.25 0 01.063-.152.272.272 0 00.064-.168c0-.057.017-.103.037-.103.021 0 .05-.048.065-.107.014-.058.045-.106.068-.106.023 0 .041-.048.041-.107 0-.058.02-.106.043-.106.023 0 .042-.036.042-.08 0-.044.029-.104.064-.133a.198.198 0 00.063-.133c0-.044.019-.08.042-.08.023 0 .043-.048.043-.107 0-.058.019-.106.042-.106.023 0 .042-.037.042-.083 0-.045.019-.094.041-.108a.58.58 0 00.109-.183c.037-.087.094-.213.128-.28a.562.562 0 00.06-.18c0-.033.018-.06.039-.06.02 0 .05-.048.064-.107.014-.059.045-.107.068-.107.023 0 .041-.047.041-.106 0-.058.02-.107.043-.107.023 0 .042-.047.042-.106 0-.058.017-.106.038-.106.02 0 .05-.048.064-.107.015-.059.045-.106.068-.106.023 0 .042-.048.042-.107 0-.058.019-.106.042-.106.023 0 .042-.024.042-.053 0-.044.107-.292.253-.586.028-.056.444-.066 3.296-.075l3.265-.011v.088a.25.25 0 00.064.153.27.27 0 01.063.167c0 .057.017.104.038.104.02 0 .05.048.064.106.015.059.046.107.068.107.023 0 .042.048.042.106 0 .059.017.107.038.107.02 0 .05.047.064.106.014.059.045.107.068.107.023 0 .041.047.041.106s.02.107.043.107c.023 0 .042.04.042.088a.25.25 0 00.064.152.27.27 0 01.063.167c0 .057.02.104.042.104.024 0 .043.048.043.106 0 .059.018.107.041.107.023 0 .054.048.068.106.015.059.044.107.065.107.02 0 .037.047.037.106s.02.107.043.107c.023 0 .042.038.042.086 0 .048.029.098.064.111.039.015.063.08.063.17 0 .079.019.144.042.144.024 0 .043.026.043.058 0 .033.028.083.063.112.035.03.064.099.064.154 0 .056.019.102.042.102.023 0 .042.048.042.106 0 .059.019.107.042.107.023 0 .053.048.068.106.014.059.043.107.064.107.02 0 .038.033.04.074 0 .041.029.112.063.157a.323.323 0 01.062.16c0 .043.019.077.042.077.023 0 .043.046.043.103 0 .057.014.11.031.117.04.018.18.283.18.34 0 .023.027.07.06.103.05.05.281.061 1.291.061h1.23v-.128c0-.07-.016-.127-.037-.127-.02 0-.05-.048-.064-.107-.015-.058-.046-.106-.068-.106-.023 0-.042-.047-.042-.103 0-.057-.014-.11-.032-.117a.647.647 0 01-.11-.185 17.831 17.831 0 00-.18-.372.967.967 0 01-.101-.284c0-.045-.014-.089-.032-.096-.046-.021-.18-.288-.18-.359 0-.033-.019-.06-.042-.06-.023 0-.042-.048-.042-.107 0-.058-.019-.106-.042-.106-.023 0-.053-.048-.068-.107-.014-.058-.043-.106-.064-.106-.021 0-.038-.038-.038-.084 0-.093-.13-.398-.18-.42-.017-.008-.032-.06-.032-.117 0-.057-.019-.103-.042-.103-.023 0-.042-.04-.042-.087 0-.047-.029-.097-.064-.11-.035-.014-.063-.071-.063-.127 0-.056-.02-.102-.042-.102-.024 0-.043-.034-.044-.075a.33.33 0 00-.064-.157.323.323 0 01-.062-.16c0-.042-.019-.077-.042-.077-.023 0-.042-.036-.042-.08a.198.198 0 00-.064-.133.226.226 0 01-.063-.154c0-.056-.02-.101-.043-.101-.023 0-.042-.048-.042-.107 0-.058-.019-.106-.041-.106-.023 0-.054-.048-.069-.107-.014-.058-.043-.106-.064-.106-.02 0-.038-.048-.038-.107 0-.058-.019-.106-.042-.106-.023 0-.042-.037-.042-.082a.241.241 0 00-.064-.146.25.25 0 01-.063-.153c0-.048-.02-.088-.043-.088-.023 0-.042-.036-.042-.08a.198.198 0 00-.063-.133.198.198 0 01-.064-.133c0-.044-.019-.08-.042-.08-.023 0-.043-.048-.043-.106 0-.059-.019-.107-.042-.107-.023 0-.042-.02-.042-.046s-.057-.17-.127-.323a2.12 2.12 0 01-.127-.315c0-.022-.02-.04-.042-.04-.024 0-.043-.048-.043-.106 0-.059-.017-.107-.037-.107-.021 0-.05-.048-.065-.106-.014-.059-.045-.107-.068-.107-.023 0-.041-.048-.041-.106 0-.059-.02-.107-.043-.107-.023 0-.042-.04-.042-.088a.25.25 0 00-.064-.152.272.272 0 01-.063-.167c0-.057-.015-.104-.033-.104-.018 0-.07-.096-.115-.213-.045-.117-.097-.213-.115-.213-.018 0-.033-.048-.033-.106 0-.059-.017-.107-.038-.107-.02 0-.05-.048-.064-.106-.015-.059-.046-.107-.068-.107-.023 0-.042-.048-.042-.106 0-.059-.019-.107-.042-.107-.023 0-.043-.045-.043-.101a.226.226 0 00-.063-.154c-.035-.03-.064-.08-.064-.113a.73.73 0 00-.105-.228.684.684 0 01-.106-.255c0-.047-.02-.086-.042-.086-.024 0-.043-.026-.043-.057a.978.978 0 00-.106-.258.93.93 0 01-.105-.28c0-.043-.015-.085-.032-.093-.046-.02-.18-.288-.18-.359 0-.033-.019-.06-.042-.06-.023 0-.043-.036-.043-.08a.198.198 0 00-.063-.133.198.198 0 01-.064-.133c0-.044-.019-.08-.042-.08-.023 0-.042-.04-.042-.088a.25.25 0 00-.064-.152.272.272 0 01-.063-.168c0-.057-.02-.103-.043-.103-.023 0-.042-.048-.042-.107 0-.058-.017-.106-.038-.106-.02 0-.05-.048-.064-.107-.014-.058-.045-.106-.068-.106-.023 0-.041-.048-.041-.107 0-.058-.015-.106-.033-.106-.019 0-.07-.096-.116-.213-.045-.117-.096-.213-.115-.213-.018 0-.033-.046-.033-.101a.227.227 0 00-.063-.155.226.226 0 01-.064-.154c0-.056-.019-.101-.042-.101-.023 0-.042-.048-.042-.107 0-.058-.019-.106-.042-.106-.023 0-.053-.048-.068-.107-.014-.058-.043-.106-.064-.106-.021 0-.038-.048-.038-.107 0-.058-.019-.106-.042-.106-.023 0-.043-.034-.044-.075a.33.33 0 00-.063-.157.319.319 0 01-.063-.156c0-.04-.014-.08-.031-.088-.053-.023-.18-.292-.18-.38 0-.044-.02-.081-.042-.081-.024 0-.043-.039-.043-.085 0-.078-.028-.085-.307-.084-.21.001-.323.02-.36.062zm-.18 3.762c0-.043-.016-.077-.034-.077-.02 0-.055-.053-.08-.117-.026-.065-.049-.094-.051-.064-.002.029-.033.053-.068.053-.037 0-.064.04-.065.096 0 .053-.03.133-.063.178a.323.323 0 00-.063.16c0 .042-.019.077-.042.077-.023 0-.042.048-.042.107 0 .058-.017.106-.038.106-.02 0-.05.048-.064.107-.015.058-.045.106-.068.106-.023 0-.042.048-.042.106 0 .059-.019.107-.042.107-.023 0-.042.048-.042.106 0 .067-.024.107-.064.107s-.063.04-.063.106c0 .059-.02.107-.043.107-.023 0-.042.027-.042.06 0 .071-.134.338-.18.359-.017.008-.032.068-.032.135 0 .066-.014.127-.031.134-.046.021-.18.288-.18.359 0 .033-.017.06-.038.06-.02 0-.05.048-.064.107-.015.058-.046.106-.068.106-.023 0-.042.048-.042.107 0 .058-.019.106-.042.106-.023 0-.043.036-.043.08a.198.198 0 01-.063.133.198.198 0 00-.064.133c0 .044-.019.08-.042.08-.023 0-.042.048-.042.107 0 .058-.02.106-.042.106-.024 0-.043.021-.043.047 0 .025-.057.17-.127.322s-.127.294-.127.316c0 .021-.019.04-.042.04-.023 0-.042.022-.042.049 0 .08-.14.376-.178.376-.019 0-.034.048-.034.107 0 .058-.019.106-.042.106-.023 0-.043.048-.043.107 0 .058-.018.106-.041.106-.023 0-.054.048-.068.107-.015.058-.044.106-.064.106-.021 0-.038.035-.038.077 0 .042-.023.1-.05.127-.028.028-.036.065-.018.083.018.018 1.245.033 2.727.033h2.695l.013-.096a.315.315 0 00-.053-.19.375.375 0 01-.066-.171c0-.042-.02-.076-.043-.076-.023 0-.042-.046-.042-.103 0-.056-.014-.11-.032-.117-.046-.02-.18-.287-.18-.358 0-.034-.019-.06-.042-.06-.023 0-.042-.049-.042-.107 0-.059-.017-.107-.037-.107-.02 0-.08-.115-.132-.255-.053-.14-.112-.256-.133-.256-.02 0-.037-.048-.037-.106 0-.059-.019-.107-.042-.107-.023 0-.042-.048-.042-.106 0-.059-.017-.107-.038-.107-.02 0-.05-.048-.064-.106-.015-.059-.046-.107-.068-.107-.023 0-.042-.048-.042-.106 0-.059-.017-.107-.037-.107-.021 0-.05-.067-.066-.149-.015-.082-.046-.149-.068-.149-.022 0-.04-.022-.04-.05 0-.079-.14-.376-.178-.376-.019 0-.034-.048-.034-.106 0-.059-.02-.107-.042-.107-.024 0-.043-.048-.043-.106 0-.059-.015-.107-.034-.107-.036 0-.177-.295-.177-.37 0-.025-.029-.07-.064-.098a.198.198 0 01-.063-.133c0-.044-.02-.08-.043-.08-.023 0-.042-.048-.042-.107 0-.058-.017-.106-.039-.106-.021 0-.051-.058-.067-.128-.015-.07-.045-.128-.067-.128-.021 0-.039-.038-.039-.085 0-.047-.019-.085-.042-.085-.023 0-.043-.043-.044-.096a.359.359 0 00-.063-.178.323.323 0 01-.062-.16z" fill="#fff"/></svg>
