<svg width="165" height="46" fill="none" xmlns="http://www.w3.org/2000/svg"><path fill-rule="evenodd" clip-rule="evenodd" d="M125.307.024c-.039.04-.033 30.62.006 30.644.031.02.169-.112.169-.161 0-.029.069-.113.252-.307.084-.088.152-.17.152-.182 0-.013.045-.072.101-.133a.45.45 0 00.1-.144c0-.048.108-.15.159-.15.024 0 .043-.02.043-.044 0-.056.103-.16.159-.16.024 0 .043-.02.043-.044 0-.047.099-.16.14-.16a.436.436 0 00.123-.092l.218-.204a.595.595 0 01.145-.113c.042 0 .141-.113.141-.16 0-.024.036-.044.08-.044.044 0 .146-.064.226-.143.08-.078.172-.142.204-.142s.108-.046.168-.102c.059-.057.131-.102.159-.102.028 0 .051-.018.051-.04 0-.023.046-.052.101-.066.056-.014.101-.042.101-.062 0-.02.045-.037.101-.037.055 0 .101-.018.101-.04 0-.022.045-.051.101-.065.055-.014.101-.042.101-.062 0-.02.036-.037.08-.037.045 0 .081-.018.081-.04 0-.023.035-.041.078-.041a.62.62 0 00.211-.069c.246-.124.275-.135.339-.135a.215.215 0 00.125-.062.286.286 0 01.178-.06c.065 0 .119-.02.119-.042 0-.022.071-.04.159-.04.087 0 .17-.019.184-.041.013-.023.079-.041.145-.041a.836.836 0 00.265-.061 1.05 1.05 0 01.341-.062c.109 0 .197-.015.197-.034 0-.034.891-.103 1.332-.104.424 0 1.292.07 1.292.104 0 .019.127.034.283.034.155 0 .282.016.282.034 0 .038.362.125.656.157.106.012.192.038.192.058 0 .02.046.037.102.037a.8.8 0 01.247.061c.08.034.187.062.239.062.051 0 .103.015.115.035.012.02.095.047.184.062.089.014.162.044.162.066 0 .023.063.04.139.04.077 0 .149.017.161.037.013.02.082.047.154.059.236.04.515.127.515.159 0 .017.091.031.202.031.111 0 .202.016.202.034 0 .114 1.219.22 1.932.17.505-.037.934-.115.934-.17 0-.018.081-.034.181-.034.1 0 .182-.018.182-.04 0-.023.06-.041.134-.041a.415.415 0 00.212-.06.41.41 0 01.209-.061c.072-.001.131-.02.131-.043 0-.022.05-.041.111-.042a.515.515 0 00.212-.06.484.484 0 01.192-.06c.05 0 .091-.02.091-.042 0-.022.043-.04.096-.04a.56.56 0 00.212-.061.551.551 0 01.206-.062c.05 0 .091-.018.091-.04 0-.023.064-.042.142-.042.077 0 .141-.015.141-.035 0-.02.085-.045.19-.057.105-.012.197-.042.205-.067.009-.024.077-.045.153-.045s.138-.018.138-.04c0-.023.068-.042.151-.043a.615.615 0 00.253-.06.61.61 0 01.252-.06c.083 0 .151-.02.151-.042 0-.022.08-.04.177-.04a.993.993 0 00.322-.062c.079-.033.245-.06.368-.06s.223-.02.223-.042c0-.026.451-.04 1.272-.04.82 0 1.271.014 1.271.04 0 .023.087.041.192.042.105 0 .264.027.353.06.089.032.221.059.293.06.072 0 .131.02.131.042 0 .023.059.042.131.043.072 0 .167.028.21.06.043.034.12.06.171.06.052 0 .094.02.094.041 0 .023.059.042.131.043.072 0 .166.028.209.06.043.034.111.06.152.06.04 0 .073.02.073.042 0 .022.045.04.101.04.055 0 .1.019.1.041 0 .023.035.041.078.041a.23.23 0 01.139.061.21.21 0 00.124.062c.035 0 .063.016.063.036 0 .02.046.048.101.062.056.014.101.044.101.066 0 .022.027.04.061.04.067 0 .208.073.293.153.031.028.075.05.098.05.024 0 .072.035.108.076a.408.408 0 00.156.105c.05.016.091.046.091.067 0 .021.02.038.043.038.024 0 .069.023.1.052.121.11.178.153.2.153.014 0 .068.04.121.091.144.136.216.194.242.194.012 0 .277.258.589.574.478.483.581.569.655.545.049-.015.095-.043.102-.063.008-.02.038-.035.068-.035.03 0 .078-.023.108-.051.029-.028.124-.088.211-.133.275-.142.306-.161.306-.193 0-.017.046-.031.101-.031.056 0 .101-.018.101-.04 0-.02.068-.07.151-.11a.968.968 0 00.172-.094c.043-.05.242-.165.286-.165.026 0 .09-.046.141-.102.052-.056.131-.102.176-.102.046 0 .083-.018.083-.04 0-.023.034-.041.077-.041.042 0 .086-.028.099-.062.013-.033.06-.06.105-.06s.082-.02.082-.042c0-.022.028-.04.061-.04s.06-.018.06-.04c0-.023.046-.052.101-.066.056-.014.101-.042.101-.062 0-.02.037-.037.081-.037.044 0 .081-.017.081-.04 0-.022.045-.051.101-.065.055-.014.101-.042.101-.062 0-.02.027-.037.06-.037s.061-.018.061-.04c0-.023.037-.041.082-.041.045 0 .092-.028.105-.062.013-.033.058-.06.1-.06s.076-.014.076-.031c.001-.017.073-.066.162-.109.088-.043.161-.093.161-.112 0-.019.037-.034.082-.034.045 0 .092-.028.105-.062.013-.033.058-.06.1-.06s.076-.02.076-.042c0-.022.037-.04.081-.04.044 0 .081-.019.081-.041 0-.023.036-.041.08-.041.045 0 .081-.027.081-.061 0-.038.038-.062.101-.062.056 0 .101-.014.101-.03 0-.032.12-.106.252-.156.039-.015.071-.044.071-.063 0-.02.036-.036.081-.036.044 0 .08-.028.08-.062 0-.038.038-.06.101-.06.056 0 .101-.015.101-.032 0-.031.12-.105.252-.155.039-.015.071-.044.071-.064 0-.02.036-.036.081-.036.044 0 .081-.018.081-.04 0-.023.026-.041.057-.041a.188.188 0 00.111-.053.992.992 0 01.205-.124c.083-.04.151-.09.151-.11 0-.022.037-.04.081-.04.044 0 .081-.016.081-.036 0-.02.041-.047.091-.06a.492.492 0 00.18-.106c.049-.046.118-.084.154-.084.036 0 .09-.023.121-.05a1 1 0 01.312-.204c.083-.039.151-.09.151-.112 0-.023.045-.042.101-.042.055 0 .101-.018.101-.04 0-.023.034-.041.076-.041.042 0 .087-.028.1-.062.013-.033.06-.06.105-.06s.082-.02.082-.042c0-.022.027-.04.061-.04.033 0 .06-.018.06-.04 0-.023.046-.052.101-.066.056-.014.101-.042.101-.062 0-.02.028-.037.063-.037a.212.212 0 00.12-.05c.14-.127.181-.154.239-.154.034 0 .062-.016.062-.036 0-.02.046-.048.101-.062.056-.014.101-.044.101-.066 0-.022.037-.04.081-.04.044 0 .081-.018.081-.04 0-.023.027-.041.06-.041s.061-.017.061-.037c0-.02.045-.048.101-.062.055-.014.101-.043.101-.065 0-.023.045-.04.1-.04.063 0 .101-.024.101-.062 0-.034.036-.06.081-.06.045 0 .081-.015.081-.031.001-.017.073-.066.162-.11.088-.042.161-.093.161-.111 0-.02.045-.035.101-.035.055 0 .101-.018.101-.04 0-.023.019-.041.043-.041a.551.551 0 00.175-.102.485.485 0 01.199-.102c.045 0 .067-.035.067-.102 0-.064-.023-.102-.061-.102-.033 0-.06-.014-.06-.031-.001-.041-.234-.174-.306-.174-.032 0-.057-.014-.057-.03 0-.032-.12-.106-.253-.156-.039-.015-.07-.043-.07-.063 0-.02-.035-.036-.077-.036-.042 0-.087-.028-.099-.062-.013-.033-.061-.06-.106-.06s-.082-.015-.082-.032c0-.031-.119-.105-.252-.155-.039-.015-.071-.044-.071-.064 0-.02-.036-.035-.08-.035-.045 0-.081-.019-.081-.041 0-.023-.026-.041-.058-.041a.194.194 0 01-.111-.053.976.976 0 00-.204-.124c-.084-.04-.152-.09-.152-.11 0-.022-.036-.04-.08-.04-.045 0-.081-.016-.081-.036 0-.02-.046-.048-.101-.062-.056-.014-.101-.044-.101-.066 0-.022-.027-.04-.061-.04-.033 0-.06-.018-.06-.04 0-.023-.046-.041-.101-.041-.056 0-.101-.018-.101-.04 0-.023-.045-.052-.101-.066-.055-.014-.101-.038-.101-.053s-.063-.062-.141-.104c-.078-.042-.141-.092-.141-.111 0-.02-.046-.035-.101-.035-.056 0-.101-.016-.101-.036 0-.02-.046-.048-.101-.062-.056-.014-.101-.044-.101-.066 0-.022-.036-.04-.081-.04-.044 0-.08-.018-.08-.04 0-.023-.028-.041-.061-.041s-.061-.018-.061-.04c0-.022-.045-.052-.1-.066-.056-.014-.101-.042-.101-.062 0-.02-.037-.037-.082-.037-.046 0-.092-.024-.103-.054-.011-.03-.083-.079-.16-.11-.077-.03-.14-.068-.14-.084 0-.015-.045-.04-.101-.054-.055-.014-.101-.044-.101-.066 0-.022-.045-.04-.101-.04-.055 0-.1-.015-.1-.034 0-.019-.064-.069-.142-.111-.077-.043-.141-.091-.141-.109 0-.017-.037-.031-.082-.031-.045 0-.092-.028-.105-.062-.013-.033-.067-.06-.12-.06-.053 0-.097-.016-.097-.035 0-.02-.063-.07-.141-.112-.078-.042-.141-.09-.141-.108 0-.017-.046-.032-.101-.032-.056 0-.101-.016-.101-.036 0-.02-.045-.048-.101-.062-.055-.014-.101-.044-.101-.066 0-.022-.027-.04-.06-.04-.034 0-.061-.018-.061-.04 0-.023-.034-.041-.076-.041-.042 0-.087-.028-.1-.061-.013-.034-.06-.062-.105-.062s-.082-.018-.082-.04c0-.023-.028-.041-.061-.041s-.06-.018-.06-.04c0-.023-.046-.052-.101-.066-.056-.014-.101-.042-.101-.062 0-.02-.037-.037-.081-.037-.044 0-.081-.016-.081-.036 0-.02-.045-.048-.101-.062-.055-.014-.1-.044-.1-.066 0-.022-.028-.04-.061-.04s-.061-.018-.061-.04c0-.023-.036-.041-.082-.041-.045 0-.092-.028-.105-.061-.013-.034-.057-.062-.099-.062s-.077-.016-.077-.036c0-.02-.041-.047-.091-.06a.492.492 0 01-.18-.106.31.31 0 00-.171-.083c-.046 0-.083-.016-.083-.034 0-.02-.108-.088-.241-.154-.132-.065-.241-.142-.242-.17-.001-.028-.046-.05-.102-.05-.055 0-.101-.015-.101-.032 0-.031-.119-.105-.252-.155-.039-.015-.071-.043-.071-.063 0-.02-.036-.036-.081-.036-.044 0-.08-.018-.08-.04 0-.022-.046-.052-.101-.066-.056-.014-.101-.038-.102-.052 0-.014-.072-.061-.161-.104-.089-.043-.161-.093-.161-.112 0-.02-.036-.035-.081-.035-.044 0-.08-.016-.08-.036 0-.02-.046-.048-.101-.062-.056-.014-.101-.044-.101-.066 0-.022-.037-.04-.081-.04-.044 0-.081-.013-.081-.03s-.073-.066-.162-.109c-.088-.043-.161-.093-.161-.112 0-.019-.035-.034-.078-.034-.044 0-.094-.023-.111-.051a.475.475 0 00-.257-.154c-.024 0-.069-.023-.1-.05-.144-.13-.182-.154-.259-.154-.046 0-.083-.018-.083-.04 0-.023-.027-.041-.06-.041-.034 0-.061-.018-.061-.04 0-.022-.045-.052-.101-.066-.055-.014-.101-.042-.101-.062 0-.02-.034-.036-.076-.036-.042 0-.087-.028-.1-.062-.012-.033-.06-.06-.105-.06s-.082-.02-.082-.042c0-.022-.027-.04-.06-.04-.034 0-.061-.018-.061-.04 0-.022-.045-.052-.101-.066-.055-.014-.101-.042-.101-.062 0-.02-.036-.036-.081-.036-.044 0-.08-.017-.08-.037 0-.02-.046-.048-.101-.062-.056-.014-.101-.044-.101-.066 0-.022-.027-.04-.061-.04-.033 0-.06-.018-.06-.04 0-.023-.037-.041-.082-.041-.045 0-.093-.028-.105-.062-.013-.033-.058-.06-.1-.06s-.077-.02-.077-.042c0-.022-.027-.04-.06-.04s-.061-.018-.061-.04c0-.022-.045-.052-.101-.066-.055-.014-.1-.042-.1-.062 0-.02-.038-.036-.084-.036a.24.24 0 01-.14-.052c-.134-.12-.179-.152-.219-.152a.042.042 0 01-.042-.041c0-.023-.037-.041-.082-.041-.045 0-.092-.028-.105-.061-.013-.034-.067-.062-.12-.062-.053 0-.096-.014-.096-.031 0-.018-.064-.066-.142-.109-.077-.042-.141-.092-.141-.11 0-.02-.045-.035-.101-.035-.055 0-.101-.018-.101-.04 0-.022-.045-.052-.101-.066-.055-.014-.101-.042-.101-.062 0-.02-.019-.037-.043-.037a.551.551 0 01-.175-.101.492.492 0 00-.199-.103c-.037 0-.067-.016-.067-.036 0-.02-.046-.048-.101-.062-.056-.014-.101-.044-.101-.066 0-.022-.027-.04-.06-.04-.034 0-.061-.018-.061-.04 0-.023-.036-.041-.081-.041-.044 0-.08-.019-.08-.041 0-.023-.026-.04-.058-.04a.196.196 0 01-.112-.052 1.192 1.192 0 00-.204-.129c-.083-.043-.151-.093-.151-.112 0-.019-.037-.034-.081-.034-.044 0-.081-.017-.081-.037 0-.02-.045-.048-.101-.062-.055-.014-.101-.043-.101-.065 0-.023-.045-.04-.1-.04-.056 0-.101-.019-.101-.041 0-.023-.02-.041-.044-.041-.023 0-.068-.023-.099-.051-.139-.126-.181-.153-.234-.153a.158.158 0 01-.104-.057.555.555 0 00-.177-.11.873.873 0 01-.179-.097 20.02 20.02 0 00-.109-.094.256.256 0 00-.143-.05c-.045 0-.082-.019-.082-.041 0-.023-.027-.041-.061-.041-.033 0-.06-.018-.06-.04 0-.022-.045-.052-.101-.066-.055-.014-.101-.042-.101-.062 0-.02-.034-.036-.076-.036-.042 0-.087-.028-.1-.062-.013-.033-.06-.06-.105-.06s-.082-.02-.082-.042c0-.022-.027-.04-.061-.04-.033 0-.06-.018-.06-.04 0-.022-.046-.052-.101-.066-.056-.014-.101-.042-.101-.062 0-.02-.036-.036-.081-.036-.044 0-.081-.017-.081-.037 0-.02-.041-.047-.091-.06a.491.491 0 01-.18-.106c-.049-.046-.117-.083-.152-.083a.101.101 0 01-.087-.061c-.013-.034-.057-.062-.099-.062s-.077-.013-.077-.03c-.001-.017-.073-.066-.162-.109-.088-.043-.161-.093-.161-.112 0-.019-.045-.034-.101-.034-.055 0-.101-.015-.101-.032s-.068-.068-.151-.112a1.31 1.31 0 01-.171-.102c-.055-.06-.247-.162-.302-.162-.034 0-.062-.014-.062-.032 0-.03-.119-.105-.252-.155-.039-.015-.071-.043-.071-.063 0-.02-.036-.036-.08-.036-.045 0-.081-.018-.081-.04 0-.022-.046-.052-.101-.066-.056-.014-.101-.037-.101-.052-.001-.014-.073-.061-.162-.104-.088-.043-.161-.093-.161-.112 0-.019-.036-.034-.081-.034-.044 0-.08-.017-.08-.037 0-.02-.046-.048-.101-.062-.056-.014-.101-.044-.101-.066 0-.022-.027-.04-.061-.04-.033 0-.06-.018-.06-.04 0-.023-.046-.041-.101-.041-.056 0-.101-.017-.101-.038 0-.021-.041-.051-.091-.067a.316.316 0 01-.111-.054c-.041-.051-.363-.25-.406-.25-.024 0-.069-.022-.1-.05-.144-.13-.182-.154-.259-.154-.046 0-.083-.018-.083-.04 0-.023-.027-.041-.06-.041s-.061-.018-.061-.04c0-.022-.045-.052-.101-.066-.055-.014-.101-.04-.101-.057 0-.018-.045-.044-.1-.058-.056-.014-.101-.041-.101-.06 0-.02-.059-.06-.132-.09a.713.713 0 01-.184-.107.188.188 0 00-.111-.053c-.032 0-.058-.018-.058-.04 0-.023-.036-.041-.081-.041-.044 0-.08-.014-.08-.032 0-.03-.12-.104-.253-.155-.038-.015-.07-.043-.07-.063 0-.02-.037-.036-.082-.036-.045 0-.093-.028-.105-.061a.101.101 0 00-.086-.062.489.489 0 01-.195-.102.551.551 0 00-.175-.102.042.042 0 01-.043-.04c0-.023-.046-.041-.101-.041-.056 0-.101-.015-.101-.032s-.068-.068-.152-.112a1.307 1.307 0 01-.171-.102c-.046-.05-.243-.163-.283-.163-.024 0-.083-.037-.132-.083a.492.492 0 00-.18-.106c-.05-.013-.091-.04-.091-.06 0-.02-.037-.036-.081-.036-.044 0-.081-.018-.081-.04 0-.022-.045-.052-.101-.066-.055-.014-.101-.042-.101-.062 0-.02-.027-.036-.06-.036s-.061-.018-.061-.04c0-.022-.045-.052-.101-.066-.055-.014-.101-.042-.101-.062 0-.02-.036-.036-.08-.036-.045 0-.081-.017-.081-.037 0-.02-.045-.048-.101-.062-.055-.014-.101-.044-.101-.066 0-.022-.027-.04-.06-.04-.034 0-.061-.018-.061-.04 0-.023-.028-.041-.062-.041-.054 0-.245-.103-.301-.163a1.327 1.327 0 00-.172-.099c-.083-.043-.151-.093-.151-.112 0-.019-.038-.034-.084-.034a.24.24 0 01-.14-.051c-.14-.127-.18-.153-.239-.153-.034 0-.062-.019-.062-.041 0-.023-.036-.041-.081-.041-.044 0-.08-.017-.08-.038 0-.021-.041-.051-.091-.067a.32.32 0 01-.111-.054.835.835 0 00-.253-.153c-.038-.013-.07-.04-.07-.06 0-.02-.036-.036-.081-.036-.044 0-.081-.018-.081-.04 0-.022-.045-.052-.101-.066-.055-.014-.1-.042-.1-.062 0-.02-.037-.036-.081-.036-.045 0-.081-.014-.081-.032 0-.03-.12-.104-.252-.155-.039-.015-.071-.043-.071-.063 0-.02-.026-.036-.058-.036a.194.194 0 01-.111-.053 1.14 1.14 0 00-.208-.132 26.73 26.73 0 01-.232-.12c-.042-.023-.077-.055-.077-.072 0-.017-.045-.031-.101-.031-.055 0-.101-.019-.101-.042 0-.023-.068-.073-.151-.112a1.336 1.336 0 01-.201-.112 15.4 15.4 0 01-.109-.092.211.211 0 00-.104-.05.637.637 0 01-.193-.103.626.626 0 00-.2-.102c-.028 0-.051-.018-.051-.04 0-.023-.036-.041-.081-.041-.044 0-.08-.018-.08-.04 0-.022-.046-.052-.101-.066-.056-.014-.101-.042-.101-.062 0-.02-.028-.036-.061-.036s-.06-.017-.06-.037c0-.02-.046-.048-.101-.062-.056-.014-.101-.043-.101-.065 0-.022-.037-.04-.081-.04-.044 0-.081-.014-.081-.032 0-.03-.119-.105-.252-.155-.039-.015-.071-.043-.071-.063 0-.02-.037-.036-.082-.036-.045 0-.092-.028-.105-.061-.013-.034-.057-.062-.1-.062-.042 0-.076-.018-.076-.04 0-.023-.027-.041-.06-.041-.034 0-.061-.017-.061-.037 0-.02-.045-.048-.101-.062-.055-.014-.101-.043-.101-.065 0-.022-.037-.04-.082-.04-.077 0-.116-.023-.259-.153-.031-.029-.076-.051-.1-.051a.042.042 0 01-.043-.041c0-.023-.034-.041-.076-.041a.186.186 0 01-.126-.061.186.186 0 00-.126-.062c-.042 0-.076-.018-.076-.04a.042.042 0 00-.043-.041.53.53 0 01-.175-.102.492.492 0 00-.199-.102c-.037 0-.067-.018-.067-.04 0-.022-.046-.052-.101-.066-.056-.014-.101-.042-.101-.062 0-.02-.027-.036-.061-.036-.033 0-.06-.019-.06-.041 0-.023-.035-.041-.077-.041-.042 0-.086-.028-.099-.061-.013-.034-.06-.062-.106-.062-.045 0-.081-.016-.081-.036 0-.02-.046-.048-.101-.062-.056-.014-.101-.044-.101-.066 0-.022-.028-.04-.061-.04s-.06-.018-.06-.04c0-.023-.037-.041-.081-.041-.045 0-.081-.018-.081-.04 0-.022-.045-.052-.101-.066-.055-.014-.101-.042-.101-.062 0-.02-.035-.036-.078-.036-.044 0-.128-.046-.188-.102-.06-.057-.133-.102-.163-.102-.031 0-.055-.019-.055-.041 0-.023-.027-.041-.059-.041a.594.594 0 01-.207-.102c-.158-.108-.189-.118-.232-.075zm23.385 18.221c.145.023.399.059.565.08.499.061 1.047.187 1.115.256.016.016.081.03.143.03.063 0 .115.017.115.038 0 .022.063.051.141.066.078.015.141.043.141.063 0 .02.046.037.101.037.056 0 .101.018.101.04 0 .023.044.041.098.041.054 0 .125.028.159.061a.233.233 0 00.144.062c.046 0 .084.016.084.036 0 .02.045.048.101.062.055.014.1.044.1.066 0 .022.028.04.061.04s.061.018.061.04c0 .023.027.041.06.041.056 0 .222.138.222.184 0 .011-.041.021-.091.022a.335.335 0 00-.169.061.303.303 0 01-.151.06c-.04 0-.073.018-.073.04 0 .023-.028.041-.061.041s-.06.019-.06.041c0 .023-.026.041-.057.041-.053 0-.912.828-.912.879 0 .03-.068.112-.252.308-.084.088-.152.17-.152.182a.547.547 0 01-.101.133c-.055.06-.101.133-.101.161 0 .028-.019.052-.043.052-.046 0-.158.1-.158.141 0 .014-.041.07-.091.124-.129.14-.192.218-.192.24 0 .01-.064.088-.141.17-.078.084-.142.168-.142.188 0 .019-.027.035-.06.035-.034 0-.061.036-.061.081 0 .045-.018.082-.04.082-.022 0-.04.027-.04.061a.062.062 0 01-.061.061c-.033 0-.061.02-.061.043 0 .024-.04.085-.09.137-.156.16-.313.35-.313.375 0 .013-.082.104-.182.203-.1.098-.181.187-.181.199 0 .023-.232.288-.455.519-.083.086-.151.175-.151.198 0 .022-.019.04-.042.04-.024 0-.132.088-.241.195-.236.231-.311.296-.344.296a.752.752 0 00-.157.142c-.074.079-.161.143-.194.143s-.093.045-.134.1a.369.369 0 01-.167.123c-.051.013-.093.042-.093.064s-.028.04-.061.04-.061.018-.061.04c0 .023-.045.041-.1.041-.056 0-.101.014-.102.031 0 .041-.233.174-.305.174-.032 0-.058.018-.058.04 0 .023-.052.041-.116.041s-.139.028-.166.061a.212.212 0 01-.144.062c-.052 0-.105.018-.119.04-.013.023-.073.042-.133.043a.515.515 0 00-.21.06.614.614 0 01-.252.06c-.083 0-.151.017-.151.038 0 .02-.096.047-.212.06-.117.012-.357.04-.535.061-.427.053-1.828.052-2.361 0a30.888 30.888 0 00-.717-.063c-.161-.01-.293-.037-.293-.058 0-.02-.027-.037-.06-.037-.043 0-.061-.043-.061-.145 0-.134.018-.173.152-.323.027-.031.05-.077.05-.1 0-.025.016-.045.036-.045.02 0 .047-.045.061-.102.014-.056.044-.102.065-.102.022 0 .04-.019.04-.042 0-.04.031-.086.151-.221.028-.032.051-.077.051-.101 0-.024.014-.044.031-.044s.065-.064.107-.143c.042-.078.092-.143.11-.143.019 0 .034-.019.034-.042 0-.04.032-.086.152-.221a.229.229 0 00.05-.08 1 1 0 01.152-.184c.184-.196.252-.278.252-.308 0-.03 1.001-1.042 1.03-1.042.022 0 .08-.045.199-.153.031-.028.076-.051.1-.051.024 0 .043-.028.043-.062 0-.033.019-.06.042-.06.04 0 .086-.033.219-.154.031-.028.076-.05.1-.05.023 0 .043-.02.043-.042 0-.022.019-.04.042-.04.04 0 .085-.032.219-.154.031-.028.068-.05.082-.05.014 0 .051-.023.082-.052.144-.13.182-.153.259-.153.046 0 .083-.018.083-.04 0-.023.027-.041.06-.041.034 0 .061-.014.061-.031.001-.041.234-.173.306-.173.031 0 .057-.018.057-.04 0-.023.046-.052.101-.066.056-.014.101-.042.101-.062 0-.02.026-.037.057-.037.032 0 .063-.013.071-.03.019-.044.272-.174.34-.174.031 0 .057-.018.057-.04 0-.023.033-.041.073-.041.04 0 .108-.027.151-.06a.309.309 0 01.149-.061c.039-.001.071-.02.071-.043 0-.022.045-.04.101-.04.055 0 .101-.017.101-.038 0-.02.054-.05.121-.064.066-.015.121-.044.121-.065 0-.02.044-.038.098-.038.055 0 .109-.016.122-.037.013-.02.077-.05.144-.065.066-.014.12-.043.12-.064 0-.02.064-.038.142-.038.077 0 .141-.016.141-.036 0-.02.063-.048.141-.063.078-.015.141-.044.141-.066 0-.021.064-.039.142-.039.077 0 .141-.018.141-.04 0-.023.052-.041.116-.041s.139-.028.166-.061c.028-.034.112-.062.187-.062s.136-.018.136-.04c0-.023.059-.042.132-.043a.41.41 0 00.209-.06.457.457 0 01.232-.06c.085 0 .154-.02.154-.042 0-.022.072-.04.159-.04.088 0 .169-.017.181-.036.012-.02.076-.047.144-.06.067-.014.121-.044.121-.067 0-.026-.218-.042-.605-.042-.333 0-.605.017-.605.036 0 .02-.173.05-.384.065-.211.016-.393.046-.406.066-.012.02-.149.037-.303.037-.16 0-.28.018-.28.041 0 .023-.087.041-.194.041a.563.563 0 00-.273.06.499.499 0 01-.247.061c-.093.001-.18.02-.194.042-.014.023-.086.041-.161.041-.075 0-.163.028-.197.061-.036.037-.135.062-.245.062-.101 0-.184.018-.184.04 0 .023-.03.041-.066.041-.09 0-.476.136-.493.174-.007.017-.066.03-.131.03s-.118.019-.118.041c0 .023-.032.041-.073.041a.303.303 0 00-.151.06.335.335 0 01-.169.061c-.05.001-.091.02-.091.042 0 .022-.045.051-.101.065-.055.014-.101.042-.101.062 0 .02-.036.037-.081.037-.044 0-.08.018-.08.04 0 .023-.044.041-.097.041-.053 0-.107.028-.12.061-.013.034-.06.062-.105.062s-.082.018-.082.04a.041.041 0 01-.042.041c-.04 0-.085.032-.219.153-.031.029-.076.052-.099.052-.024 0-.044.018-.044.04 0 .023-.024.041-.054.041s-.092.033-.139.074a3.35 3.35 0 01-.192.153 2.07 2.07 0 00-.161.13c-.029.028-.064.051-.078.051-.033 0-1.152 1.13-1.152 1.164 0 .042-.111.143-.158.143-.024 0-.044.023-.044.05 0 .03-.045.102-.1.163a.52.52 0 00-.101.134c0 .013-.046.07-.101.126-.056.056-.101.116-.101.133s-.032.068-.071.113c-.094.108-.212.334-.212.406 0 .032-.018.058-.04.058-.022 0-.04.022-.04.049a.941.941 0 01-.085.224c-.072.152-.094.17-.161.134-.056-.03-.077-.086-.077-.204 0-.09-.019-.162-.041-.162-.025 0-.04-.3-.04-.816 0-.517.015-.817.04-.817.022 0 .041-.069.042-.153a.631.631 0 01.059-.255.492.492 0 00.059-.194c.001-.05.02-.092.042-.092.022 0 .04-.046.04-.102 0-.056.018-.102.04-.102.022 0 .051-.046.065-.102.014-.056.041-.102.061-.102.02 0 .036-.037.036-.081 0-.045.018-.082.04-.082.022 0 .051-.046.065-.102.014-.056.041-.102.061-.102.02 0 .036-.02.036-.043 0-.023.046-.092.101-.152a.44.44 0 00.101-.144c0-.048.885-.927.933-.927.021 0 .089-.05.151-.112.129-.129.238-.206.339-.24.039-.014.07-.04.07-.06 0-.02.037-.037.081-.037.045 0 .081-.018.081-.04 0-.023.027-.041.06-.041.034 0 .061-.018.061-.04 0-.022.045-.052.101-.066.055-.014.101-.042.101-.062 0-.02.026-.036.057-.036.067 0 .32-.13.34-.174.007-.017.055-.03.106-.03a.21.21 0 00.143-.062.21.21 0 01.146-.06c.053 0 .096-.02.096-.042 0-.022.063-.04.141-.04.078 0 .141-.015.141-.032 0-.035.303-.125.535-.16.084-.011.152-.035.152-.052 0-.017.102-.042.227-.055.126-.013.247-.043.271-.066.023-.024.156-.044.294-.044.139 0 .262-.016.274-.035.012-.02.208-.048.436-.062.228-.015.524-.042.657-.06.353-.05 2.014-.052 2.321-.003zm-12.755.403c0 .021.041.052.091.067.104.034.595.537.595.61 0 .028.045.084.101.126.055.042.101.11.101.15 0 .041.045.124.101.184.055.06.101.134.101.162 0 .028.016.051.036.051.019 0 .047.046.061.102.014.056.043.102.065.102.022 0 .039.028.039.062 0 .033.019.06.041.06.022 0 .04.035.04.077 0 .043.027.1.061.128.033.028.06.076.06.107 0 .03.018.056.041.056.022 0 .04.046.04.102 0 .056.016.102.036.102.02 0 .047.046.061.102.014.056.043.102.065.102.022 0 .04.022.04.048 0 .076.133.36.169.36.018 0 .033.036.033.079 0 .043.013.084.03.092.05.022.171.28.171.364 0 .043.019.078.041.078.022 0 .041.032.041.071.001.04.028.107.061.151a.306.306 0 01.059.153c0 .04.018.074.041.074.022 0 .04.037.04.082 0 .082.009.108.134.36a.626.626 0 01.068.214c0 .043.018.079.04.079.022 0 .041.044.041.099 0 .054.027.126.06.16s.061.127.061.207c0 .08.018.146.04.146.022 0 .04.053.04.117a.86.86 0 00.061.264.85.85 0 01.06.263c0 .063.017.133.038.154.081.085.16 2.08.085 2.155-.023.024-.042.114-.042.201 0 .161-.088.3-.161.255a.112.112 0 01-.041-.085c0-.032-.018-.059-.04-.059-.022 0-.04-.062-.04-.138a.647.647 0 00-.061-.255.644.644 0 01-.06-.247c0-.072-.019-.142-.041-.155-.022-.014-.04-.087-.04-.162a.659.659 0 00-.06-.252.634.634 0 01-.061-.25c0-.073-.018-.133-.041-.133-.022 0-.04-.073-.04-.163 0-.09-.016-.163-.036-.163-.019 0-.048-.083-.063-.184-.015-.1-.044-.183-.065-.183-.021 0-.038-.065-.038-.143 0-.079-.018-.143-.04-.143-.022 0-.041-.041-.042-.092a.353.353 0 00-.06-.171.338.338 0 01-.06-.174c0-.051-.018-.094-.04-.094-.022 0-.04-.044-.04-.099a.263.263 0 00-.061-.16.24.24 0 01-.06-.146c0-.047-.019-.085-.041-.085-.022 0-.04-.046-.04-.102 0-.056-.018-.102-.04-.102-.022 0-.051-.046-.065-.102-.014-.056-.041-.102-.061-.102-.02 0-.036-.046-.036-.102 0-.056-.018-.102-.04-.102-.023 0-.041-.034-.041-.077a.19.19 0 00-.06-.127.188.188 0 01-.061-.128c0-.042-.018-.076-.04-.076-.022 0-.041-.037-.041-.082 0-.045-.017-.081-.037-.081-.021 0-.051-.042-.066-.092a.35.35 0 00-.053-.113.966.966 0 01-.102-.173c-.043-.084-.093-.153-.111-.153-.019 0-.034-.037-.034-.082 0-.045-.016-.081-.036-.081-.02 0-.048-.046-.062-.102-.014-.056-.043-.102-.064-.102-.022 0-.04-.028-.04-.062 0-.033-.018-.06-.04-.06-.023 0-.041-.024-.041-.052 0-.029-.045-.101-.101-.162-.055-.06-.101-.128-.101-.15 0-.023-.045-.087-.101-.143-.055-.056-.1-.12-.1-.142 0-.073-.497-.617-.564-.617a.042.042 0 01-.042-.042c0-.023-.111-.152-.246-.286l-.247-.244.003-.247c.004-.23.014-.258.16-.403a.909.909 0 01.243-.184c.048-.016.087-.046.087-.067 0-.02.091-.038.202-.038.111 0 .202.018.202.038zm10.475 10.235c-.156.01-.3.035-.321.057-.021.021-.159.038-.306.038-.148 0-.282.014-.298.031-.029.03-.397.11-.72.16-.084.012-.152.037-.152.055 0 .017-.077.04-.171.05a1.67 1.67 0 00-.524.159.448.448 0 01-.162.037.338.338 0 00-.17.06.331.331 0 01-.171.06c-.051 0-.093.02-.093.042 0 .022-.064.04-.142.04-.077 0-.141.016-.141.036 0 .02-.073.047-.161.062-.089.014-.162.044-.162.066 0 .022-.063.04-.141.04-.078 0-.141.019-.141.041 0 .023-.061.041-.134.041a.411.411 0 00-.212.06.405.405 0 01-.207.061c-.071.001-.14.02-.154.042-.014.023-.085.041-.159.041-.073 0-.211.028-.305.062-.097.034-.31.06-.49.06-.201 0-.317.017-.317.045 0 .03-.084.037-.253.021l-.656-.056c-.222-.018-.443-.055-.491-.082a.71.71 0 00-.273-.05c-.101 0-.184-.018-.184-.04 0-.023-.083-.041-.185-.041-.11 0-.209-.025-.245-.062-.033-.033-.132-.06-.219-.06s-.158-.02-.158-.042c0-.022-.081-.04-.18-.04-.098 0-.19-.018-.203-.039-.012-.021-.105-.05-.204-.066-.1-.015-.191-.044-.204-.063-.012-.02-.102-.037-.201-.037-.098 0-.179-.018-.179-.04 0-.023-.055-.041-.122-.041a.84.84 0 01-.268-.061.98.98 0 00-.319-.062c-.096 0-.186-.018-.199-.04-.014-.023-.111-.041-.216-.041s-.296-.028-.424-.061c-.185-.05-.519-.062-1.641-.062-1.122 0-1.456.013-1.641.062a1.981 1.981 0 01-.406.06c-.095 0-.173.02-.173.041 0 .023-.083.041-.185.041-.11 0-.209.025-.245.062a.253.253 0 01-.158.06c-.054 0-.098.02-.098.042 0 .022-.045.04-.099.04-.054 0-.11.019-.123.041-.014.023-.061.041-.104.041s-.078.018-.078.04c0 .022-.045.052-.101.066-.055.014-.101.042-.101.062 0 .02-.037.036-.082.036-.045 0-.092.028-.105.061-.013.034-.049.062-.079.062-.031 0-.057.018-.057.04 0 .023-.036.041-.08.041-.045 0-.081.027-.081.062 0 .033-.019.06-.042.06-.024 0-.086.042-.14.093-.142.134-.216.193-.24.193-.029 0-.951.934-.951.963 0 .013-.022.048-.05.08-.12.135-.151.181-.151.221 0 .024-.02.043-.044.043-.047 0-.158.1-.158.143 0 .014-.023.051-.051.083-.12.135-.151.18-.151.221 0 .023-.018.043-.04.043-.023 0-.041.032-.042.07 0 .04-.045.116-.1.169-.056.052-.101.128-.101.169 0 .04-.027.083-.06.096-.034.013-.061.06-.061.106s-.018.083-.04.083c-.022 0-.04.02-.04.044 0 .024-.023.07-.051.1-.131.148-.151.187-.151.283 0 .057-.018.104-.041.104-.022 0-.04.035-.04.077 0 .042-.027.1-.061.127a.213.213 0 00-.06.145c0 .051-.014.1-.03.107-.05.022-.172.28-.172.361 0 .042-.018.088-.04.102-.023.013-.041.065-.042.114a.34.34 0 01-.061.169.346.346 0 00-.059.173c0 .052-.016.095-.036.095-.02 0-.045.069-.055.153a2.888 2.888 0 01-.089.377 2.75 2.75 0 00-.09.398c-.011.096-.037.174-.057.174-.02 0-.036.07-.036.158 0 .087-.027.236-.061.332a1.36 1.36 0 00-.06.37c0 .108-.016.206-.034.218-.019.011-.046.188-.061.392-.014.204-.044.405-.066.448-.023.042-.041.298-.041.569 0 .301-.016.492-.04.492-.027 0-.041.572-.041 1.633 0 1.062.014 1.633.041 1.633.024 0 .04.191.04.492 0 .271.019.528.041.571.023.043.053.253.067.467.014.214.041.389.06.389.018 0 .034.096.034.214s.028.304.061.415c.033.11.06.28.06.377 0 .098.018.177.04.177.022 0 .041.081.041.18 0 .1.011.21.024.245.027.07.177.09.177.024 0-.022.025-.04.056-.04s.078-.028.106-.062a.187.187 0 01.126-.061c.042 0 .076-.018.076-.04 0-.023.027-.042.06-.042.034 0 .061-.016.061-.036 0-.02.045-.048.101-.062.055-.014.101-.044.101-.066 0-.022.036-.04.08-.04.045 0 .081-.014.082-.03 0-.017.073-.066.161-.109.089-.043.161-.091.161-.108 0-.016.045-.041.101-.055.055-.014.101-.044.101-.066 0-.022.036-.04.081-.04.044 0 .08-.018.08-.04 0-.023.019-.041.042-.041a.78.78 0 00.201-.103.66.66 0 01.221-.102c.033 0 .061-.015.061-.034 0-.019.073-.07.161-.112.089-.043.161-.092.162-.109 0-.017.025-.03.056-.03.03 0 .078-.028.105-.062a.189.189 0 01.127-.06c.041 0 .075-.02.075-.042 0-.022.028-.04.061-.04s.06-.018.06-.04c0-.023.046-.052.101-.066.056-.014.101-.042.101-.062 0-.02.037-.037.081-.037.044 0 .081-.016.081-.036 0-.02.045-.048.101-.062.055-.014.101-.044.101-.066 0-.022.027-.04.06-.04s.061-.016.061-.036c0-.02.045-.048.101-.062.055-.014.1-.044.1-.066 0-.022.037-.04.081-.04.045 0 .081-.016.081-.036 0-.02.045-.048.101-.062.055-.014.101-.044.101-.066 0-.022.027-.04.06-.04.034 0 .061-.018.061-.04 0-.023.045-.041.101-.041.055 0 .101-.019.101-.04 0-.023.045-.052.101-.066.055-.014.101-.038.101-.053s.063-.062.141-.104c.078-.042.141-.092.141-.111 0-.02.045-.035.101-.035.055 0 .101-.015.101-.034 0-.019.072-.07.161-.112.088-.043.161-.092.161-.109.001-.017.037-.03.082-.03.044 0 .08-.018.08-.04 0-.023.046-.052.101-.066.056-.014.101-.04.101-.058 0-.017.046-.043.101-.057.056-.014.101-.044.101-.066 0-.022.027-.04.061-.04.033 0 .06-.018.06-.04 0-.023.036-.042.081-.042.044 0 .081-.018.081-.04 0-.022.045-.051.1-.065.056-.014.101-.042.101-.062 0-.02.037-.037.083-.037.045 0 .131-.046.191-.102.06-.056.132-.102.16-.102.028 0 .051-.016.051-.036 0-.02.045-.048.101-.062.055-.014.101-.044.101-.066 0-.022.045-.04.1-.04.056 0 .101-.015.101-.034 0-.02.064-.07.142-.112.077-.042.141-.09.141-.108 0-.017.045-.032.101-.032.055 0 .101-.015.101-.034 0-.019.068-.07.151-.112.083-.043.161-.088.172-.1.056-.06.247-.162.301-.162.034 0 .062-.018.062-.04 0-.023.027-.041.061-.041.033 0 .06-.019.06-.04 0-.023.045-.052.101-.066.056-.014.101-.042.101-.062 0-.02.036-.037.081-.037.044 0 .08-.016.08-.036 0-.02.046-.048.101-.062.056-.014.101-.044.101-.066 0-.022.027-.04.061-.04.033 0 .06-.016.06-.036 0-.02.046-.048.101-.062.056-.014.101-.044.101-.066 0-.022.036-.04.081-.04.044 0 .081-.014.081-.03 0-.032.119-.106.252-.156.039-.015.071-.044.071-.063 0-.02.027-.036.061-.036.055 0 .247-.104.302-.163.011-.012.088-.058.171-.102.084-.045.152-.095.152-.112s.037-.032.083-.032a.24.24 0 00.14-.05c.14-.128.181-.154.239-.154.034 0 .062-.018.062-.04 0-.023.037-.041.081-.041.045 0 .081-.018.081-.038 0-.021.041-.051.091-.067a.32.32 0 00.111-.054.816.816 0 01.252-.154c.039-.013.071-.04.071-.06 0-.02.036-.036.08-.036.045 0 .081-.018.081-.04 0-.022.046-.051.101-.065.056-.014.101-.042.101-.062 0-.02.027-.037.061-.037.033 0 .06-.018.06-.04 0-.023.034-.041.076-.041a.186.186 0 00.126-.062c.028-.033.075-.06.106-.06.03 0 .055-.017.055-.037 0-.02.046-.048.101-.062.056-.014.101-.044.101-.066 0-.022.027-.04.061-.04.033 0 .06-.018.06-.04 0-.023.026-.041.058-.041.072 0 .305-.133.305-.174 0-.017.046-.03.102-.03.055 0 .1-.016.1-.035 0-.019.068-.07.151-.112a1.25 1.25 0 00.196-.12c.025-.024.134-.088.242-.143.108-.056.221-.124.251-.152a.196.196 0 01.112-.05c.032 0 .058-.02.058-.042 0-.022.036-.04.08-.04.045 0 .081-.016.081-.035 0-.019.068-.07.151-.112a.975.975 0 00.172-.103.32.32 0 01.111-.054c.05-.016.091-.046.091-.067 0-.02.036-.038.081-.038.044 0 .08-.018.08-.04 0-.023.028-.041.061-.041s.06-.018.06-.04c0-.022.046-.052.101-.066.056-.014.101-.042.101-.062 0-.02.038-.036.084-.036a.24.24 0 00.14-.051c.133-.122.179-.154.219-.154.023 0 .042-.016.042-.036 0-.02.045-.048.1-.062.056-.014.101-.044.101-.066 0-.022.038-.04.084-.04a.24.24 0 00.14-.05c.133-.122.179-.154.219-.154a.042.042 0 00.042-.04c0-.023.043-.041.096-.041.054 0 .107-.028.12-.062.013-.033.06-.06.105-.06.046 0 .082-.02.082-.042 0-.022.02-.04.044-.04.023 0 .068-.024.099-.052.144-.13.182-.153.259-.153.046 0 .083-.018.083-.04 0-.022.045-.051.101-.065.055-.014.101-.042.101-.062 0-.02.027-.037.06-.037.034 0 .061-.018.061-.04 0-.023.036-.041.08-.041.045 0 .081-.018.081-.04 0-.022.046-.052.101-.066.056-.014.101-.04.101-.058 0-.017.045-.043.101-.057.055-.014.101-.044.101-.066 0-.022.027-.04.06-.04.034 0 .061-.018.061-.04 0-.023.036-.042.081-.042.044 0 .08-.017.08-.04 0-.022.046-.051.101-.065.056-.014.101-.042.101-.062 0-.02.028-.037.061-.037s.06-.018.06-.04c0-.023.037-.041.082-.041.045 0 .093-.028.106-.061.012-.034.057-.062.099-.062s.077-.016.077-.036c0-.02.041-.047.091-.06a.493.493 0 00.18-.106c.049-.046.106-.084.127-.084.058 0 .287-.138.288-.173 0-.017.045-.03.101-.03.055 0 .101-.019.101-.041 0-.023.027-.041.06-.041.034 0 .061-.018.061-.04 0-.022.045-.052.101-.066.055-.014.101-.038.101-.053 0-.016.104-.082.232-.149.127-.066.246-.143.264-.172.018-.028.068-.05.111-.05s.079-.02.079-.042c0-.022.036-.04.081-.04.044 0 .08-.017.08-.037 0-.02.032-.046.071-.06a.816.816 0 00.252-.153.32.32 0 01.111-.054c.05-.016.091-.046.091-.067 0-.02.036-.038.081-.038.044 0 .081-.014.081-.03 0-.032.119-.106.252-.156.039-.015.07-.044.07-.063 0-.02.046-.036.101-.036.063 0 .101-.024.101-.062 0-.033.028-.06.061-.06a.585.585 0 00.262-.124c.048-.051.243-.163.284-.163.025 0 .07-.023.101-.05.14-.128.181-.154.239-.154.034 0 .062-.018.062-.04 0-.023.035-.041.077-.041.042 0 .087-.028.099-.062.013-.033.061-.06.106-.06s.082-.02.082-.042c0-.022.027-.04.06-.04.034 0 .061-.018.061-.04 0-.023.045-.052.101-.066.055-.014.101-.042.101-.062 0-.02.036-.037.08-.037.045 0 .081-.017.081-.04 0-.022.046-.051.101-.065.056-.014.101-.042.101-.062 0-.02.027-.037.06-.037.034 0 .061-.018.061-.04 0-.023.037-.041.082-.041.045 0 .092-.028.105-.061.013-.034.047-.062.076-.062.069 0 .302-.133.302-.173 0-.017.027-.03.061-.03.033 0 .06-.02.06-.042 0-.022.038-.04.084-.04a.24.24 0 00.14-.051c.127-.116.17-.145.255-.172.091-.03.288-.194.288-.241 0-.015-.037-.026-.082-.026-.045 0-.092-.028-.105-.061-.013-.034-.058-.062-.1-.062s-.076-.016-.076-.036c0-.02-.046-.048-.101-.062-.056-.014-.101-.044-.101-.066 0-.022-.045-.04-.101-.04-.055 0-.101-.018-.101-.04 0-.023-.045-.041-.101-.041-.055 0-.101-.018-.101-.04 0-.023-.045-.052-.1-.066-.056-.014-.101-.042-.101-.062 0-.02-.055-.037-.122-.037-.066 0-.121-.016-.121-.036 0-.02-.04-.045-.09-.057a2.625 2.625 0 01-.233-.072 32.881 32.881 0 01-.444-.16 1.573 1.573 0 00-.292-.072c-.083-.01-.152-.036-.152-.056 0-.02-.089-.036-.198-.036-.109 0-.205-.017-.212-.038-.016-.045-.463-.125-.861-.154-.156-.01-.304-.037-.329-.059-.05-.041-1.658-.078-2.133-.049zm-83.013.224c-.122.02-.326.046-.454.06-.127.014-.232.041-.232.061 0 .02-.056.036-.124.036s-.15.028-.184.062a.256.256 0 01-.159.06c-.054 0-.098.02-.098.041 0 .023-.027.041-.06.041-.034 0-.06.018-.06.04 0 .022-.046.052-.102.066-.055.014-.1.038-.1.053s-.06.063-.13.105c-.151.09-.355.292-.355.352 0 .022-.032.076-.07.118-.065.07-.11.15-.25.452-.059.127-.132.532-.135.753-.003.207.084.682.134.733.021.021.038.081.038.133 0 .051.017.093.038.093.02 0 .05.039.064.086.035.108.534.608.609.608.03 0 .056.017.056.037 0 .02.046.048.101.062.056.014.101.044.101.066 0 .021.045.04.101.04.056 0 .1.018.1.04 0 .023.042.042.092.042.05.001.126.029.169.062a.33.33 0 00.17.06c.05 0 .1.016.112.036.012.02.081.046.154.058.18.03.48.112.565.155.038.02.133.036.21.036.076 0 .149.017.161.037.013.02.114.05.225.065.11.016.202.045.202.066 0 .02.072.036.161.036.089 0 .162.019.162.041 0 .023.041.041.093.041a.33.33 0 01.171.06.31.31 0 00.15.061c.038.001.07.02.07.042 0 .023.034.041.075.041.041 0 .11.046.15.102.043.056.092.102.11.102.048 0 .15.109.15.16 0 .025.017.044.039.044s.05.046.065.102c.014.056.041.102.061.102.02 0 .036.138.036.307 0 .168-.016.306-.035.306-.02 0-.046.05-.058.112a.498.498 0 01-.106.202c-.046.05-.083.11-.083.133 0 .023-.026.043-.058.043-.031 0-.063.015-.07.034-.021.054-.391.251-.471.251-.04 0-.09.018-.111.04-.17.171-1.884.17-2.053 0-.021-.022-.099-.04-.172-.04-.073 0-.133-.018-.133-.04 0-.023-.042-.041-.093-.041a.332.332 0 01-.172-.06.31.31 0 00-.149-.062c-.039 0-.07-.02-.07-.042 0-.022-.046-.04-.102-.04-.055 0-.1-.018-.1-.04 0-.022-.046-.052-.101-.066-.056-.014-.101-.042-.101-.062 0-.02-.02-.036-.044-.036-.023 0-.068-.024-.1-.052-.143-.13-.181-.153-.258-.153-.046 0-.083.027-.083.058 0 .068-.127.324-.171.344-.017.007-.031.044-.032.081a.313.313 0 01-.06.148.312.312 0 00-.06.153c0 .091.236.316.333.317.04.001.071.02.071.042 0 .023.027.041.06.041.034 0 .061.018.061.04 0 .022.046.052.101.066.056.014.101.042.101.062 0 .02.038.036.084.036.046 0 .11.028.144.061a.256.256 0 00.158.062c.054 0 .098.018.098.04 0 .023.064.041.142.041.077 0 .14.017.14.037 0 .02.092.05.203.065.11.016.202.045.202.066 0 .02.172.036.383.036.229 0 .384.017.384.041 0 .025.161.041.403.041.242 0 .404-.016.404-.04 0-.025.141-.042.343-.042.189 0 .343-.016.343-.036 0-.02.09-.05.202-.066.11-.015.202-.044.202-.065 0-.02.045-.037.1-.037.056 0 .102-.018.102-.04 0-.023.025-.041.057-.041a.601.601 0 00.19-.072c.128-.069.166-.095.294-.204a.232.232 0 01.082-.05c.03 0 .345-.321.345-.35 0-.014.023-.05.05-.081.13-.145.152-.184.152-.262 0-.046.018-.083.04-.083.023 0 .04-.038.04-.084 0-.045.03-.126.064-.18.124-.192.026-1.492-.113-1.492-.017 0-.03-.029-.03-.064a.215.215 0 00-.051-.12c-.11-.124-.152-.18-.152-.205 0-.032-.108-.141-.14-.141-.023 0-.08-.043-.201-.153-.031-.028-.074-.051-.096-.051-.02 0-.049-.028-.062-.062-.012-.033-.06-.06-.105-.06s-.082-.02-.082-.042c0-.022-.045-.04-.1-.04-.056 0-.102-.018-.102-.04 0-.02-.063-.05-.141-.065-.078-.015-.141-.043-.141-.063 0-.02-.046-.037-.102-.037a.461.461 0 01-.171-.035c-.138-.068-.487-.169-.588-.169-.057 0-.115-.018-.128-.04-.014-.023-.084-.041-.156-.041a.405.405 0 01-.21-.06.507.507 0 00-.25-.062c-.094 0-.171-.02-.171-.042 0-.022-.065-.04-.145-.04-.079 0-.171-.028-.204-.062a.255.255 0 00-.159-.06c-.054 0-.098-.02-.098-.042 0-.022-.045-.04-.1-.04-.056 0-.102-.018-.102-.039 0-.02-.04-.05-.087-.066-.094-.03-.138-.061-.312-.222-.223-.206-.287-.368-.287-.73 0-.182.016-.331.036-.331.02 0 .047-.046.061-.102.014-.056.044-.102.065-.102.022 0 .04-.02.04-.045 0-.14.592-.517.928-.59.202-.045 1.435-.038 1.675.008.112.022.242.061.29.088a.427.427 0 00.172.049c.046 0 .083.018.083.04 0 .023.041.042.091.043.05 0 .126.028.17.06.042.034.11.06.15.06.041 0 .074.02.074.042 0 .022.027.04.06.04.034 0 .06.019.06.041 0 .023.064.041.142.041.123 0 .142-.013.142-.1 0-.054.027-.126.06-.16a.24.24 0 00.06-.145c0-.047.019-.085.04-.085.023 0 .041-.044.041-.099a.27.27 0 01.066-.165c.06-.062.06-.073-.019-.146a.297.297 0 00-.166-.08c-.045 0-.082-.016-.082-.036 0-.02-.046-.048-.101-.062-.056-.014-.101-.044-.101-.066 0-.022-.036-.04-.079-.04-.043 0-.088-.016-.1-.036-.012-.02-.086-.048-.164-.063-.078-.015-.142-.044-.142-.066 0-.021-.081-.039-.181-.039-.1 0-.182-.017-.182-.037 0-.02-.104-.047-.232-.058a6.009 6.009 0 01-.454-.062c-.266-.049-.822-.049-1.13 0zm40.063 0c-.111.02-.306.047-.433.06-.128.014-.233.041-.233.061 0 .02-.055.036-.124.036-.068 0-.151.028-.184.062a.256.256 0 01-.159.06c-.054 0-.098.02-.098.041 0 .023-.037.041-.082.041-.045 0-.092.028-.105.062-.013.033-.048.06-.079.06s-.057.02-.057.042c0 .022-.028.04-.063.04-.073 0-.179.096-.179.16a.043.043 0 01-.042.044c-.059 0-.25.207-.321.35a.914.914 0 01-.111.174.196.196 0 00-.051.112c0 .032-.018.058-.04.058-.022 0-.04.092-.04.204 0 .113-.018.205-.041.205-.024 0-.04.177-.04.449s.016.449.04.449c.023 0 .041.073.041.163 0 .09.018.163.04.163.022 0 .04.035.04.077 0 .042.028.1.061.127.033.028.061.068.061.089 0 .063.521.564.585.564.033 0 .06.019.06.041 0 .023.025.041.056.041s.078.028.106.061a.212.212 0 00.146.061c.053 0 .096.019.096.041 0 .023.041.042.091.042.05.001.126.029.169.062a.33.33 0 00.172.06c.051 0 .093.018.093.04 0 .023.062.041.139.041.076 0 .149.018.162.039.013.02.105.05.205.066.099.015.191.043.203.063.012.02.103.036.201.036.099 0 .18.017.18.037 0 .02.091.05.202.065.111.016.201.045.201.066 0 .02.082.036.182.036.1 0 .182.019.182.041 0 .023.042.041.093.041s.128.027.171.06c.043.033.111.06.149.061.039.001.071.018.071.038s.032.046.071.06c.169.057.454.318.454.415 0 .033.016.06.036.06.019 0 .047.069.062.153.066.39.071.46.027.46-.024 0-.044.064-.044.142 0 .079-.017.143-.037.143-.019 0-.047.046-.061.102-.014.056-.043.102-.065.102-.022 0-.039.028-.039.061a.062.062 0 01-.061.062c-.033 0-.06.018-.06.04 0 .023-.037.041-.081.041-.045 0-.081.018-.081.04 0 .022-.045.052-.101.066-.055.014-.101.042-.101.062 0 .02-.041.036-.093.036-.051 0-.111.019-.133.042-.098.098-1.29.204-1.446.128a1.38 1.38 0 00-.325-.066c-.133-.014-.259-.043-.281-.064-.021-.022-.09-.04-.152-.04-.114 0-.135-.007-.388-.136a.649.649 0 00-.233-.068c-.053 0-.097-.016-.097-.036 0-.02-.046-.048-.101-.062-.056-.014-.101-.044-.101-.066 0-.022-.027-.04-.061-.04-.033 0-.06-.018-.06-.04 0-.023-.028-.041-.063-.041-.034 0-.102-.043-.151-.095-.132-.141-.233-.168-.259-.069-.011.045-.037.082-.057.082-.019 0-.035.046-.035.102 0 .056-.015.102-.034.102-.032 0-.249.44-.249.505 0 .046.108.148.157.148.023 0 .087.046.142.102.056.056.136.102.179.102.043 0 .089.028.102.061.013.034.06.062.105.062s.082.018.082.04c0 .023.038.041.084.041.046 0 .111.028.144.061a.255.255 0 00.158.062c.054 0 .098.018.098.04 0 .023.054.041.119.041.066 0 .129.017.142.037.012.02.113.05.224.065.111.016.202.045.202.066 0 .02.163.036.363.036.215 0 .363.017.363.041 0 .025.168.041.424.041s.424-.016.424-.04c0-.025.141-.042.343-.042.189 0 .343-.014.343-.031 0-.03.233-.104.495-.159.061-.012.111-.037.111-.055 0-.017.045-.043.101-.057.055-.014.101-.044.101-.066 0-.022.037-.04.082-.04.045 0 .131-.046.191-.102a.439.439 0 01.143-.102c.04 0 .27-.226.27-.265 0-.014.022-.052.05-.083.12-.135.152-.182.152-.222 0-.023.018-.042.04-.042.022 0 .04-.03.04-.065 0-.036.025-.114.056-.174.03-.06.076-.174.101-.254.057-.183.061-1.058.005-1.058-.022 0-.041-.04-.041-.089 0-.107-.124-.401-.169-.401-.018 0-.032-.02-.032-.043 0-.068-.494-.555-.596-.587-.05-.016-.091-.046-.091-.067 0-.02-.027-.038-.06-.038-.034 0-.061-.018-.061-.04 0-.023-.045-.041-.101-.041-.055 0-.101-.017-.101-.037 0-.02-.063-.048-.141-.063-.078-.015-.141-.044-.141-.066 0-.021-.064-.039-.141-.039-.078 0-.142-.014-.142-.031 0-.035-.302-.125-.535-.16-.083-.011-.151-.035-.151-.052 0-.017-.094-.042-.209-.056-.115-.014-.227-.044-.25-.067-.023-.023-.11-.042-.195-.042-.084 0-.153-.018-.153-.04 0-.023-.082-.041-.182-.041-.1 0-.182-.018-.182-.04 0-.02-.063-.05-.141-.065-.078-.015-.141-.043-.141-.063 0-.02-.046-.036-.101-.036-.056 0-.101-.017-.101-.037 0-.02-.032-.046-.071-.06-.148-.05-.333-.199-.333-.268 0-.024-.027-.044-.06-.044-.034 0-.061-.036-.061-.081 0-.045-.018-.082-.04-.082-.022 0-.04-.047-.04-.105a.481.481 0 00-.046-.19c-.033-.064-.032-.143.005-.314.087-.402.265-.669.52-.783.069-.031.126-.07.126-.087 0-.017.033-.031.073-.031.04 0 .108-.027.151-.06a.415.415 0 01.21-.061c.072-.001.131-.02.131-.043 0-.025.255-.04.684-.04.412 0 .694.016.709.04.014.023.102.041.196.041.095 0 .207.027.25.06.043.033.129.06.19.061.061.001.111.02.111.043 0 .022.034.04.077.04.083 0 .338.123.36.174.007.017.047.03.087.03.041 0 .08.016.088.036.007.02.053.048.102.063.071.023.101.004.151-.094a.568.568 0 00.063-.207c0-.046.018-.083.04-.083.023 0 .041-.045.041-.099 0-.054.018-.105.041-.113.023-.007.052-.082.066-.165.021-.135.012-.156-.082-.2-.058-.027-.106-.064-.106-.083 0-.019-.03-.034-.067-.034a.245.245 0 01-.132-.053 1.28 1.28 0 00-.285-.128 1.278 1.278 0 01-.261-.11c-.021-.02-.107-.036-.191-.036-.085 0-.154-.016-.154-.036 0-.02-.104-.047-.232-.06a11.24 11.24 0 01-.474-.063 4.497 4.497 0 00-1.131.002zm10.193-.001c-.122.022-.318.05-.434.062-.117.012-.212.039-.212.06 0 .02-.045.036-.1.036-.104 0-.395.12-.418.174-.007.017-.057.03-.111.03s-.098.017-.098.038c0 .021-.036.05-.08.064-.113.036-.669.593-.704.705-.015.05-.045.091-.066.091-.021 0-.038.046-.038.102 0 .056-.018.102-.04.102-.022 0-.04.035-.04.077a.85.85 0 01-.063.23c-.115.278-.055 1.046.108 1.377.02.039.035.089.035.11 0 .023.05.095.111.162.173.19.212.242.212.285 0 .022.037.051.081.066.044.014.081.043.081.064 0 .02.027.038.06.038.034 0 .061.018.061.04 0 .023.027.041.06.041.034 0 .061.018.061.04 0 .023.045.052.101.066.055.014.101.042.101.062 0 .02.036.036.08.036.045 0 .081.019.081.041 0 .023.042.041.093.041a.33.33 0 01.172.06.41.41 0 00.21.061c.072.001.131.02.131.042 0 .023.062.041.138.041.075 0 .144.02.152.045.008.025.101.055.206.067.104.012.19.037.19.057 0 .02.081.035.179.035.099 0 .19.018.203.039.013.02.105.05.204.066.1.015.181.043.181.063 0 .02.082.036.182.036.099 0 .181.019.181.041 0 .023.055.041.121.041.067 0 .121.016.121.035 0 .02.087.069.192.11.106.04.214.093.241.117.132.118.173.146.212.146.023 0 .042.028.042.062 0 .033.013.06.03.061.016 0 .062.057.101.126.052.093.07.218.07.49 0 .2-.016.363-.036.363-.019 0-.047.046-.061.102-.014.057-.043.102-.065.102-.022 0-.039.02-.039.043 0 .056-.186.243-.241.243a.042.042 0 00-.042.041c0 .022-.026.04-.058.04a.188.188 0 00-.111.055c-.058.058-.16.09-.517.155-.122.023-.286.06-.364.083-.234.068-1.254-.021-1.45-.127a.572.572 0 00-.222-.043c-.079 0-.144-.017-.144-.039 0-.021-.064-.05-.141-.065-.078-.015-.142-.044-.142-.063 0-.02-.045-.037-.1-.037-.056 0-.101-.018-.101-.04 0-.023-.046-.041-.101-.041-.056 0-.101-.018-.101-.04 0-.02-.064-.069-.141-.106-.078-.037-.142-.084-.142-.104 0-.02-.021-.036-.047-.036s-.08-.03-.12-.066c-.039-.037-.098-.057-.129-.044-.058.022-.228.342-.228.429 0 .027-.019.048-.041.048-.022 0-.04.046-.04.102 0 .056-.018.102-.041.102-.022 0-.04.04-.04.087 0 .09.224.32.313.32.028.001.05.018.05.038s.046.048.101.062c.056.014.101.044.101.066 0 .022.046.04.101.04.056 0 .101.018.101.04a.04.04 0 00.041.041c.022 0 .134.046.249.102.115.056.248.102.295.102.047 0 .104.02.127.042.022.023.135.053.25.067.115.014.209.041.209.06 0 .02.154.035.343.035.202 0 .343.017.343.041 0 .025.175.041.444.041s.444-.016.444-.04.134-.042.323-.042c.177 0 .323-.017.323-.038 0-.021.081-.05.181-.066.1-.015.182-.044.182-.063 0-.02.064-.037.141-.037.078 0 .142-.018.142-.04 0-.023.026-.041.057-.041a.19.19 0 00.111-.051.954.954 0 01.174-.113c.136-.07.626-.541.626-.603 0-.023.028-.051.061-.064.033-.013.06-.061.06-.107 0-.045.015-.083.033-.083.057 0 .169-.307.169-.462 0-.083.018-.15.041-.15.023 0 .04-.143.04-.347s-.017-.347-.04-.347-.041-.081-.041-.18c0-.1-.013-.187-.03-.194-.044-.02-.172-.276-.172-.344a.06.06 0 00-.06-.058c-.033 0-.061-.018-.061-.04 0-.063-.385-.438-.481-.469-.046-.015-.084-.044-.084-.065 0-.02-.045-.038-.101-.038-.055 0-.101-.018-.101-.04 0-.023-.024-.041-.054-.041a.944.944 0 01-.244-.102.854.854 0 00-.289-.103c-.054 0-.099-.016-.099-.037 0-.02-.091-.05-.202-.065-.111-.015-.201-.044-.201-.065 0-.02-.072-.037-.16-.037-.087 0-.168-.016-.18-.035-.012-.02-.112-.048-.223-.063-.111-.014-.212-.044-.225-.066-.014-.022-.105-.04-.204-.04-.098 0-.179-.018-.179-.04 0-.023-.059-.042-.131-.043a.413.413 0 01-.21-.061.331.331 0 00-.171-.06c-.052 0-.094-.018-.094-.04 0-.023-.045-.041-.1-.041-.056 0-.101-.018-.101-.039 0-.02-.035-.049-.078-.063-.122-.039-.472-.398-.499-.51a7.236 7.236 0 00-.074-.273c-.044-.148-.041-.201.026-.398.042-.125.091-.228.108-.228.018 0 .033-.032.034-.071.001-.082.09-.215.144-.215.02 0 .071-.046.113-.102.041-.056.109-.102.151-.102.041 0 .075-.018.075-.04 0-.023.037-.041.083-.041a.233.233 0 00.144-.061c.034-.034.132-.062.219-.062.088 0 .159-.018.159-.04 0-.026.256-.041.686-.041.431 0 .687.015.687.04 0 .023.077.042.171.043.094 0 .207.028.25.06.043.034.129.06.192.06.062 0 .113.02.113.042 0 .022.035.04.078.04.083 0 .337.123.359.174.008.017.056.03.108.03s.1.016.108.036c.007.02.054.048.104.064.078.024.091.013.091-.076 0-.058.016-.105.037-.105.02 0 .049-.055.064-.123.014-.067.043-.122.063-.122.021 0 .038-.055.038-.123 0-.067.016-.122.035-.122.02 0 .044-.044.055-.098.018-.097-.081-.229-.172-.229a.04.04 0 01-.039-.04c0-.023-.035-.041-.076-.041a.185.185 0 01-.126-.061.215.215 0 00-.147-.062c-.052 0-.096-.018-.096-.04 0-.023-.041-.041-.093-.041a.331.331 0 01-.171-.06.459.459 0 00-.23-.062c-.083 0-.151-.02-.151-.042 0-.022-.097-.04-.214-.04-.118 0-.233-.02-.257-.043-.057-.058-1.108-.084-1.386-.034zm-76.17 8.24h2.18c1.198 0 2.18-.015 2.18-.034 0-.02.147-.048.327-.063.18-.015.361-.046.401-.067a.44.44 0 01.177-.04.438.438 0 00.175-.038c.038-.02.192-.096.342-.166.15-.071.273-.146.273-.166 0-.021.028-.038.062-.038.09 0 .447-.389.55-.599.049-.097.103-.176.121-.176.019 0 .033-.083.033-.184 0-.101.019-.184.04-.184.026 0 .041-.184.041-.47 0-.285-.016-.469-.04-.469-.022 0-.04-.082-.04-.183 0-.101-.017-.184-.038-.184-.02 0-.049-.055-.063-.122-.015-.068-.044-.123-.064-.123-.02 0-.037-.028-.037-.061 0-.08-.547-.633-.626-.633-.033 0-.06-.018-.06-.04 0-.023-.046-.041-.101-.041-.056 0-.101-.018-.101-.04 0-.02-.064-.05-.142-.065-.077-.015-.14-.035-.14-.046 0-.036.115-.135.157-.135.024 0 .134-.092.246-.204.111-.113.22-.204.242-.204.022 0 .04-.046.04-.102 0-.057.019-.102.04-.102.023 0 .041-.02.041-.044 0-.024.027-.072.06-.105a.261.261 0 00.061-.16c0-.055.018-.1.04-.1.023 0 .04-.079.04-.175 0-.097.02-.196.045-.22.043-.043.04-.127-.027-.758-.013-.129-.04-.235-.057-.235-.018 0-.044-.046-.057-.102-.014-.056-.044-.102-.065-.102-.022 0-.04-.037-.04-.083 0-.098-.489-.61-.582-.61-.035 0-.064-.019-.064-.041 0-.023-.025-.041-.055-.041-.031 0-.079-.028-.106-.061a.212.212 0 00-.146-.062c-.053 0-.096-.016-.096-.035 0-.02-.073-.048-.162-.062-.089-.014-.161-.044-.161-.066 0-.023-.11-.04-.243-.04-.134 0-.242-.019-.242-.042 0-.026-.753-.04-2.18-.04h-2.18v8.163zm11.712-5.34c.01 2.21.025 2.827.064 2.84.028.01.05.077.05.149s.028.167.06.21a.38.38 0 01.06.192c.001.062.02.113.042.113.023 0 .04.035.04.078a.23.23 0 00.061.14c.034.034.06.093.06.131 0 .038.035.1.076.136a.415.415 0 01.103.158c.016.05.046.091.067.091.02 0 .037.02.037.044 0 .053.102.16.152.16.02 0 .06.046.09.102.03.057.07.103.09.103.02 0 .084.045.144.102.06.056.132.102.16.102.028 0 .05.018.05.04 0 .023.026.041.056.041.03 0 .078.028.106.061a.213.213 0 00.146.062c.053 0 .096.018.096.04 0 .023.046.041.101.041.056 0 .101.018.101.039 0 .02.082.05.182.066.1.015.181.043.181.063 0 .02.137.036.303.036.175 0 .303.018.303.041 0 .025.161.041.404.041.242 0 .403-.016.403-.04 0-.025.14-.042.34-.042.187 0 .346-.013.353-.03.017-.038.403-.174.493-.174.036 0 .066-.018.066-.04 0-.023.026-.041.057-.041a.19.19 0 00.111-.053.702.702 0 01.182-.106.56.56 0 00.201-.151c.04-.054.09-.098.109-.098.051 0 .349-.31.349-.363 0-.025.015-.046.034-.046.018 0 .068-.064.11-.143.042-.078.09-.142.107-.142s.031-.026.031-.057c0-.03.028-.079.06-.107a.217.217 0 00.061-.148c0-.053.018-.097.04-.097.023 0 .041-.045.041-.102 0-.056.017-.102.037-.102.02 0 .049-.092.064-.204.015-.112.044-.204.064-.204.02 0 .037-.138.037-.306 0-.177.017-.306.04-.306.027 0 .04-.885.04-2.572v-2.571H54.89l-.014 2.716c-.01 1.932-.027 2.724-.059 2.745-.024.016-.057.116-.073.223-.015.106-.045.194-.066.194-.02 0-.038.045-.038.102 0 .056-.018.102-.04.102-.022 0-.04.037-.04.083 0 .045-.028.093-.061.106-.033.013-.06.058-.06.1 0 .043-.019.078-.041.078-.022 0-.04.028-.04.061 0 .034-.023.062-.051.062-.028 0-.085.045-.127.101-.042.057-.11.103-.151.103-.041 0-.075.015-.075.034 0 .019-.068.07-.151.112a.995.995 0 00-.172.103.427.427 0 01-.161.048 3.774 3.774 0 00-.323.07c-.227.06-1.221.031-1.243-.037-.009-.024-.062-.045-.12-.045-.119 0-.413-.121-.413-.17 0-.019-.037-.034-.081-.034-.045 0-.08-.018-.08-.04 0-.023-.028-.041-.062-.041-.033 0-.06-.02-.06-.044 0-.053-.101-.16-.152-.16-.02 0-.06-.046-.09-.103-.03-.056-.067-.102-.083-.102s-.041-.045-.055-.102c-.014-.056-.043-.102-.065-.102-.022 0-.04-.046-.04-.102 0-.056-.018-.102-.04-.102-.022 0-.04-.034-.04-.077a.796.796 0 00-.06-.223 1.113 1.113 0 01-.061-.352c0-.113-.018-.205-.04-.205-.027 0-.041-.878-.041-2.551v-2.551h-1.14l.016 2.823zm22.477 5.34h1.09v-8.163h-1.09v8.163zm6.62 0h.528c.404 0 .541-.013.585-.058.05-.05.058-.505.058-3 0-2.588.007-2.942.06-2.942.034 0 .061.02.061.043 0 .023.047.092.104.153.057.06.128.156.158.212.03.056.092.13.138.162.047.033.085.075.085.094a.46.46 0 00.1.144c.056.06.101.122.101.138 0 .016.091.125.202.242.111.117.202.23.202.25 0 .02.064.098.141.172a.676.676 0 01.142.163c0 .016.022.054.05.086.11.123.151.18.151.204 0 .041.113.141.159.141.024 0 .043.028.043.062 0 .033.018.06.04.06.023 0 .041.024.041.053 0 .03.064.121.141.205.078.083.141.16.141.171 0 .012.032.054.071.095.12.127.252.293.252.316 0 .012.041.066.091.12.13.14.192.218.192.24 0 .01.064.088.141.171a.732.732 0 01.142.185c0 .018.072.108.161.2a1.2 1.2 0 01.161.187c0 .011.046.07.101.13a.478.478 0 01.101.14c0 .016.082.115.182.219.1.104.182.205.182.224 0 .02.045.081.1.137.056.056.102.121.102.145 0 .023.027.043.06.043s.06.02.06.043c0 .024.023.07.051.1.108.123.151.18.151.203 0 .013.072.097.159.186l.158.161h.854v-8.163h-1.09v2.98c0 2.917-.001 2.98-.078 2.98-.043 0-.09-.038-.103-.082-.015-.045-.043-.082-.064-.082-.02 0-.037-.028-.037-.061a.061.061 0 00-.061-.062c-.033 0-.06-.019-.06-.042 0-.024-.046-.089-.101-.145-.056-.056-.101-.121-.101-.144 0-.024-.064-.105-.142-.181a.82.82 0 01-.14-.162c0-.026-.058-.099-.193-.244a.447.447 0 01-.09-.123.425.425 0 00-.101-.118c-.056-.052-.101-.116-.101-.14 0-.026-.091-.139-.202-.252-.111-.112-.202-.225-.202-.25 0-.026-.064-.107-.141-.18a.721.721 0 01-.141-.162c0-.014-.023-.051-.051-.083-.12-.135-.151-.18-.151-.221 0-.023-.028-.042-.06-.042-.034 0-.062-.02-.062-.043 0-.024-.045-.089-.1-.145-.056-.056-.101-.125-.101-.152 0-.028-.037-.077-.081-.11-.044-.032-.08-.082-.08-.11a.053.053 0 00-.051-.054c-.028 0-.105-.083-.172-.183-.066-.1-.135-.183-.151-.183-.017 0-.03-.021-.03-.047 0-.025-.046-.088-.101-.14a.451.451 0 01-.101-.117c0-.026-.134-.188-.293-.357-.061-.065-.11-.135-.11-.157a.04.04 0 00-.041-.04c-.022 0-.04-.024-.04-.055 0-.03-.046-.09-.102-.132-.055-.042-.1-.091-.1-.11a.454.454 0 00-.101-.142.492.492 0 01-.101-.139c0-.015-.081-.113-.18-.218a1.183 1.183 0 01-.205-.268c-.013-.043-.041-.078-.062-.078-.02 0-.038-.02-.038-.044 0-.13-.117-.16-.602-.16h-.487v8.163zm12.433 0h5.813v-1.02h-4.642v-2.653l4.016-.02.012-.409c.006-.224.001-.45-.011-.5l-.023-.092h-3.994v-2.49h4.52v-.98h-5.69v8.164zm-49.186-7.204a.97.97 0 01.322.086.352.352 0 00.172.057c.05 0 .092.018.092.04 0 .023.045.041.1.041.064 0 .102.024.102.062 0 .033.019.06.042.06.045 0 .24.184.24.226 0 .014.027.053.06.087a.258.258 0 01.061.16c0 .055.018.1.04.1.05 0 .056.68.006.71-.02.012-.046.074-.058.138-.027.134-.37.514-.502.556-.05.016-.091.047-.091.067 0 .021-.064.039-.142.039-.077 0-.14.016-.14.037 0 .06-.47.09-1.817.11-.949.014-1.294.007-1.362-.03l-.091-.05v-1.204c0-1.07.007-1.213.067-1.28.064-.071.14-.075 1.363-.058.712.01 1.403.03 1.536.046zm.384 3.572c0 .022.09.04.202.04.11 0 .202.018.202.04 0 .02.063.05.14.065.079.015.142.043.142.063 0 .02.027.036.06.036.034 0 .061.019.061.041 0 .023.024.041.054.041.069 0 .188.143.29.347a.66.66 0 00.11.177c.047.021.037.905-.01.905-.022 0-.04.026-.04.058 0 .072-.131.309-.172.309-.016 0-.03.028-.03.061a.061.061 0 01-.06.062c-.034 0-.061.018-.061.04 0 .023-.036.041-.08.041-.045 0-.081.015-.081.033 0 .05-.295.171-.414.171-.058 0-.112.023-.121.051-.013.04-.396.054-1.685.064-.917.008-1.71.003-1.763-.01l-.094-.025v-2.651h1.675c1.09 0 1.675.014 1.675.04z" fill="#6CA841"/><path d="M22.348 23.425V8.935l2.401.022.02 13.53 7.206.022v.939l-4.723.01c-2.598.007-4.764.002-4.814-.01l-.09-.023zm17.922.043V8.936h1.231c1.068 0 1.231.008 1.231.061 0 .034.017.062.036.062.02 0 .048.046.062.102.014.056.043.102.065.102.021 0 .04.037.04.081 0 .045.017.082.04.082.022 0 .04.046.04.102 0 .056.016.102.036.102.02 0 .047.046.061.102.014.056.043.102.065.102.022 0 .04.046.04.102 0 .056.016.102.036.102.02 0 .047.046.061.102.014.056.043.102.065.102.022 0 .04.046.04.102 0 .057.016.103.036.103.02 0 .047.046.06.102.015.056.044.102.066.102.021 0 .04.036.04.081 0 .045.017.082.04.082.022 0 .04.034.04.077a.19.19 0 00.06.127.19.19 0 01.061.127c0 .043.014.077.03.077.017 0 .066.088.109.194.042.107.088.203.1.214.046.04.165.294.165.35 0 .032.018.059.04.059.022 0 .04.027.04.06 0 .034.019.062.04.062.023 0 .041.026.041.058 0 .068.128.324.172.343.017.008.03.048.03.089 0 .04.014.08.03.088.044.02.172.276.172.344 0 .031.016.058.036.058.02 0 .047.046.061.102.014.056.043.102.065.102.022 0 .04.046.04.102 0 .056.018.102.04.102.022 0 .04.037.04.083 0 .045.028.093.061.106.033.013.06.068.06.121 0 .054.019.098.041.098.022 0 .04.037.04.082 0 .045.018.081.04.081.022 0 .05.046.065.102.014.056.041.102.061.102.02 0 .036.046.036.102 0 .056.018.102.04.102.021 0 .05.046.065.102.014.057.041.103.061.103.02 0 .036.045.036.102 0 .056.018.102.04.102.021 0 .05.046.064.102.014.056.042.102.062.102.02 0 .036.046.036.102 0 .056.018.102.04.102.022 0 .04.035.04.077 0 .043.028.088.061.1.033.014.06.06.06.104s.014.085.03.093c.045.02.172.275.172.344 0 .031.019.057.04.057.023 0 .041.026.041.058 0 .069.128.324.172.344.016.007.03.058.03.112s.014.099.03.099c.04 0 .172.236.172.31 0 .031.016.057.036.057.02 0 .047.046.061.102.014.056.043.102.065.102.022 0 .04.046.04.102 0 .056.016.102.036.102.02 0 .047.046.061.102.014.056.043.102.065.102.022 0 .04.024.04.054 0 .058.194.485.236.518.043.034.33.63.33.684-.001.028.016.05.038.05s.051.046.065.103c.014.056.042.102.062.102.02 0 .035.046.035.102 0 .056.018.102.04.102.022 0 .051.046.065.102.014.056.042.102.061.102.02 0 .036.026.036.058 0 .1.196.432.255.432.01 0 .03-.046.044-.102.014-.056.044-.102.065-.102.022 0 .04-.046.04-.102 0-.057.016-.103.036-.103.02 0 .047-.045.061-.102.014-.056.043-.102.065-.102.022 0 .04-.036.04-.081 0-.045.018-.082.04-.082.022 0 .04-.034.04-.076 0-.043.028-.1.061-.128a.19.19 0 00.06-.127c0-.043.015-.077.032-.077s.067-.092.11-.204c.043-.112.092-.204.11-.204.017 0 .031-.046.031-.102 0-.056.016-.102.036-.102.02 0 .048-.046.061-.102.014-.056.044-.102.065-.102.022 0 .04-.022.04-.048 0-.076.133-.36.17-.36.017 0 .032-.037.032-.082 0-.045.014-.082.031-.082.018 0 .067-.092.11-.204.043-.112.093-.204.11-.204s.031-.046.031-.102c0-.056.017-.102.036-.102.02 0 .048-.046.062-.102.014-.056.043-.102.065-.102.021 0 .04-.022.04-.048 0-.076.133-.36.168-.36.018 0 .033-.046.033-.102 0-.057.016-.103.036-.103.02 0 .046-.032.06-.071a.867.867 0 01.058-.133c.089-.154.129-.248.129-.305 0-.034.016-.062.036-.062.02 0 .047-.046.06-.102.015-.056.044-.102.066-.102.022 0 .04-.046.04-.102 0-.056.016-.102.035-.102.02 0 .048-.046.062-.102.014-.056.043-.102.065-.102.021 0 .04-.046.04-.102 0-.057.015-.102.035-.102.02 0 .048-.046.062-.103.014-.056.043-.102.065-.102.021 0 .04-.046.04-.102 0-.056.017-.102.04-.102.022 0 .04-.028.04-.062s.045-.135.1-.223c.056-.09.102-.19.102-.224s.017-.062.04-.062c.021 0 .05-.046.064-.102.014-.056.042-.102.062-.102.02 0 .035-.046.035-.102 0-.056.017-.102.037-.102.02 0 .047-.046.06-.102.015-.056.044-.102.066-.102.021 0 .04-.046.04-.102 0-.057.017-.102.04-.102.022 0 .04-.046.04-.102 0-.064.023-.103.06-.103.038 0 .061-.038.061-.102 0-.056.018-.102.04-.102.023 0 .04-.034.04-.076 0-.043.028-.1.061-.128.034-.028.061-.076.061-.107 0-.03.018-.056.04-.056.023 0 .04-.046.04-.102 0-.056.017-.102.037-.102.02 0 .047-.046.061-.102.014-.056.043-.102.065-.102.022 0 .04-.046.04-.102 0-.056.016-.102.035-.102.02 0 .048-.046.062-.102.014-.056.043-.102.065-.102.022 0 .04-.046.04-.103 0-.056.016-.102.035-.102.02 0 .048-.046.062-.102.014-.056.043-.102.065-.102.021 0 .04-.046.04-.102 0-.056.017-.102.04-.102.022 0 .04-.037.04-.081 0-.045.015-.082.032-.082.036 0 .17-.285.17-.36 0-.027.016-.048.036-.048.02 0 .047-.046.061-.102.014-.056.043-.102.065-.102.022 0 .04-.046.04-.102 0-.056.016-.102.036-.102.02 0 .047-.046.06-.102.015-.057.044-.102.066-.102.022 0 .04-.046.04-.103 0-.056.018-.102.04-.102.022 0 .04-.034.04-.076 0-.042.027-.1.06-.128a.19.19 0 00.061-.127c0-.073.054-.077 1.232-.077h1.23l-.02 14.512-2.361.021v-5.96c0-3.946-.014-5.96-.04-5.96a.04.04 0 00-.04.04c0 .023-.028.041-.061.041-.038 0-.06.039-.06.102 0 .057-.017.102-.037.102-.02 0-.047.046-.061.102-.014.057-.043.103-.065.103-.022 0-.04.036-.04.081 0 .045-.018.082-.04.082-.022 0-.04.034-.04.076a.19.19 0 01-.061.128.19.19 0 00-.06.127c0 .043-.019.077-.04.077-.023 0-.041.021-.041.048 0 .076-.134.36-.17.36-.017 0-.032.046-.032.102 0 .056-.018.102-.04.102-.023 0-.04.027-.04.059a.193.193 0 01-.053.112.754.754 0 00-.108.197.927.927 0 01-.109.207.278.278 0 00-.054.153c0 .049-.018.089-.04.089-.022 0-.04.025-.04.056 0 .03-.028.079-.061.107a.19.19 0 00-.06.127c0 .042-.019.077-.04.077-.023 0-.041.046-.041.102 0 .056-.019.102-.04.102-.023 0-.041.026-.041.058a.193.193 0 01-.052.113.753.753 0 00-.108.196.933.933 0 01-.11.208.277.277 0 00-.053.153c0 .049-.018.089-.04.089-.023 0-.04.025-.04.056 0 .03-.028.079-.061.107a.19.19 0 00-.06.127c0 .042-.019.077-.041.077-.022 0-.04.037-.04.082 0 .044-.019.081-.04.081-.023 0-.041.036-.041.08 0 .043-.016.089-.036.1-.02.013-.097.152-.171.31-.075.157-.15.286-.167.286-.016 0-.03.046-.03.102 0 .056-.015.102-.033.102-.034 0-.169.284-.169.357 0 .024-.015.05-.033.058-.018.007-.112.179-.209.38-.097.203-.191.374-.21.382-.017.007-.032.05-.032.095a.235.235 0 01-.06.142.232.232 0 00-.061.14c0 .043-.018.079-.04.079-.023 0-.041.036-.041.081 0 .045-.014.082-.03.082-.017 0-.094.137-.172.305-.078.168-.155.306-.171.306-.017 0-.03.028-.03.06a.865.865 0 01-.102.244.85.85 0 00-.1.246c0 .035-.019.063-.04.063-.023 0-.041.037-.041.082 0 .045-.014.082-.03.082-.017 0-.094.137-.172.305-.078.168-.155.306-.172.306-.016 0-.03.027-.03.058a.834.834 0 01-.1.235.802.802 0 00-.101.249c0 .04-.019.071-.041.071-.022 0-.04.037-.04.082 0 .045-.018.082-.04.082-.022 0-.051.046-.065.102-.014.056-.041.102-.061.102-.02 0-.036.026-.036.058 0 .068-.128.323-.172.343-.016.008-.03.058-.03.112 0 .055-.018.099-.04.099-.021 0-.05.046-.065.102-.014.056-.041.102-.06.102-.02 0-.037.046-.037.102 0 .056-.018.102-.04.102-.022 0-.04.035-.04.077a.19.19 0 01-.061.127c-.033.028-.06.076-.06.107s-.019.056-.041.056c-.022 0-.04.035-.04.077a.19.19 0 01-.061.128c-.033.028-.06.076-.06.107 0 .04-.061.056-.225.056-.235 0-.31-.04-.358-.196-.016-.05-.045-.09-.066-.09-.02 0-.038-.046-.038-.102 0-.056-.018-.102-.04-.102-.022 0-.04-.037-.04-.083 0-.046-.028-.093-.061-.106-.033-.013-.06-.059-.06-.101 0-.043-.019-.077-.04-.077-.023 0-.041-.046-.041-.102 0-.056-.016-.102-.036-.102-.02 0-.048-.046-.062-.102-.014-.057-.043-.102-.064-.102-.022 0-.04-.046-.04-.103 0-.056-.018-.102-.04-.102-.021 0-.05-.046-.065-.102-.014-.056-.041-.102-.061-.102-.02 0-.036-.046-.036-.102 0-.056-.014-.102-.03-.102-.04 0-.172-.236-.172-.31 0-.031-.018-.057-.04-.057-.022 0-.04-.035-.04-.077a.19.19 0 00-.061-.127.19.19 0 01-.06-.128c0-.042-.017-.076-.037-.076-.02 0-.047-.046-.061-.102-.014-.056-.043-.103-.065-.103-.022 0-.04-.045-.04-.101 0-.057-.014-.103-.032-.103-.017 0-.065-.082-.107-.183-.04-.101-.09-.184-.109-.184-.019 0-.034-.046-.034-.102 0-.056-.018-.102-.04-.102-.023 0-.04-.026-.04-.058a.194.194 0 00-.053-.113.754.754 0 01-.108-.196.931.931 0 00-.109-.208.229.229 0 01-.054-.112c0-.026-.018-.048-.04-.048-.022 0-.04-.046-.04-.102 0-.056-.018-.102-.04-.102-.022 0-.051-.046-.065-.102-.014-.056-.042-.102-.061-.102-.02 0-.036-.046-.036-.102 0-.056-.018-.102-.04-.102-.023 0-.041-.035-.041-.077a.19.19 0 00-.06-.127c-.034-.028-.061-.076-.061-.107s-.018-.056-.04-.056c-.023 0-.04-.035-.04-.077a.19.19 0 00-.061-.128.19.19 0 01-.06-.127c0-.042-.02-.077-.041-.077-.023 0-.04-.046-.04-.102 0-.056-.018-.102-.04-.102-.022 0-.051-.046-.065-.102-.014-.056-.042-.102-.061-.102-.02 0-.037-.046-.037-.102 0-.056-.013-.102-.03-.102-.04 0-.171-.237-.171-.31 0-.031-.016-.057-.036-.057-.02 0-.048-.046-.062-.102-.014-.056-.043-.102-.064-.102-.022 0-.04-.046-.04-.102 0-.057-.016-.102-.036-.102-.02 0-.047-.046-.061-.102-.014-.057-.044-.103-.065-.103-.022 0-.04-.046-.04-.102 0-.056-.018-.102-.04-.102-.023 0-.04-.034-.04-.077 0-.042-.028-.088-.061-.1-.034-.014-.06-.062-.06-.107 0-.046-.015-.083-.032-.083-.018 0-.067-.092-.11-.204-.043-.112-.089-.204-.102-.204-.013 0-.056-.092-.096-.204-.04-.113-.089-.204-.109-.204-.02 0-.036-.037-.036-.082 0-.045-.018-.082-.04-.082-.023 0-.04-.037-.04-.081 0-.045-.016-.082-.035-.082-.019 0-.068-.083-.11-.184-.04-.1-.087-.183-.103-.183s-.041-.056-.056-.123c-.014-.067-.043-.122-.063-.122-.02 0-.037-.037-.037-.082 0-.045-.017-.082-.036-.082-.02 0-.048-.046-.062-.102-.014-.056-.043-.102-.065-.102-.022 0-.04-.046-.04-.102 0-.056-.018-.102-.04-.102-.022 0-.04-.026-.04-.058 0-.068-.128-.323-.172-.343-.016-.008-.03-.049-.03-.092s-.018-.078-.04-.078c-.021 0-.05-.046-.064-.102-.014-.056-.042-.102-.062-.102-.02 0-.036-.046-.036-.102 0-.056-.018-.102-.04-.102-.021 0-.05-.046-.064-.103-.014-.056-.042-.101-.062-.101-.02 0-.036-.046-.036-.103 0-.056-.016-.102-.036-.102-.02 0-.047-.047-.062-.104-.02-.08-.047-.102-.115-.092l-.09.013-.01 5.875c-.008 4.639-.02 5.883-.06 5.908-.028.018-.264.033-.525.033h-.474zM83.946 9.412c0-.232.012-.434.027-.449.015-.015 2.898-.022 6.408-.017l6.38.01.024.878-5.19.02-.01 6.752c-.008 4.908-.023 6.767-.056 6.807-.036.044-.282.055-1.21.055h-1.166v-6.725c-.001-3.699-.012-6.766-.026-6.817l-.024-.092h-5.157v-.422zm19.608-.353c-.017 0-.031-.028-.031-.062 0-.053.164-.06 1.231-.06 1.068 0 1.231.007 1.231.06 0 .034.014.062.032.062.017 0 .065.064.107.143.042.078.091.142.11.142.019 0 .034.024.034.052 0 .028.042.097.093.153a.91.91 0 01.121.163c.048.105.126.22.194.285a.41.41 0 01.093.154c.016.05.046.091.067.091.02 0 .037.02.037.043 0 .04.032.086.152.221.028.032.05.077.05.1 0 .025.018.045.041.045.022 0 .04.023.04.051 0 .028.042.097.093.153.051.056.105.13.121.163.047.103.125.215.22.316.05.053.091.123.091.155 0 .033.018.06.04.06.022 0 .04.027.04.06 0 .035.019.062.041.062.022 0 .04.037.04.082 0 .045.027.081.061.081a.06.06 0 01.06.062c0 .033.018.06.041.06.022 0 .04.03.04.064 0 .035.045.106.101.158.055.052.101.11.101.13 0 .021.045.087.101.148.055.06.101.14.101.178 0 .038.045.111.101.163.055.052.1.114.1.138 0 .023.019.042.041.042.022 0 .04.028.04.063a.1.1 0 00.061.086c.033.013.06.049.06.08 0 .032.018.057.041.057.022 0 .04.037.04.082 0 .045.027.081.061.081a.06.06 0 01.06.062c0 .033.018.06.04.06.023 0 .041.037.041.082 0 .045.018.082.04.082.022 0 .041.026.041.057 0 .031.027.067.06.08.033.013.061.057.061.097s.045.108.101.15c.055.042.101.099.101.126 0 .027.045.1.1.16.056.06.101.136.101.169s.019.06.041.06a.04.04 0 01.04.042c0 .023.045.092.101.152.055.06.101.134.101.162 0 .028.015.051.034.051.019 0 .068.065.11.143.042.079.09.143.107.143s.031.028.031.061c0 .034.028.062.061.062.034 0 .061.036.061.083 0 .046.045.13.1.185.056.057.101.13.101.162 0 .033.019.06.041.06.022 0 .04.027.04.06 0 .034.017.062.038.062.021 0 .049.037.063.081.026.082.182.117.182.041 0-.022.027-.04.06-.04.034 0 .061-.037.061-.084 0-.046.045-.133.101-.193.055-.061.101-.134.101-.162 0-.028.018-.051.04-.051.022 0 .04-.02.04-.043 0-.04.032-.086.152-.221.027-.032.05-.068.05-.082 0-.024.042-.08.152-.204.027-.031.05-.076.05-.1 0-.025.018-.044.04-.044.023 0 .041-.027.041-.06 0-.032.043-.103.096-.156a.593.593 0 00.124-.186c.015-.048.044-.088.065-.088.021 0 .038-.028.038-.061 0-.034.015-.062.034-.062.018 0 .068-.064.11-.143.042-.078.09-.142.107-.142s.031-.028.031-.062c0-.033.014-.06.031-.06.018 0 .066-.065.108-.144.042-.078.091-.143.11-.143.018 0 .034-.034.034-.075 0-.042.044-.11.098-.151a.373.373 0 00.122-.17c.013-.051.041-.093.063-.093s.04-.028.04-.062c0-.033.018-.06.04-.06.022 0 .04-.03.04-.064 0-.035.046-.106.101-.158.056-.052.101-.116.101-.143 0-.026.046-.097.101-.158.056-.06.101-.129.101-.151 0-.023.045-.092.101-.152.056-.06.101-.138.101-.173 0-.035.018-.063.04-.063.022 0 .041-.028.041-.061 0-.034.024-.062.053-.062.029 0 .078-.064.108-.143.031-.078.066-.142.08-.142.013 0 .058-.06.1-.133.042-.073.119-.173.17-.223.052-.049.094-.119.094-.154 0-.036.046-.115.101-.175.056-.06.101-.134.101-.162 0-.028.018-.051.04-.051.023 0 .041-.02.041-.043 0-.04.031-.086.151-.221.028-.032.051-.077.051-.1 0-.025.016-.045.037-.045.021 0 .051-.04.067-.091a.39.39 0 01.097-.153.404.404 0 00.098-.154c.016-.05.046-.091.067-.091.02 0 .037-.02.037-.043 0-.04.032-.086.152-.221.027-.032.05-.077.05-.1 0-.025.015-.045.034-.045.019 0 .068-.064.11-.142.042-.079.09-.143.107-.143.018 0 .032-.028.032-.062 0-.051.098-.06.645-.06.522 0 .646.01.646.055 0 .031-.027.08-.06.107-.034.028-.061.068-.061.089 0 .02-.045.084-.101.14-.055.056-.101.128-.101.161s-.018.06-.04.06a.041.041 0 00-.04.042c0 .04-.032.086-.152.221-.027.032-.05.077-.05.101 0 .024-.018.044-.041.044-.022 0-.04.028-.04.063s-.043.104-.095.153a.52.52 0 00-.124.182c-.016.05-.045.091-.066.091-.021 0-.038.028-.038.062 0 .033-.014.061-.031.061s-.065.064-.107.143c-.042.078-.092.143-.11.143-.019 0-.034.03-.034.066 0 .037-.042.106-.092.154a.74.74 0 00-.147.219c-.029.072-.079.132-.109.132-.031 0-.056.028-.056.061 0 .034-.018.062-.04.062-.023 0-.041.037-.041.083 0 .045-.027.093-.06.106-.034.013-.061.05-.061.08 0 .032-.018.057-.04.057-.022 0-.041.03-.041.067 0 .037-.045.11-.101.161-.055.052-.1.117-.1.143 0 .027-.046.091-.101.143-.056.052-.101.128-.101.168 0 .041-.046.109-.101.151-.056.042-.101.104-.101.138 0 .033-.034.09-.075.127a.42.42 0 00-.104.157c-.015.05-.045.092-.066.092-.021 0-.038.02-.038.043 0 .023-.045.092-.101.152a.463.463 0 00-.101.143.455.455 0 01-.1.143c-.056.06-.101.133-.101.162 0 .028-.019.051-.041.051-.022 0-.04.028-.04.061 0 .034-.017.062-.038.062-.02 0-.048.032-.06.071a.747.747 0 01-.124.19c-.055.065-.101.143-.101.174 0 .03-.018.054-.04.054a.042.042 0 00-.041.043c0 .04-.031.086-.151.221-.028.032-.051.077-.051.1 0 .025-.018.045-.04.045-.022 0-.04.023-.04.051 0 .028-.046.101-.101.162-.056.06-.101.128-.101.15 0 .023-.041.083-.091.135-.05.051-.127.162-.171.247-.043.084-.093.153-.111.153-.017 0-.031.027-.031.06 0 .035-.018.062-.04.062-.022 0-.041.037-.041.082 0 .045-.026.081-.06.081-.033 0-.061.02-.061.044 0 .024-.022.07-.05.1-.12.136-.151.182-.151.222a.042.042 0 01-.041.043c-.022 0-.04.032-.041.071 0 .04-.046.115-.101.168-.055.052-.1.124-.1.158 0 .035-.045.105-.101.157l-.101.095v6.29h-1.166c-1.026 0-1.169-.008-1.191-.065-.013-.035-.024-1.413-.024-3.061 0-1.97-.014-2.997-.041-2.997-.022 0-.04-.028-.04-.061 0-.034-.018-.061-.041-.061-.022 0-.04-.02-.04-.043 0-.04-.031-.086-.151-.221-.028-.032-.051-.077-.051-.1 0-.025-.017-.045-.037-.045-.021 0-.05-.04-.066-.088a.575.575 0 00-.124-.186c-.052-.053-.096-.123-.096-.156s-.018-.06-.04-.06a.041.041 0 01-.04-.042c0-.04-.032-.086-.152-.221-.027-.032-.05-.077-.05-.101 0-.024-.014-.044-.031-.044-.018 0-.066-.064-.108-.143-.041-.078-.091-.142-.11-.142-.018 0-.034-.024-.034-.052 0-.028-.045-.1-.101-.161-.055-.06-.101-.13-.101-.153 0-.023-.018-.043-.04-.043-.022 0-.04-.024-.04-.054s-.046-.109-.101-.174a.743.743 0 01-.124-.19c-.013-.04-.04-.071-.061-.071-.02 0-.037-.02-.037-.043 0-.04-.032-.086-.152-.221-.027-.032-.05-.077-.05-.1 0-.025-.018-.045-.04-.045-.023 0-.041-.028-.041-.063s-.041-.104-.091-.153a.888.888 0 01-.217-.325c-.013-.039-.036-.07-.051-.07-.014 0-.06-.065-.102-.144-.042-.078-.092-.143-.11-.143-.019 0-.034-.027-.034-.06 0-.035-.018-.062-.041-.062-.022 0-.04-.029-.04-.063 0-.035-.045-.106-.101-.158-.055-.052-.101-.116-.101-.143 0-.026-.045-.09-.101-.143-.055-.052-.101-.116-.101-.143 0-.026-.045-.09-.101-.143-.055-.051-.1-.127-.1-.166 0-.04-.046-.115-.101-.167-.056-.052-.101-.117-.101-.143 0-.027-.046-.09-.101-.143-.056-.052-.101-.114-.101-.137a.042.042 0 00-.041-.043c-.022 0-.04-.028-.04-.063s-.045-.106-.101-.158c-.055-.052-.101-.125-.101-.161 0-.037-.018-.067-.04-.067-.022 0-.04-.028-.04-.061 0-.034-.017-.062-.038-.062-.021 0-.051-.04-.066-.091a.535.535 0 00-.124-.182c-.052-.05-.095-.112-.095-.138 0-.027-.046-.091-.101-.143-.056-.052-.101-.123-.101-.158s-.018-.063-.041-.063c-.022 0-.04-.028-.04-.061 0-.034-.014-.062-.031-.062s-.066-.064-.107-.142c-.042-.079-.092-.143-.11-.143-.019 0-.034-.02-.034-.044 0-.024-.023-.07-.051-.1a1.45 1.45 0 01-.258-.397c-.013-.04-.037-.072-.053-.072s-.064-.064-.106-.142c-.041-.079-.09-.143-.107-.143z" fill="#767675"/><path fill-rule="evenodd" clip-rule="evenodd" d="M6.867 8.65c-.014.045-.042.082-.063.082-.02 0-.038.026-.038.058 0 .068-.127.324-.171.344-.017.007-.03.058-.03.112s-.015.098-.032.098-.067.092-.11.205c-.043.112-.092.204-.11.204-.017 0-.03.038-.03.084a.24.24 0 01-.061.146.232.232 0 00-.061.14c0 .043-.018.079-.04.079-.023 0-.04.035-.04.078a.232.232 0 01-.061.14.24.24 0 00-.06.146c0 .047-.019.085-.041.085-.022 0-.04.046-.04.102 0 .056-.018.102-.04.102-.022 0-.051.046-.065.102-.014.056-.042.102-.061.102-.02 0-.036.046-.036.102 0 .056-.019.102-.04.102-.023 0-.041.034-.041.077a.19.19 0 01-.06.127.19.19 0 00-.061.127c0 .043-.018.077-.04.077-.023 0-.041.033-.041.074a.31.31 0 01-.06.153.317.317 0 00-.06.15c0 .04-.02.072-.041.072-.023 0-.04.046-.04.102 0 .056-.019.102-.04.102-.022 0-.051.046-.065.102-.014.056-.042.102-.062.102-.02 0-.036.046-.036.102 0 .056-.016.102-.036.102-.02 0-.047.046-.061.103-.014.056-.043.101-.065.101-.022 0-.04.046-.04.103 0 .056-.018.102-.04.102-.022 0-.04.038-.04.084a.24.24 0 01-.06.146.26.26 0 00-.061.16c0 .055-.018.1-.04.1-.023 0-.041.034-.041.076a.19.19 0 01-.06.127.19.19 0 00-.061.128c0 .042-.018.077-.04.077-.023 0-.04.026-.04.058 0 .068-.129.323-.172.343-.017.008-.03.058-.03.112 0 .055-.015.099-.033.099-.04 0-.17.289-.17.378 0 .035-.013.07-.03.078-.044.02-.171.275-.171.343 0 .032-.019.058-.04.058-.023 0-.041.044-.041.098 0 .053-.027.108-.06.121-.034.013-.061.06-.061.106s-.018.083-.04.083c-.023 0-.04.046-.04.102 0 .056-.019.102-.04.102-.022 0-.051.046-.065.102-.014.057-.042.102-.062.102-.02 0-.036.056-.036.123s-.018.122-.04.122c-.022 0-.04.036-.04.08a.232.232 0 01-.061.14c-.033.033-.06.074-.06.09 0 .063-.139.343-.17.343-.018 0-.032.046-.032.103 0 .056-.019.102-.04.102-.023 0-.041.037-.041.082 0 .046-.027.094-.06.107-.034.013-.061.067-.061.121 0 .054-.018.098-.04.098-.023 0-.041.046-.041.102 0 .056-.015.102-.033.102-.017 0-.064.078-.104.173a9.05 9.05 0 01-.169.378 1.201 1.201 0 00-.098.252c0 .026-.013.053-.03.06-.044.02-.171.276-.171.344 0 .032-.019.058-.04.058-.023 0-.041.046-.041.102 0 .056-.016.102-.036.102-.02 0-.048.046-.061.102-.014.057-.044.102-.065.102-.022 0-.04.045-.04.1 0 .055-.017.11-.037.123-.02.013-.05.078-.064.145-.015.067-.043.122-.064.122-.02 0-.037.046-.037.102 0 .056-.018.102-.04.102-.021 0-.05.046-.064.103-.014.056-.042.101-.062.101-.02 0-.036.047-.036.103 0 .056-.018.102-.04.102-.022 0-.04.045-.04.102 0 .056-.018.102-.04.102-.022 0-.051.046-.065.102-.014.056-.041.102-.061.102-.02 0-.036.038-.036.084a.24.24 0 01-.06.146.231.231 0 00-.061.14c0 .043-.018.079-.04.079-.023 0-.041.021-.041.047 0 .076-.134.361-.17.361-.017 0-.032.046-.032.102 0 .056-.018.102-.04.102-.022 0-.04.046-.04.102 0 .056-.018.102-.04.102-.022 0-.051.046-.065.102-.014.056-.042.102-.061.102-.02 0-.036.046-.036.102 0 .056-.018.102-.04.102-.022 0-.051.046-.065.102-.014.057-.04.102-.057.102s-.04.051-.05.113a1.02 1.02 0 01-.05.183c-.027.067.013.072.543.072.608 0 .687-.023.687-.201 0-.047.018-.085.04-.085.022 0 .05-.046.065-.102.014-.056.041-.102.061-.102.02 0 .036-.046.036-.102 0-.056.018-.102.04-.102.023 0 .04-.033.04-.074 0-.04.028-.11.06-.153a.317.317 0 00.06-.15c.001-.04.018-.072.038-.072s.047-.046.061-.102c.014-.056.043-.102.065-.102.022 0 .04-.046.04-.102 0-.056.018-.102.04-.102.022 0 .04-.046.04-.102 0-.056.018-.102.04-.102.022 0 .051-.046.065-.102.014-.056.042-.102.061-.102.02 0 .036-.045.036-.1 0-.053.015-.104.032-.111.017-.008.094-.16.17-.34.077-.18.153-.333.17-.34.018-.008.032-.059.032-.113 0-.054.016-.099.036-.099.02 0 .047-.046.061-.102.014-.056.044-.102.065-.102.022 0 .04-.046.04-.102 0-.056.018-.102.04-.102.022 0 .04-.026.04-.058 0-.068.128-.323.172-.343.017-.008.03-.038.03-.068 0-.066.13-.321.172-.34.017-.008.03-.066.03-.13 0-.063.014-.121.03-.129a.602.602 0 00.108-.166l.077-.154h6.19l.054.164c.03.09.078.184.107.21a.18.18 0 01.054.121c0 .042.018.077.04.077.023 0 .041.053.041.119 0 .065.014.125.03.133.044.02.172.275.172.343 0 .032.018.058.04.058.022 0 .04.033.04.074 0 .04.027.11.06.153.032.043.06.111.06.15.001.04.02.072.042.072.022 0 .04.035.04.077 0 .042.028.1.06.127a.217.217 0 01.062.148c0 .053.018.097.04.097.022 0 .04.037.04.082 0 .044.017.081.037.081.02 0 .05.055.064.122.015.067.043.133.064.145.02.013.037.069.037.123 0 .055.016.1.036.1.02 0 .047.046.061.102.014.056.043.102.065.102.022 0 .04.046.04.102 0 .056.018.102.04.102.022 0 .04.035.04.077 0 .042.028.1.061.127a.19.19 0 01.06.128c0 .042.019.076.041.076.022 0 .04.043.04.095 0 .052.027.13.06.173a.32.32 0 01.06.15c0 .04.02.072.042.072.022 0 .04.046.04.102 0 .056.016.102.036.102.02 0 .048.046.062.102.014.057.043.102.065.102.021 0 .04.046.04.103 0 .056.016.102.037.102.02 0 .049.036.063.081.025.08.061.082 1.234.082.778 0 1.208-.015 1.208-.04a.04.04 0 00-.04-.042c-.023 0-.04-.036-.04-.08 0-.09-.125-.382-.172-.403-.017-.007-.03-.058-.03-.112s-.019-.099-.04-.099c-.023 0-.041-.026-.041-.058 0-.068-.128-.323-.172-.343-.016-.008-.03-.044-.031-.082a.313.313 0 00-.06-.147.311.311 0 01-.06-.153c0-.04-.018-.074-.04-.074-.023 0-.04-.044-.04-.098 0-.053-.028-.108-.061-.12-.034-.014-.06-.06-.06-.105 0-.044-.02-.092-.041-.105-.022-.014-.04-.07-.04-.125 0-.055-.019-.1-.041-.1-.022 0-.04-.036-.04-.08 0-.043-.018-.09-.04-.103-.042-.026-.14-.229-.182-.378-.014-.05-.043-.092-.064-.092-.02 0-.037-.046-.037-.102 0-.056-.018-.102-.04-.102-.023 0-.041-.046-.041-.102 0-.056-.018-.102-.04-.102-.021 0-.05-.046-.065-.102-.014-.056-.041-.102-.06-.102-.02 0-.037-.045-.037-.1 0-.053-.014-.104-.032-.111-.017-.008-.093-.16-.17-.34-.076-.18-.153-.333-.17-.34-.017-.008-.032-.059-.032-.113 0-.054-.018-.099-.04-.099-.022 0-.04-.034-.04-.076a.19.19 0 00-.06-.128.19.19 0 01-.061-.127c0-.042-.018-.077-.04-.077-.023 0-.041-.046-.041-.102 0-.056-.017-.102-.038-.102-.02 0-.049-.041-.063-.092-.05-.178-.232-.577-.272-.595-.017-.007-.03-.058-.03-.112s-.015-.099-.032-.099c-.018 0-.067-.092-.11-.204-.043-.112-.093-.204-.11-.204s-.031-.03-.031-.065a.593.593 0 00-.067-.194c-.122-.237-.135-.27-.135-.334a.101.101 0 00-.06-.086c-.034-.013-.061-.058-.061-.101 0-.042-.018-.077-.04-.077-.023 0-.041-.036-.041-.08a.887.887 0 00-.1-.271.903.903 0 01-.102-.264c0-.04-.013-.079-.03-.086-.044-.02-.172-.275-.172-.343 0-.032-.018-.058-.04-.058-.022 0-.04-.046-.04-.102 0-.057-.018-.102-.04-.102-.022 0-.051-.046-.065-.103-.014-.056-.041-.102-.061-.102-.02 0-.036-.042-.036-.094a.34.34 0 00-.06-.173.317.317 0 01-.06-.15c0-.04-.02-.072-.042-.072-.022 0-.04-.046-.04-.102 0-.056-.016-.102-.036-.102-.02 0-.047-.046-.061-.103-.014-.056-.043-.102-.065-.102-.022 0-.04-.046-.04-.102 0-.056-.018-.102-.04-.102-.022 0-.04-.034-.04-.076a.19.19 0 00-.061-.128.187.187 0 01-.06-.125c0-.04-.019-.085-.041-.1-.022-.013-.04-.059-.04-.1a.228.228 0 00-.061-.138.24.24 0 01-.06-.146c0-.047-.019-.085-.04-.085-.023 0-.041-.046-.041-.102 0-.056-.018-.102-.04-.102-.022 0-.05-.046-.065-.102-.014-.056-.041-.102-.061-.102-.02 0-.036-.035-.036-.08 0-.043-.017-.089-.037-.102-.02-.012-.05-.078-.064-.145-.015-.067-.043-.122-.064-.122-.02 0-.037-.044-.037-.098 0-.055-.014-.105-.03-.113-.044-.02-.172-.275-.172-.343 0-.032-.018-.058-.04-.058-.022 0-.04-.029-.04-.064s-.073-.217-.162-.406a2.82 2.82 0 01-.161-.385c0-.024-.019-.043-.04-.043-.023 0-.041-.046-.041-.102 0-.056-.016-.102-.036-.102-.02 0-.048-.046-.061-.102-.014-.056-.044-.102-.065-.102-.022 0-.04-.046-.04-.102 0-.057-.018-.102-.04-.102-.023 0-.04-.046-.04-.103 0-.056-.018-.102-.038-.102-.021 0-.05-.04-.065-.091-.051-.178-.156-.398-.188-.398-.018 0-.033-.038-.033-.085 0-.15-.096-.201-.377-.201-.228 0-.266.01-.289.081zm-.222 3.505a.23.23 0 00-.057-.14c-.078-.078-.104-.073-.104.018a.19.19 0 01-.06.128.19.19 0 00-.061.127c0 .043-.018.077-.04.077-.023 0-.042.032-.042.072a.312.312 0 01-.06.15.307.307 0 00-.06.15c0 .039-.014.076-.03.084-.044.02-.172.275-.172.343 0 .032-.018.058-.04.058-.022 0-.04.046-.04.102 0 .056-.017.102-.037.102-.02 0-.047.046-.06.102-.015.056-.044.102-.066.102-.022 0-.04.046-.04.102 0 .057-.016.103-.035.103-.02 0-.048.045-.062.102-.014.056-.043.102-.065.102-.021 0-.04.046-.04.102 0 .056-.017.102-.04.102-.022 0-.04.033-.04.074a.31.31 0 01-.06.153.345.345 0 00-.06.17c0 .051-.02.093-.041.093-.023 0-.04.026-.04.057 0 .069-.128.324-.172.344-.017.007-.03.038-.03.068 0 .066-.13.32-.172.34-.017.008-.03.048-.03.09 0 .041-.019.087-.04.1-.023.014-.041.06-.041.1a.19.19 0 01-.06.125.213.213 0 00-.061.145c0 .051-.014.1-.03.107-.044.02-.172.275-.172.343 0 .032-.018.058-.04.058-.023 0-.04.046-.04.102 0 .056-.019.102-.04.102-.022 0-.051.046-.065.102-.014.056-.042.102-.062.102-.02 0-.036.046-.036.102 0 .057-.017.102-.04.102-.021 0-.05.046-.064.103-.014.056-.043.102-.064.102-.021 0-.033.05-.026.112l.013.112 2.593.01c2.573.011 2.594.01 2.594-.07 0-.046-.019-.083-.04-.083-.023 0-.041-.046-.041-.102 0-.056-.016-.102-.036-.102-.02 0-.048-.064-.062-.143-.015-.078-.044-.143-.065-.143-.022 0-.039-.046-.039-.102 0-.056-.018-.102-.04-.102-.021 0-.05-.046-.064-.102-.014-.056-.042-.102-.062-.102-.02 0-.036-.046-.036-.102 0-.056-.018-.102-.04-.102-.022 0-.04-.046-.04-.102 0-.056-.015-.102-.033-.102-.018 0-.061-.069-.097-.153a221.21 221.21 0 00-.136-.327c-.04-.095-.088-.173-.106-.173-.017 0-.032-.044-.032-.099 0-.054-.014-.104-.03-.112-.05-.022-.172-.28-.172-.364 0-.043-.018-.078-.04-.078-.023 0-.04-.037-.04-.082 0-.045-.017-.081-.038-.081-.02 0-.05-.06-.065-.133a.437.437 0 00-.054-.153.999.999 0 01-.167-.35c0-.032-.018-.058-.04-.058-.022 0-.04-.045-.04-.099 0-.054-.014-.105-.03-.112-.056-.025-.172-.285-.172-.385 0-.054-.016-.098-.036-.098-.02 0-.048-.046-.061-.102-.014-.056-.044-.102-.065-.102-.022 0-.04-.046-.04-.102 0-.057-.018-.102-.04-.102-.023 0-.04-.038-.04-.083 0-.046-.028-.094-.061-.107-.034-.013-.06-.067-.06-.121 0-.054-.019-.098-.041-.098-.022 0-.04-.038-.04-.084a.24.24 0 00-.061-.146.236.236 0 01-.06-.143zM71.362 8.63c-.028.032-.05.076-.05.097 0 .054-.135.308-.172.325-.017.007-.03.058-.03.112s-.018.099-.04.099c-.022 0-.051.046-.065.102-.014.056-.042.102-.061.102-.02 0-.037.038-.037.084a.24.24 0 01-.06.146.229.229 0 00-.06.138c0 .042-.019.087-.04.101-.023.014-.041.06-.041.101 0 .042-.014.082-.03.09-.044.02-.172.275-.172.343 0 .032-.018.058-.04.058-.023 0-.04.044-.04.098 0 .054-.028.108-.061.121-.034.013-.06.06-.06.107 0 .045-.02.082-.041.082-.022 0-.04.046-.04.102 0 .056-.017.102-.037.102-.02 0-.047.046-.061.102-.014.057-.043.103-.065.103-.022 0-.04.055-.04.122s-.018.122-.04.122c-.022 0-.04.036-.04.08a.232.232 0 01-.06.14.24.24 0 00-.061.145c0 .046-.016.085-.036.085-.02 0-.048.045-.062.101-.014.057-.043.103-.065.103-.021 0-.04.046-.04.102 0 .056-.017.102-.04.102-.022 0-.04.026-.04.058 0 .068-.128.323-.171.343-.017.008-.03.058-.03.112 0 .055-.017.099-.038.099-.02 0-.049.055-.064.122-.014.067-.043.132-.063.145-.02.013-.037.058-.037.1 0 .041-.014.081-.03.089-.044.019-.172.274-.172.34 0 .03-.014.06-.03.068-.044.02-.172.275-.172.343 0 .032-.018.058-.04.058-.023 0-.04.029-.04.064s-.074.218-.162.406a2.822 2.822 0 00-.162.385c0 .024-.018.043-.04.043-.022 0-.04.046-.04.102 0 .057-.018.103-.04.103-.022 0-.051.045-.065.101-.014.057-.042.103-.061.103-.02 0-.036.046-.036.102 0 .056-.019.102-.04.102-.023 0-.041.046-.041.102 0 .056-.018.102-.04.102-.022 0-.05.046-.065.102-.014.056-.041.102-.061.102-.02 0-.036.046-.036.102 0 .056-.018.102-.04.102-.021 0-.051.049-.066.108-.015.06-.088.23-.162.376a1.627 1.627 0 00-.136.32c0 .03-.018.053-.04.053-.022 0-.04.046-.04.102 0 .056-.018.102-.04.102-.022 0-.05.046-.065.102-.014.056-.041.102-.061.102-.02 0-.036.04-.036.089a.274.274 0 01-.055.153c-.03.035-.087.152-.127.258-.04.107-.087.194-.106.194-.02 0-.035.046-.035.102 0 .056-.018.102-.04.102-.023 0-.04.046-.04.102 0 .057-.017.102-.037.102-.02 0-.047.046-.061.102-.014.057-.043.103-.065.103-.022 0-.04.046-.04.102 0 .056-.018.102-.04.102-.022 0-.04.026-.04.058 0 .068-.128.323-.172.343-.017.008-.03.045-.03.084a.307.307 0 01-.06.15.343.343 0 00-.06.17c0 .051-.02.093-.042.093-.022 0-.04.035-.04.078s-.014.084-.03.092c-.037.016-.172.27-.172.324a.814.814 0 01-.1.2.686.686 0 00-.102.223c0 .034-.018.062-.04.062-.022 0-.04.044-.04.097 0 .054-.028.12-.061.148a.217.217 0 00-.06.148c0 .054-.019.097-.04.097-.023 0-.041.046-.041.102 0 .056-.018.102-.04.102-.022 0-.05.046-.065.102-.014.056-.041.102-.061.102-.02 0-.036.046-.036.102 0 .057-.018.102-.04.102-.022 0-.05.046-.065.102-.013.057-.041.103-.06.103-.02 0-.037.046-.037.102 0 .056-.016.102-.036.102-.02 0-.047.046-.061.102-.014.056-.043.102-.065.102-.022 0-.04.046-.04.102 0 .056-.018.102-.04.102-.022 0-.04.04-.04.089a.276.276 0 01-.062.157c-.034.038-.05.099-.036.136.022.058.103.067.584.067.522 0 .56-.005.583-.082.014-.045.043-.081.063-.081.021 0 .038-.046.038-.102 0-.057.016-.102.036-.102.02 0 .048-.046.061-.102.014-.057.044-.103.065-.103.022 0 .04-.046.04-.102 0-.056.018-.102.04-.102.023 0 .04-.038.04-.084a.24.24 0 01.061-.146.261.261 0 00.06-.16c0-.055.017-.1.037-.1.02 0 .047-.045.061-.102.014-.056.043-.102.065-.102.022 0 .04-.046.04-.102 0-.056.018-.102.04-.102.022 0 .04-.034.04-.076 0-.043.028-.1.06-.128a.19.19 0 00.061-.127c0-.042.019-.077.04-.077.023 0 .041-.046.041-.102 0-.056.018-.102.04-.102.023 0 .04-.036.04-.08 0-.043.019-.09.04-.103a.558.558 0 00.103-.176c.036-.083.09-.203.123-.267a.54.54 0 00.058-.173c0-.032.016-.058.036-.058.02 0 .047-.046.061-.102.014-.056.043-.102.065-.102.022 0 .04-.046.04-.102 0-.056.018-.102.04-.102.022 0 .04-.046.04-.102 0-.057.017-.103.036-.103.02 0 .048-.045.062-.102.014-.056.043-.102.065-.102.021 0 .04-.046.04-.102 0-.056.017-.102.04-.102.022 0 .04-.022.04-.05 0-.042.102-.28.24-.562.027-.053.424-.063 3.145-.072l3.114-.01v.085a.24.24 0 00.06.146.26.26 0 01.06.16c0 .055.017.1.037.1.02 0 .047.045.061.101.014.056.043.102.065.102.022 0 .04.046.04.102 0 .056.016.102.036.102.02 0 .047.046.061.102.014.057.043.102.065.102.022 0 .04.046.04.103 0 .056.018.102.04.102.022 0 .04.038.04.084a.24.24 0 00.06.146.258.258 0 01.061.16c0 .055.019.1.04.1.023 0 .041.045.041.102 0 .056.018.101.04.101.022 0 .05.047.065.103.014.056.041.102.06.102.02 0 .037.045.037.102 0 .056.018.102.04.102.022 0 .04.037.04.083 0 .045.028.093.061.106.038.015.06.077.06.162 0 .076.019.139.041.139.022 0 .04.025.04.056 0 .03.028.079.061.107.033.028.06.094.06.148 0 .053.019.097.041.097.022 0 .04.046.04.102 0 .056.018.102.04.102.022 0 .05.046.065.102.014.056.041.102.061.102.02 0 .037.032.037.071.001.04.028.107.061.151a.31.31 0 01.06.153c0 .04.017.074.04.074.022 0 .04.044.04.099 0 .054.014.104.03.112.038.017.172.271.172.326 0 .022.026.067.057.099.048.047.268.058 1.232.058h1.173v-.123c0-.067-.016-.122-.036-.122-.02 0-.047-.046-.061-.102-.014-.056-.043-.102-.065-.102-.022 0-.04-.044-.04-.099 0-.054-.013-.105-.03-.112a.62.62 0 01-.105-.177 16.69 16.69 0 00-.172-.357.933.933 0 01-.096-.272c0-.043-.014-.085-.03-.092-.044-.02-.172-.275-.172-.343 0-.032-.018-.058-.04-.058-.023 0-.04-.046-.04-.102 0-.057-.019-.102-.04-.102-.022 0-.052-.046-.065-.103-.014-.056-.042-.102-.062-.102-.02 0-.036-.036-.036-.08 0-.09-.124-.381-.171-.403-.017-.007-.03-.058-.03-.112s-.019-.099-.04-.099c-.023 0-.041-.037-.041-.082 0-.046-.028-.094-.06-.107-.034-.013-.061-.067-.061-.121 0-.054-.019-.098-.04-.098-.023 0-.042-.032-.042-.071a.318.318 0 00-.061-.15.31.31 0 01-.06-.154c0-.04-.017-.074-.04-.074-.022 0-.04-.034-.04-.076a.19.19 0 00-.06-.128.217.217 0 01-.061-.148c0-.053-.018-.097-.04-.097-.023 0-.04-.046-.04-.102 0-.056-.019-.102-.04-.102-.022 0-.051-.046-.065-.102-.014-.056-.042-.102-.062-.102-.02 0-.036-.046-.036-.102 0-.056-.018-.102-.04-.102-.022 0-.04-.035-.04-.079a.231.231 0 00-.06-.14.24.24 0 01-.061-.145c0-.047-.019-.085-.04-.085-.023 0-.041-.035-.041-.077a.19.19 0 00-.06-.127.19.19 0 01-.061-.128c0-.042-.018-.076-.04-.076-.023 0-.041-.046-.041-.102 0-.056-.018-.102-.04-.102-.023 0-.04-.02-.04-.045a1.9 1.9 0 00-.122-.309 2.045 2.045 0 01-.12-.302c0-.021-.02-.038-.041-.038-.023 0-.04-.046-.04-.102 0-.056-.017-.102-.037-.102-.02 0-.047-.046-.061-.102-.014-.057-.043-.102-.065-.102-.022 0-.04-.046-.04-.102 0-.057-.018-.103-.04-.103-.022 0-.04-.038-.04-.084a.24.24 0 00-.06-.146.261.261 0 01-.061-.16c0-.055-.014-.1-.032-.1-.017 0-.066-.091-.11-.204-.043-.112-.092-.204-.11-.204-.017 0-.03-.045-.03-.102 0-.056-.017-.102-.037-.102-.02 0-.047-.046-.061-.102-.014-.056-.043-.102-.065-.102-.022 0-.04-.046-.04-.102 0-.056-.018-.102-.04-.102-.022 0-.04-.044-.04-.097a.217.217 0 00-.061-.148c-.033-.028-.06-.076-.06-.108a.702.702 0 00-.102-.218.657.657 0 01-.1-.245c0-.045-.019-.082-.04-.082-.023 0-.041-.025-.041-.055a.972.972 0 00-.101-.247.893.893 0 01-.1-.268c0-.042-.015-.082-.031-.09-.044-.02-.172-.275-.172-.343 0-.032-.018-.058-.04-.058-.022 0-.04-.035-.04-.077a.19.19 0 00-.061-.127.19.19 0 01-.06-.128c0-.042-.019-.076-.041-.076-.022 0-.04-.039-.04-.085a.24.24 0 00-.06-.146.26.26 0 01-.061-.16c0-.055-.019-.1-.04-.1-.023 0-.041-.045-.041-.101 0-.056-.016-.102-.036-.102-.02 0-.047-.046-.062-.102-.013-.056-.043-.102-.064-.102-.022 0-.04-.046-.04-.103 0-.056-.014-.102-.032-.102-.017 0-.066-.091-.11-.204-.042-.112-.092-.204-.109-.204s-.032-.043-.032-.097a.217.217 0 00-.06-.148.218.218 0 01-.06-.148c0-.053-.019-.097-.041-.097-.022 0-.04-.046-.04-.102 0-.056-.018-.102-.04-.102-.022 0-.05-.046-.065-.102-.014-.056-.041-.102-.061-.102-.02 0-.036-.046-.036-.102 0-.056-.018-.102-.04-.102-.023 0-.041-.032-.042-.071a.316.316 0 00-.06-.15.307.307 0 01-.06-.15c0-.04-.014-.077-.03-.085-.05-.022-.172-.28-.172-.364 0-.043-.018-.078-.04-.078-.022 0-.04-.037-.04-.082 0-.074-.027-.081-.293-.08-.2.001-.309.02-.343.06zm-.172 3.605c0-.04-.014-.074-.032-.074-.018 0-.053-.05-.077-.112s-.046-.09-.048-.061c-.002.027-.032.05-.065.05-.035 0-.061.038-.062.092 0 .05-.028.128-.06.171a.31.31 0 00-.06.153c0 .041-.018.074-.04.074-.022 0-.04.046-.04.102 0 .056-.017.102-.036.102-.02 0-.048.046-.062.103-.014.056-.043.101-.065.101-.021 0-.04.046-.04.103 0 .056-.017.102-.04.102-.022 0-.04.046-.04.102 0 .063-.023.102-.06.102-.038 0-.06.038-.06.102 0 .056-.02.102-.041.102-.022 0-.04.026-.04.058 0 .068-.128.324-.172.343-.017.008-.03.066-.03.13 0 .063-.014.121-.03.129-.045.02-.172.275-.172.343 0 .032-.016.058-.036.058-.02 0-.048.046-.062.102-.014.056-.043.102-.065.102-.021 0-.04.046-.04.102 0 .056-.017.102-.04.102-.022 0-.04.035-.04.077a.19.19 0 01-.06.127.19.19 0 00-.061.128c0 .042-.018.077-.04.077-.023 0-.04.045-.04.101 0 .057-.019.103-.041.103-.022 0-.04.02-.04.044 0 .024-.055.163-.121.309a2.045 2.045 0 00-.122.303c0 .02-.018.038-.04.038-.022 0-.04.02-.04.047 0 .076-.134.36-.17.36-.018 0-.032.047-.032.103 0 .056-.018.102-.04.102-.023 0-.04.046-.04.102 0 .056-.019.102-.04.102-.022 0-.052.046-.065.102-.014.056-.042.102-.062.102-.02 0-.036.033-.036.074 0 .04-.021.095-.047.121-.027.027-.034.063-.017.08s1.187.031 2.6.031h2.57l.013-.091a.303.303 0 00-.05-.183.36.36 0 01-.063-.164c0-.04-.019-.072-.04-.072-.023 0-.041-.044-.041-.099 0-.054-.014-.105-.03-.112-.044-.02-.172-.275-.172-.343 0-.032-.018-.058-.04-.058-.022 0-.04-.046-.04-.102 0-.057-.017-.102-.036-.102-.02 0-.076-.11-.126-.245s-.107-.245-.126-.245c-.02 0-.036-.046-.036-.102 0-.056-.018-.102-.04-.102-.022 0-.04-.046-.04-.103 0-.056-.016-.101-.036-.101-.02 0-.048-.046-.062-.103-.014-.056-.043-.102-.065-.102-.021 0-.04-.045-.04-.102 0-.056-.015-.102-.035-.102-.02 0-.048-.064-.062-.143-.015-.078-.044-.142-.066-.142-.02 0-.038-.022-.038-.048 0-.076-.133-.36-.17-.36-.017 0-.032-.047-.032-.103 0-.056-.018-.102-.04-.102-.022 0-.04-.046-.04-.102 0-.056-.015-.102-.033-.102-.035 0-.17-.283-.17-.356 0-.023-.027-.065-.06-.093a.19.19 0 01-.06-.127c0-.042-.019-.077-.04-.077-.023 0-.041-.046-.041-.102 0-.056-.017-.102-.037-.102-.02 0-.05-.055-.064-.122-.015-.068-.043-.123-.064-.123-.02 0-.037-.037-.037-.082 0-.044-.018-.081-.04-.081-.023 0-.041-.041-.042-.092a.344.344 0 00-.06-.171.31.31 0 01-.06-.153z" fill="#767675"/></svg>
